<svg width="40" height="32" viewBox="0 0 40 32" fill="none" xmlns="http://www.w3.org/2000/svg">
<path d="M30.5014 11.9986H21.0014V15.4986C21.0014 17.9799 18.9826 19.9986 16.5014 19.9986C14.0201 19.9986 12.0014 17.9799 12.0014 15.4986V7.89863L7.94516 10.3361C6.73891 11.0549 6.00141 12.3611 6.00141 13.7611V16.7174L1.00142 19.6049C0.0451754 20.1549 -0.286074 21.3799 0.270175 22.3361L5.27017 30.9986C5.82017 31.9548 7.04516 32.2798 8.00141 31.7298L14.4639 27.9986H23.0014C25.2076 27.9986 27.0014 26.2049 27.0014 23.9986H28.0014C29.1076 23.9986 30.0014 23.1049 30.0014 21.9986V17.9986H30.5014C31.3326 17.9986 32.0014 17.3299 32.0014 16.4986V13.4986C32.0014 12.6674 31.3326 11.9986 30.5014 11.9986ZM39.7326 9.66113L34.7326 0.998646C34.1826 0.0423979 32.9576 -0.282601 32.0014 0.267398L25.5389 3.99864H19.1514C18.4014 3.99864 17.6701 4.21114 17.0326 4.60489L14.9389 5.91114C14.3514 6.27364 14.0014 6.91739 14.0014 7.60488V15.4986C14.0014 16.8799 15.1201 17.9986 16.5014 17.9986C17.8826 17.9986 19.0014 16.8799 19.0014 15.4986V9.99863H30.5014C32.4326 9.99863 34.0014 11.5674 34.0014 13.4986V15.2799L39.0014 12.3924C39.9576 11.8361 40.2826 10.6174 39.7326 9.66113Z" fill="#F37321"/>
</svg>
