<?xml version="1.0" encoding="utf-8"?>
<!-- Generator: Adobe Illustrator 27.2.0, SVG Export Plug-In . SVG Version: 6.00 Build 0)  -->
<svg version="1.1" id="Capa_1" xmlns="http://www.w3.org/2000/svg" xmlns:xlink="http://www.w3.org/1999/xlink" x="0px" y="0px"
	 viewBox="0 0 16 16" style="enable-background:new 0 0 16 16;" xml:space="preserve">
<style type="text/css">
	.st0{fill:#0AE4C3;}
</style>
<path class="st0" d="M8,3.5C8,3.2,7.8,3,7.5,3S7,3.2,7,3.5V9c0,0.2,0.1,0.3,0.3,0.4l3.5,2c0.2,0.1,0.5,0,0.7-0.2
	c0.1-0.2,0-0.5-0.2-0.7L8,8.7V3.5z"/>
<path class="st0" d="M8,16c4.4,0,8-3.6,8-8s-3.6-8-8-8S0,3.6,0,8S3.6,16,8,16z M15,8c0,3.9-3.1,7-7,7s-7-3.1-7-7s3.1-7,7-7
	S15,4.1,15,8z"/>
</svg>
