<svg width="39" height="39" viewBox="0 0 39 39" fill="none" xmlns="http://www.w3.org/2000/svg">
<path d="M6.60364 29.3418C5.73281 29.3418 4.98706 29.0315 4.36639 28.4108C3.74573 27.7901 3.43592 27.0449 3.43698 26.1751V8.75847C3.43698 7.88763 3.74731 7.14188 4.36798 6.52122C4.98864 5.90055 5.73387 5.59074 6.60364 5.5918H31.937C32.8078 5.5918 33.5536 5.90213 34.1742 6.5228C34.7949 7.14347 35.1047 7.88869 35.1036 8.75847V26.1751C35.1036 27.046 34.7933 27.7917 34.1726 28.4124C33.552 29.0331 32.8068 29.3429 31.937 29.3418H6.60364ZM6.60364 26.1751H31.937V8.75847H6.60364V26.1751ZM3.43698 34.0918C2.98837 34.0918 2.61206 33.9398 2.30806 33.6358C2.00406 33.3318 1.85259 32.956 1.85364 32.5085C1.85364 32.0599 2.00564 31.6836 2.30964 31.3796C2.61364 31.0756 2.98942 30.9241 3.43698 30.9251H35.1036C35.5523 30.9251 35.9286 31.0771 36.2326 31.3811C36.5366 31.6851 36.688 32.0609 36.687 32.5085C36.687 32.9571 36.535 33.3334 36.231 33.6374C35.927 33.9414 35.5512 34.0929 35.1036 34.0918H3.43698Z" fill="#0AE4C3"/>
</svg>
