<?xml version="1.0" encoding="utf-8"?>
<!-- Generator: Adobe Illustrator 27.0.0, SVG Export Plug-In . SVG Version: 6.00 Build 0)  -->
<svg version="1.1" id="Capa_1" xmlns="http://www.w3.org/2000/svg" xmlns:xlink="http://www.w3.org/1999/xlink" x="0px" y="0px"
	 viewBox="0 0 75 26" style="enable-background:new 0 0 75 26;" xml:space="preserve">
<style type="text/css">
	.st0{fill:#2975BB;}
</style>
<path id="Combined-Shape" class="st0" d="M15.84,20.13l3.15-19.74h2.55l-3.15,19.74H15.84 M31.31,19.76
	c-0.6,3.83-2.78,5.86-6.31,5.86c-2.18,0-3.83-0.83-4.95-2.18l1.43-1.73c0.98,1.2,2.18,1.65,3.53,1.65c2.1,0,3.45-1.2,3.83-3.68
	l0.15-0.98H28.9c-1.13,1.05-2.48,1.65-3.9,1.65c-2.7,0-4.05-1.35-4.05-3.98c0-0.53,0.08-1.05,0.15-1.58l1.28-8.11h2.48l-1.28,8.11
	c-0.08,0.45-0.08,0.83-0.08,1.13c0,1.5,0.68,2.18,2.1,2.18c1.58,0,2.93-0.9,3.83-2.55l1.35-8.86h2.55L31.31,19.76 M59.83,9.17
	l0.53-2.48h-2.55l-2.1,13.51h2.55L59.38,13c0.53-2.7,2.4-3.98,4.5-3.98c0.23,0,0.45,0,0.68,0l0.38-2.4
	C62.54,6.24,60.74,7.44,59.83,9.17 M50.23,6.77l-4.13,9.31l-1.5-9.31h-2.4l-4.35,9.31l-1.43-9.31h-2.55l2.18,13.44h2.7l4.2-9.31
	l1.43,9.31h2.55l6.01-13.44H50.23 M51.13,20.21l2.1-13.44h2.55l-2.1,13.44H51.13 M56.46,4.07c0,0.83-0.68,1.43-1.43,1.43
	s-1.5-0.68-1.5-1.43s0.68-1.43,1.43-1.43C55.78,2.56,56.46,3.24,56.46,4.07L56.46,4.07z M9.38,10.45l0.23-1.43H0.6l0.38-2.33h9.01
	l0.15-1.13c0.53-3.3,2.7-5.18,6.01-5.18h1.88l-0.38,2.33h-1.65c-1.8,0-2.85,0.9-3.15,2.93l-0.15,1.05h3.45l-0.38,2.33h-3.45
	l-1.95,11.34c-0.53,3.3-2.7,5.18-6.08,5.11H4.13l0.38-2.48h0.15c1.88,0,2.85-0.83,3.15-2.78l1.2-7.36H0l0.38-2.33h9.01V10.45z
	 M68.24,18.18L68.24,18.18c3.53-0.08,3.6-2.55,3.6-2.55h2.33c0,0-0.53,4.65-6.01,4.65c-1.65,0-3.08-0.53-3.9-1.58
	c-0.9-1.13-1.2-2.48-0.9-4.2l0.15-1.2c0.53-3.15,1.2-7.06,6.68-7.06c1.5,0,2.78,0.45,3.6,1.28c0.75,0.68,1.2,1.73,1.2,2.7
	c0,1.43-0.6,2.55-1.8,3.3s-2.7,0.9-3.83,0.9h-3.68c-0.23,1.28-0.08,2.33,0.45,2.85C66.67,17.95,67.34,18.26,68.24,18.18z
	 M66.14,12.02L66.14,12.02l-0.08,0.45h3.45c2.18,0,3.15-0.68,3.15-2.03c0-1.2-0.98-1.88-2.55-1.88C67.94,8.5,66.59,9.77,66.14,12.02
	z"/>
</svg>
