<svg width="45" height="43" viewBox="0 0 45 43" fill="none" xmlns="http://www.w3.org/2000/svg">
<path d="M6.17145 3.25967C5.44514 3.25967 4.74857 3.5482 4.235 4.06178C3.72142 4.57536 3.43289 5.27192 3.43289 5.99823V27.9067C3.43289 28.633 3.72142 29.3295 4.235 29.8431C4.74857 30.3567 5.44514 30.6452 6.17145 30.6452H32.4232C33.8757 30.6455 35.2686 31.2228 36.2956 32.25L41.7727 37.7271V5.99823C41.7727 5.27192 41.4841 4.57536 40.9706 4.06178C40.457 3.5482 39.7604 3.25967 39.0341 3.25967H6.17145ZM39.0341 0.521118C40.4867 0.521118 41.8799 1.09817 42.907 2.12533C43.9342 3.15248 44.5112 4.54561 44.5112 5.99823V41.0326C44.5112 41.3035 44.4307 41.5683 44.2801 41.7936C44.1295 42.0188 43.9154 42.1942 43.665 42.2977C43.4146 42.4012 43.1392 42.4281 42.8735 42.375C42.6078 42.3219 42.3638 42.1911 42.1725 41.9993L34.3594 34.1862C33.8459 33.6726 33.1495 33.3839 32.4232 33.3838H6.17145C4.71883 33.3838 3.3257 32.8067 2.29854 31.7796C1.27139 30.7524 0.694336 29.3593 0.694336 27.9067V5.99823C0.694336 4.54561 1.27139 3.15248 2.29854 2.12533C3.3257 1.09817 4.71883 0.521118 6.17145 0.521118L39.0341 0.521118Z" fill="#0AE4C3"/>
</svg>
