<?xml version="1.0" encoding="utf-8"?>
<!-- Generator: Adobe Illustrator 27.0.0, SVG Export Plug-In . SVG Version: 6.00 Build 0)  -->
<svg version="1.1" id="Capa_1" xmlns="http://www.w3.org/2000/svg" xmlns:xlink="http://www.w3.org/1999/xlink" x="0px" y="0px"
	 viewBox="0 0 75 26" style="enable-background:new 0 0 75 26;" xml:space="preserve">
<style type="text/css">
	.st0{fill:#003087;}
	.st1{fill:#009CDE;}
</style>
<g>
	<path class="st0" d="M14.3,4.6c-0.9-0.6-2-0.9-3.4-0.9H5.4C5,3.7,4.8,3.9,4.7,4.3L2.5,18.3c0,0.1,0,0.3,0.1,0.4
		c0.1,0.1,0.2,0.2,0.3,0.2h2.6c0.5,0,0.7-0.2,0.8-0.6l0.6-3.8c0-0.2,0.1-0.3,0.2-0.4c0.1-0.1,0.3-0.2,0.5-0.2c0.2,0,0.4-0.1,0.6-0.1
		c0.2,0,0.4,0,0.6,0c0.3,0,0.4,0,0.5,0c2,0,3.5-0.6,4.6-1.7c1.1-1.1,1.7-2.6,1.7-4.6C15.7,6.2,15.2,5.2,14.3,4.6L14.3,4.6z
		 M11.5,8.8c-0.1,0.8-0.4,1.3-0.9,1.6c-0.5,0.3-1.2,0.4-2.1,0.4l-1.1,0L8,7.1c0-0.3,0.2-0.4,0.4-0.4h0.6c0.9,0,1.6,0.1,2,0.4
		C11.5,7.4,11.7,7.9,11.5,8.8z"/>
	<path class="st1" d="M72.1,3.7h-2.5c-0.3,0-0.4,0.1-0.4,0.4l-2.2,14.2l0,0.1c0,0.1,0,0.2,0.1,0.3c0.1,0.1,0.2,0.2,0.3,0.2h2.3
		c0.4,0,0.7-0.2,0.7-0.6l2.2-14v0C72.5,3.8,72.4,3.7,72.1,3.7L72.1,3.7z"/>
	<path class="st0" d="M41.5,9.2c0-0.1,0-0.2-0.1-0.3c-0.1-0.1-0.2-0.2-0.3-0.2h-2.6c-0.3,0-0.5,0.1-0.6,0.3l-3.6,5.3l-1.5-5.1
		c-0.1-0.4-0.4-0.5-0.8-0.5h-2.6c-0.1,0-0.2,0.1-0.3,0.2C29,9,28.9,9.1,28.9,9.2c0,0,0.2,0.7,0.7,2c0.4,1.3,0.9,2.7,1.4,4.2
		c0.5,1.5,0.8,2.3,0.8,2.4C30,20.3,29,21.7,29,21.9c0,0.3,0.1,0.4,0.4,0.4h2.6c0.3,0,0.5-0.1,0.6-0.3l8.7-12.6
		C41.5,9.4,41.5,9.3,41.5,9.2L41.5,9.2z"/>
	<path class="st1" d="M66,8.7h-2.6c-0.3,0-0.5,0.4-0.6,1.1c-0.6-0.9-1.7-1.4-3.2-1.4c-1.6,0-3,0.6-4.2,1.8c-1.2,1.2-1.7,2.7-1.7,4.3
		c0,1.3,0.4,2.4,1.2,3.2c0.8,0.8,1.8,1.2,3.2,1.2c0.7,0,1.3-0.1,2-0.4c0.7-0.3,1.2-0.6,1.6-1.1c0,0,0,0.1-0.1,0.3
		c0,0.2-0.1,0.3-0.1,0.4c0,0.4,0.1,0.5,0.4,0.5h2.4c0.4,0,0.7-0.2,0.8-0.6l1.4-8.9c0-0.1,0-0.3-0.1-0.4C66.3,8.8,66.1,8.7,66,8.7z
		 M61.5,15.4c-0.6,0.6-1.3,0.9-2.1,0.9c-0.7,0-1.2-0.2-1.6-0.5c-0.4-0.4-0.6-0.9-0.6-1.5c0-0.8,0.3-1.6,0.9-2.1
		c0.6-0.6,1.3-0.9,2.1-0.9c0.6,0,1.2,0.2,1.6,0.6c0.4,0.4,0.6,0.9,0.6,1.6C62.4,14.2,62.1,14.9,61.5,15.4z"/>
	<path class="st0" d="M27.2,8.7h-2.6c-0.3,0-0.5,0.4-0.6,1.1c-0.6-0.9-1.7-1.4-3.2-1.4c-1.6,0-3,0.6-4.2,1.8
		c-1.2,1.2-1.7,2.7-1.7,4.3c0,1.3,0.4,2.4,1.2,3.2c0.8,0.8,1.8,1.2,3.2,1.2c0.6,0,1.3-0.1,2-0.4c0.7-0.3,1.2-0.6,1.6-1.1
		c-0.1,0.3-0.1,0.5-0.1,0.7c0,0.4,0.1,0.5,0.4,0.5h2.4c0.4,0,0.7-0.2,0.8-0.6l1.4-8.9c0-0.1,0-0.3-0.1-0.4
		C27.4,8.8,27.3,8.7,27.2,8.7z M22.7,15.4c-0.6,0.6-1.3,0.8-2.1,0.8c-0.7,0-1.2-0.2-1.6-0.5c-0.4-0.4-0.6-0.9-0.6-1.5
		c0-0.8,0.3-1.6,0.9-2.1c0.6-0.6,1.3-0.9,2.1-0.9c0.6,0,1.2,0.2,1.6,0.6c0.4,0.4,0.6,0.9,0.6,1.6C23.6,14.2,23.3,14.9,22.7,15.4z"/>
	<path class="st1" d="M53.2,4.6c-0.9-0.6-2-0.9-3.4-0.9h-5.4c-0.5,0-0.7,0.2-0.8,0.6l-2.2,13.9c0,0.1,0,0.3,0.1,0.4
		c0.1,0.1,0.2,0.2,0.3,0.2h2.8c0.3,0,0.5-0.1,0.5-0.4l0.6-4c0-0.2,0.1-0.3,0.2-0.4c0.1-0.1,0.3-0.2,0.5-0.2c0.2,0,0.4-0.1,0.6-0.1
		c0.2,0,0.4,0,0.6,0c0.3,0,0.4,0,0.5,0c2,0,3.5-0.6,4.6-1.7c1.1-1.1,1.7-2.6,1.7-4.6C54.5,6.2,54.1,5.2,53.2,4.6L53.2,4.6z
		 M49.7,10.2c-0.5,0.3-1.3,0.5-2.3,0.5l-1.1,0l0.6-3.7c0-0.3,0.2-0.4,0.4-0.4H48c0.5,0,0.9,0,1.2,0.1c0.3,0,0.6,0.2,0.9,0.4
		c0.3,0.2,0.4,0.6,0.4,1C50.4,9.2,50.2,9.9,49.7,10.2z"/>
</g>
</svg>
