<svg width="35" height="39" viewBox="0 0 35 39" fill="none" xmlns="http://www.w3.org/2000/svg">
<path d="M24.9531 24.2649L17.5 31.4847L10.0469 24.2649C4.46094 24.4995 0 28.9267 0 34.3908V35.1174C0 37.1229 1.67969 38.75 3.75 38.75H31.25C33.3203 38.75 35 37.1229 35 35.1174V34.3908C35 28.9267 30.5391 24.4995 24.9531 24.2649ZM1.0625 6.04115L1.5625 6.15467V10.5744C1.01562 10.8922 0.625 11.4447 0.625 12.1107C0.625 12.7464 0.984375 13.2761 1.49219 13.6016L0.273438 18.3164C0.140625 18.8386 0.4375 19.3759 0.867188 19.3759H4.13281C4.5625 19.3759 4.85938 18.8386 4.72656 18.3164L3.50781 13.6016C4.01562 13.2761 4.375 12.7464 4.375 12.1107C4.375 11.4447 3.98438 10.8922 3.4375 10.5744V6.59361L8.59375 7.79692C7.92188 9.09862 7.5 10.5517 7.5 12.1107C7.5 17.4612 11.9766 21.7977 17.5 21.7977C23.0234 21.7977 27.5 17.4612 27.5 12.1107C27.5 10.5517 27.0859 9.09862 26.4062 7.79692L33.9297 6.04115C35.3516 5.70816 35.3516 3.99022 33.9297 3.65723L19.0547 0.175956C18.0391 -0.0586519 16.9688 -0.0586519 15.9531 0.175956L1.0625 3.64966C-0.351562 3.98265 -0.351562 5.70816 1.0625 6.04115Z" fill="#F37321"/>
</svg>
