<?xml version="1.0" encoding="utf-8"?>
<!-- Generator: Adobe Illustrator 27.0.0, SVG Export Plug-In . SVG Version: 6.00 Build 0)  -->
<svg version="1.1" id="Capa_1" xmlns="http://www.w3.org/2000/svg" xmlns:xlink="http://www.w3.org/1999/xlink" x="0px" y="0px"
	 viewBox="0 0 75 26" style="enable-background:new 0 0 75 26;" xml:space="preserve">
<style type="text/css">
	.st0{fill-rule:evenodd;clip-rule:evenodd;fill:#6461FC;}
</style>
<path class="st0" d="M40,4l-4.1,0.9V1.5L40,0.7V4z M23.1,2.6l-4,0.9l0,13.2c0,2.4,1.8,4.2,4.3,4.2c1.4,0,2.3-0.2,2.9-0.5V17
	c-0.5,0.2-3.1,1-3.1-1.5V9.7h3.1V6.1h-3.1L23.1,2.6z M13.3,9.4c-0.9,0-1.4,0.2-1.4,0.9c0,0.7,0.9,1,2,1.4c1.8,0.6,4.3,1.4,4.3,4.5
	c0,3-2.4,4.6-5.8,4.6c-1.4,0-3-0.3-4.5-0.9V16c1.4,0.8,3.1,1.3,4.5,1.3c0.9,0,1.6-0.2,1.6-1c0-0.8-1-1.1-2.2-1.6
	c-1.8-0.7-4.1-1.5-4.1-4.2c0-2.9,2.2-4.7,5.6-4.7c1.4,0,2.7,0.2,4.1,0.8v3.9C16.2,9.8,14.6,9.4,13.3,9.4z M31.4,7.4l-0.3-1.2h-3.6
	v14.4h4.1v-9.8c1-1.3,2.6-1,3.1-0.9V6.1C34.3,5.9,32.3,5.6,31.4,7.4z M35.8,6.1H40v14.4h-4.1V6.1z M67.2,13.4c0-4.2-2-7.6-6-7.6
	c-3.9,0-6.3,3.3-6.3,7.5c0,5,2.8,7.5,6.8,7.5c2,0,3.5-0.4,4.6-1.1v-3.3c-1.1,0.6-2.4,0.9-4,0.9c-1.6,0-3-0.6-3.2-2.5h8.1
	c0-0.1,0-0.3,0-0.5v0C67.2,14,67.2,13.6,67.2,13.4z M59.1,11.8c0-1.9,1.1-2.6,2.2-2.6c1,0,2.1,0.8,2.1,2.6H59.1z M45.4,7.1
	c0.6-0.5,1.6-1.3,3.2-1.3c2.9,0,5.6,2.6,5.6,7.4c0,5.2-2.7,7.6-5.7,7.6c-1.5,0-2.3-0.6-2.9-1l0,4.7l-4.1,0.9V6.1h3.6L45.4,7.1z
	 M45.6,16.4c0.4,0.4,1,0.8,2,0.8c1.5,0,2.5-1.6,2.5-3.9c0-2.2-1-3.8-2.5-3.8c-0.9,0-1.5,0.3-2,0.8L45.6,16.4z"/>
</svg>
