<svg width="38" height="38" viewBox="0 0 38 38" fill="none" xmlns="http://www.w3.org/2000/svg">
<g clip-path="url(#clip0_1009_1153)">
<path d="M24.2778 27.4444C24.2778 27.7244 24.1665 27.9929 23.9686 28.1908C23.7706 28.3888 23.5021 28.5 23.2222 28.5H8.44442C8.2122 28.5 7.99053 28.7111 7.80053 28.8483L4.2222 31.6666V14.7778C4.2222 14.4978 4.33341 14.2293 4.53136 14.0314C4.72932 13.8334 4.9978 13.7222 5.27775 13.7222H9.35219V11.6111H5.27775C4.4379 11.6111 3.63244 11.9447 3.03858 12.5386C2.44471 13.1324 2.11108 13.9379 2.11108 14.7778V33.7778C2.11265 33.9738 2.16879 34.1655 2.27319 34.3314C2.3776 34.4974 2.52615 34.6309 2.7022 34.7172C2.8718 34.7943 3.0588 34.8252 3.2442 34.8067C3.42959 34.7881 3.60678 34.7208 3.75775 34.6116L9.19386 30.6111H23.3805C23.7806 30.6229 24.1788 30.5525 24.5506 30.4041C24.9223 30.2558 25.2596 30.0327 25.5416 29.7487C25.8237 29.4647 26.0444 29.1259 26.1901 28.7531C26.3358 28.3803 26.4035 27.9816 26.3889 27.5816V26.3889H24.2778V27.4444Z" fill="#F37321"/>
<path d="M32.7222 4.22223H14.7778C13.9379 4.22223 13.1324 4.55586 12.5386 5.14972C11.9447 5.74359 11.6111 6.54904 11.6111 7.3889V20.0556C11.6111 20.8954 11.9447 21.7009 12.5386 22.2947C13.1324 22.8886 13.9379 23.2222 14.7778 23.2222H29.0805L34.1261 27.1383C34.2761 27.2492 34.4528 27.3184 34.6382 27.3388C34.8236 27.3592 35.0111 27.3301 35.1816 27.2545C35.3613 27.1689 35.5131 27.0343 35.6195 26.8662C35.726 26.6982 35.7827 26.5034 35.7833 26.3045V7.3889C35.7838 6.56702 35.4647 5.77715 34.8934 5.18623C34.3222 4.59531 33.5436 4.24962 32.7222 4.22223V4.22223ZM33.7778 24.2145L30.0833 21.3328C29.8991 21.1898 29.6726 21.1118 29.4394 21.1111H14.7778C14.4978 21.1111 14.2293 20.9999 14.0314 20.802C13.8334 20.604 13.7222 20.3355 13.7222 20.0556V7.3889C13.7222 7.10894 13.8334 6.84046 14.0314 6.64251C14.2293 6.44455 14.4978 6.33334 14.7778 6.33334H32.7222C33.0044 6.35895 33.2674 6.48684 33.4618 6.69292C33.6562 6.899 33.7686 7.16906 33.7778 7.45223V24.2145Z" fill="#F37321"/>
</g>
<defs>
<clipPath id="clip0_1009_1153">
<rect width="38" height="38" fill="white"/>
</clipPath>
</defs>
</svg>
