<?xml version="1.0" encoding="utf-8"?>
<!-- Generator: Adobe Illustrator 27.2.0, SVG Export Plug-In . SVG Version: 6.00 Build 0)  -->
<svg version="1.1" id="Capa_1" xmlns="http://www.w3.org/2000/svg" xmlns:xlink="http://www.w3.org/1999/xlink" x="0px" y="0px"
	 viewBox="0 0 16 16" style="enable-background:new 0 0 16 16;" xml:space="preserve">
<style type="text/css">
	.st0{fill:#0AE4C3;}
</style>
<path class="st0" d="M2.5,13.5C2.5,13.2,2.7,13,3,13h10c0.3,0,0.5,0.2,0.5,0.5S13.3,14,13,14H3C2.7,14,2.5,13.8,2.5,13.5z M14,3
	L14,3c0.2,0,0.4,0.1,0.6,0.1c0.1,0.1,0.2,0.1,0.3,0.3C14.9,3.5,15,3.7,15,4v6l0,0c0,0.2-0.1,0.4-0.1,0.5c-0.1,0.1-0.1,0.2-0.3,0.3
	C14.5,10.9,14.3,11,14,11H2l0,0c-0.2,0-0.4-0.1-0.5-0.1c-0.1-0.1-0.2-0.1-0.3-0.3C1.1,10.5,1,10.3,1,10V4l0,0c0-0.2,0.1-0.4,0.1-0.5
	c0.1-0.1,0.1-0.2,0.3-0.3C1.5,3.1,1.7,3,2,3H14z M14,2H2C0,2,0,4,0,4v6c0,2,2,2,2,2h12c2,0,2-2,2-2V4C16,2,14,2,14,2z"/>
</svg>
