<svg width="33" height="47" viewBox="0 0 33 47" fill="none" xmlns="http://www.w3.org/2000/svg">
<path d="M16.5594 0.138428C7.54317 0.138428 0.250977 7.43062 0.250977 16.4468C0.250977 28.6781 16.5594 46.7339 16.5594 46.7339C16.5594 46.7339 32.8678 28.6781 32.8678 16.4468C32.8678 7.43062 25.5756 0.138428 16.5594 0.138428ZM16.5594 22.2713C15.0147 22.2713 13.5332 21.6576 12.4409 20.5653C11.3486 19.473 10.735 17.9916 10.735 16.4468C10.735 14.9021 11.3486 13.4206 12.4409 12.3283C13.5332 11.236 15.0147 10.6224 16.5594 10.6224C18.1041 10.6224 19.5856 11.236 20.6779 12.3283C21.7702 13.4206 22.3838 14.9021 22.3838 16.4468C22.3838 17.9916 21.7702 19.473 20.6779 20.5653C19.5856 21.6576 18.1041 22.2713 16.5594 22.2713Z" fill="#0AE4C3"/>
</svg>
