<svg width="76" height="74" viewBox="0 0 76 74" fill="none" xmlns="http://www.w3.org/2000/svg">
<path d="M30.5378 40.8788C30.5378 43.15 29.705 45.1182 28.0395 46.7837C26.3741 48.3735 24.2544 49.1684 21.6804 49.1684C18.728 49.1684 16.3433 48.1464 14.5264 46.1024C12.7095 43.9827 11.8011 41.3709 11.8011 38.2671C11.8011 31.4537 13.618 26.3816 17.2518 23.0506C20.8855 19.644 24.9357 17.7135 29.4022 17.2593V24.1862C27.0554 24.5647 24.9357 25.6245 23.0431 27.3657C21.1505 29.0312 20.1664 31.1131 20.0907 33.6113C20.6963 33.2328 21.4912 33.0435 22.4753 33.0435C24.9735 33.0435 26.9418 33.7627 28.3802 35.2011C29.8186 36.5637 30.5378 38.4563 30.5378 40.8788ZM52.9082 40.8788C52.9082 43.15 52.0755 45.1182 50.41 46.7837C48.7445 48.3735 46.6248 49.1684 44.0509 49.1684C41.0984 49.1684 38.7138 48.1464 36.8969 46.1024C35.08 43.9827 34.1715 41.3709 34.1715 38.2671C34.1715 31.4537 35.9884 26.3816 39.6222 23.0506C43.256 19.644 47.3061 17.7135 51.7727 17.2593V24.1862C49.4258 24.5647 47.3061 25.6245 45.4135 27.3657C43.521 29.0312 42.5368 31.1131 42.4611 33.6113C43.0667 33.2328 43.8616 33.0435 44.8458 33.0435C47.344 33.0435 49.3123 33.7627 50.7507 35.2011C52.189 36.5637 52.9082 38.4563 52.9082 40.8788Z" fill="#F37321"/>
</svg>
