<?xml version="1.0" encoding="UTF-8"?><svg id="Capa_2" xmlns="http://www.w3.org/2000/svg" viewBox="0 0 140 56.43"><defs><style>.cls-1{fill:#fff;}.cls-2{fill:#da0e19;}</style></defs><g id="Capa_1-2"><rect class="cls-2" width="140" height="56.43"/><path class="cls-1" d="m50.54,31.37h-3.69c0-.33,0-.6,0-.86,0-1.79,0-3.57,0-5.36,0-.51-.04-1.03-.13-1.53-.21-1.1-.72-1.55-1.72-1.58-1.08-.04-1.8.44-2.06,1.45-.12.46-.13.96-.13,1.45-.01,1.81,0,3.63,0,5.44,0,.29,0,.59,0,.97-1.25.16-2.44.1-3.67.04v-12.35h3.63c.03.45.05.86.08,1.3,2.94-2.24,4.92-2.18,7.02.17.57-.42,1.09-.9,1.7-1.23,1.48-.8,3.02-.77,4.53-.09,1.14.52,1.75,1.5,2,2.69.09.42.13.86.13,1.29.01,2.49,0,4.98,0,7.47,0,.21-.02.43-.04.72h-3.56c-.02-.29-.06-.6-.06-.92-.02-2.14-.04-4.27-.06-6.41,0-.11,0-.22-.02-.32-.14-1.06-.68-1.59-1.66-1.65-1.17-.07-1.95.45-2.17,1.5-.08.39-.1.81-.1,1.21-.01,1.89,0,3.79,0,5.68,0,.29,0,.58,0,.93Z"/><path class="cls-1" d="m38.49,31.42c-1.25,0-2.35,0-3.45,0-.42,0-.52-.32-.64-.62-.4-.97-.8-1.94-1.22-2.95h-6.76c-.4.98-.83,1.97-1.22,2.98-.17.43-.4.64-.9.62-1.02-.04-2.03-.01-3.21-.01.43-1.03.79-1.89,1.15-2.75,1.81-4.27,3.63-8.54,5.44-12.8q.38-.89,1.36-.89c.6,0,1.19.02,1.79,0,.5-.02.77.17.97.65,1.16,2.79,2.36,5.56,3.55,8.34.93,2.18,1.86,4.37,2.78,6.55.1.24.19.5.35.91Zm-6.67-6.89c-.69-1.67-1.33-3.24-1.98-4.81-.05,0-.11.01-.16.02-.63,1.57-1.26,3.13-1.92,4.78h4.06Z"/><path class="cls-1" d="m69.75,27.56c.69.62,1.35,1.2,2.04,1.81-.77.99-1.7,1.65-2.83,2.01-2.59.81-6.07.22-7.84-2.53-1.91-2.97-1.24-8.34,3.2-9.83,3.1-1.04,6.68.29,7.75,4.01.31,1.09.46,2.21.27,3.44-1.45,0-2.88,0-4.31,0s-2.81,0-4.22,0c.34,2.56,2.97,3.05,5.94,1.09Zm-5.95-3.43h4.97c-.1-1.52-.96-2.43-2.28-2.5-1.6-.08-2.61,1.2-2.69,2.5Z"/><path class="cls-1" d="m113.81,31.49c-.94,0-1.83,0-2.71,0-.21,0-.42-.04-.66-.06-.03-.38-.05-.72-.08-1.15-.84.66-1.66,1.2-2.69,1.33-1.09.14-2.15.12-3.18-.35-1.39-.62-2.18-1.91-2.14-3.51.04-1.66.88-2.89,2.36-3.44,1.6-.59,3.22-.61,4.86-.21.24.06.47.12.71.19.21-1.02-.27-1.87-1.26-2.18-1.18-.37-2.36-.19-3.52.12-.36.1-.72.22-1.18.36-.3-.91-.6-1.79-.91-2.73,2.5-1.04,5.01-1.49,7.59-.55,1.83.67,2.72,2.15,2.79,4.01.1,2.67.02,5.35.02,8.17Zm-3.47-5.12c-.32-.1-.59-.22-.88-.27-.94-.17-1.88-.26-2.77.2-.96.49-1.18,1.96-.34,2.49,1.01.64,2.09.5,3.08-.05.89-.49,1.12-1.32.91-2.36Z"/><path class="cls-1" d="m101.2,20.95c-.7.75-1.37,1.48-2.1,2.27-.92-.91-1.93-1.52-3.27-1.34-.75.1-1.31.48-1.79,1.02-1.05,1.19-1.09,3.37-.09,4.6.67.81,1.55,1.09,2.59,1.08,1.06-.01,1.8-.65,2.64-1.22.66.73,1.3,1.45,1.96,2.18-1.98,2.77-6.76,2.92-9.39.52-2.75-2.5-2.76-6.96-.02-9.62,2.44-2.37,7.39-2.32,9.45.51Z"/><path class="cls-1" d="m78.11,31.38h-3.58v-12.39h3.51v1.85c.05.04.1.08.15.12.88-1.45,2-2.43,3.85-2.22v3.64c-.31.05-.63.09-.94.15-1.62.28-2.71,1.34-2.85,2.98-.13,1.53-.11,3.08-.15,4.62-.01.4,0,.8,0,1.26Z"/><path class="cls-1" d="m83.95,18.99h3.5v12.39h-3.5v-12.39Z"/><path class="cls-1" d="m94.1,42.75h-.99v-7.02h1.04c.02.27.04.53.06.82,1.58-1.62,3.42-1.23,4.47.15.14-.12.27-.23.4-.35.9-.91,1.99-1.05,3.15-.67,1.08.36,1.56,1.24,1.61,2.31.06,1.56.02,3.12.02,4.74h-1.11c0-1.28,0-2.52,0-3.76,0-.37-.05-.75-.12-1.12-.13-.76-.61-1.2-1.36-1.3-.75-.1-1.44.12-1.82.8-.23.4-.35.91-.38,1.38-.05,1.05-.02,2.11-.02,3.16,0,.26-.02.53-.04.85h-1.07c-.01-.3-.03-.59-.04-.87-.02-1.19,0-2.38-.05-3.57-.05-1.04-.67-1.7-1.55-1.77-.97-.08-1.82.49-2.04,1.47-.12.49-.13,1.02-.14,1.53-.02,1.05,0,2.1,0,3.23Z"/><path class="cls-1" d="m60.45,41.01c.25.22.46.41.71.63-.91,1.12-2.07,1.52-3.41,1.33-1.42-.2-2.45-.97-2.96-2.33-.64-1.71-.04-3.76,1.37-4.61,1.24-.75,2.51-.72,3.75.06.95.6,1.74,2.03,1.38,3.62h-5.38c-.03,1.17.65,1.99,1.76,2.24,1.09.24,1.93-.31,2.78-.93Zm-.28-2.26c-.16-1.48-.96-2.31-2.13-2.29-1.18.02-2.13.99-2.2,2.29h4.32Z"/><path class="cls-1" d="m112.65,38.43c.08-.98-.28-1.5-1.16-1.76-1.02-.3-1.97,0-2.98.36-.1-.29-.2-.56-.29-.82,1.19-.87,3.4-.94,4.55-.16.63.42.9,1.06,1.03,1.77.06.32.06.65.06.97,0,1.29,0,2.59,0,3.95h-1.03c-.07-.23-.13-.45-.22-.78-.83.87-1.8,1.07-2.88.92-1.57-.21-2.48-1.49-2.1-2.94.24-.9,1.18-1.59,2.38-1.63.86-.03,1.72.07,2.63.12Zm-.02.94c-.92-.02-1.8-.09-2.68-.03-.71.05-1.24.66-1.28,1.26-.04.57.35,1.11,1,1.32.89.28,1.73.11,2.45-.45.62-.48.71-1.17.52-2.1Z"/><path class="cls-1" d="m72.72,35.51c2.14.02,3.78,1.64,3.77,3.74-.02,2.16-1.59,3.71-3.77,3.7-2.22,0-3.82-1.59-3.79-3.76.02-2.14,1.63-3.69,3.79-3.67Zm2.57,3.8c.04-1.51-1.05-2.76-2.43-2.8-1.55-.05-2.66,1.06-2.7,2.69-.03,1.49,1.04,2.73,2.37,2.74,1.62.02,2.72-1.02,2.76-2.63Z"/><path class="cls-1" d="m88.18,42.94c-2.17-.03-3.79-1.62-3.78-3.72,0-2.09,1.68-3.73,3.78-3.72,2.19.02,3.75,1.63,3.76,3.82,0,1.99-1.73,3.75-3.75,3.62Zm-2.6-3.7c-.01,1.45,1.12,2.69,2.46,2.69,1.6,0,2.68-1.07,2.71-2.69.02-1.47-1.12-2.72-2.51-2.74-1.54-.03-2.64,1.11-2.66,2.73Z"/><path class="cls-1" d="m83.48,42.74h-1.12c0-1.03,0-2.02,0-3.01,0-.38,0-.76,0-1.14-.04-1.27-.72-2.04-1.81-2.06-1.19-.02-2.1.83-2.14,2.07-.03,1.05,0,2.11,0,3.16,0,.3,0,.59,0,.96h-1.15v-7.02c.2-.02.35-.04.51-.04.18,0,.37.02.6.04.03.29.05.54.09.91.71-.83,1.5-1.17,2.5-1.12,1.37.07,2.43.89,2.52,2.27.11,1.61.03,3.23.03,4.97Z"/><path class="cls-1" d="m68.5,36.89c-.23.24-.43.46-.71.76-.77-.8-1.61-1.39-2.68-1.07-.51.16-1.06.48-1.39.89-.94,1.14-.81,2.74.19,3.77,1,1.02,2.2.95,3.91-.27.22.18.46.38.69.57-.99,1.6-3.61,2.02-5.29.66-1.65-1.33-1.79-3.87-.33-5.51,1.37-1.54,4.15-1.59,5.61.21Z"/><path class="cls-1" d="m87.6,14.5v3.11c-.39.02-.78.05-1.18.05-.68,0-1.35-.01-2.03,0-.43.01-.66-.12-.64-.6.02-.83,0-1.67,0-2.57h3.84Z"/><path class="cls-1" d="m64.78,17.67c.97-1.52,1.81-2.84,2.69-4.22,1.07.47,2.07.9,3.18,1.39-.71.66-1.4,1.19-1.94,1.84-.74.9-1.64,1.11-2.72.99-.33-.04-.67,0-1.21,0Z"/><path class="cls-1" d="m105.41,35.7h1.03v7.04c-.33.01-.66.03-1.03.05v-7.09Z"/><path class="cls-1" d="m106.78,32.56c.42.2.73.34,1.18.56-.81.6-1.16,1.67-2.49,1.44.46-.7.86-1.31,1.32-2Z"/></g></svg>