<?xml version="1.0" encoding="UTF-8"?>
<svg id="Capa_2" data-name="Capa 2" xmlns="http://www.w3.org/2000/svg" viewBox="0 0 420 55.77">
  <defs>
    <style>
      .cls-1 {
        fill: #211915;
      }

      .cls-2 {
        fill: #6887a6;
      }
    </style>
  </defs>
  <g id="Capa_1-2" data-name="Capa 1">
    <g>
      <path class="cls-1" d="m151.85,52.88h17.69v-2.3h-3.8c-.14,0-.48-.07-.95-.2-.68-.14-1.22-.41-1.56-.61-.54-.55-.75-1.22-.75-2.51V7.6l15.25,45.28h5.02l15.45-45.35v40.61c0,.61-.27,1.22-.81,1.63-.41.34-1.42.68-2.37.81h-3.93v2.3h25.02v-2.3h-3.73c-2.24,0-3.53-1.29-3.53-3.32V9.77c0-1.49.14-1.97.88-2.44.41-.4,1.42-.75,2.51-.88h3.93v-2.44h-20.34l-11.86,34.58-11.53-34.58h-20.54v2.44h3.73c2.03,0,3.39,1.29,3.39,3.32v36.13l.07,1.35c0,1.97-1.49,3.32-3.52,3.32h-3.73v2.3h0Z"/>
      <path class="cls-1" d="m217.1,6.24h3.86c.14,0,.54.14.95.27.61.14,1.15.34,1.49.61.54.47.74.95.74,1.76v30.98c0,5.56,1.49,8.74,5.02,10.71,3.18,1.96,8.34,3.12,13.29,3.12,5.62,0,11.19-1.63,13.97-3.93,1.43-1.29,2.58-3.12,3.12-5.35.54-1.83.82-4.14.82-6.58V9.63c0-2.03,1.42-3.39,3.59-3.39h3.8v-2.24h-17.83v2.24h3.8c1.9,0,3.19,1.42,3.19,3.39v28.54c0,7.73-3.19,10.91-11.18,10.91-5.29,0-9.22-1.83-10.44-5.01-.4-1.02-.54-2.38-.54-5.29V9.63c0-1.97,1.36-3.39,3.46-3.39h3.72v-2.24h-24.81v2.24h0Z"/>
      <path class="cls-1" d="m268.7,52.88h17.97v-2.3h-3.86c-.07,0-.48-.07-1.02-.14-.61-.2-1.22-.41-1.63-.68-.61-.55-.81-1.09-.81-2.51V13.91l24.88,38.98h7.53V8.82c0-1.02.81-1.83,2.31-2.24.41-.07.88-.2.95-.2h3.79v-2.37h-17.49v2.37h3.73c2.1,0,3.46,1.36,3.46,3.39v30.23l-23.05-36h-16.68v2.44h3.73c2.03,0,3.46,1.29,3.46,3.32v37.49c0,1.97-1.49,3.32-3.52,3.32h-3.73v2.3h0Z"/>
      <path class="cls-1" d="m320.1,52.88h26.3c13.63,0,23.46-10.51,23.46-25.08,0-8.41-3.86-15.86-10.44-20.13-3.94-2.51-8.2-3.66-13.76-3.66h-25.56v2.37h3.8c2.03,0,3.39,1.29,3.39,3.39v37.49c0,1.29-.27,2.04-.88,2.58-.41.27-1.49.61-2.44.88h-3.86v2.17h0Zm17.69-5.29V9.09c0-2.3.54-2.91,2.64-2.91h6.24c3.46,0,6.78,1.69,8.54,4.4,1.22,1.97,2.1,4.61,2.65,8.48.34,2.71.54,6.71.54,9.62,0,15.12-3.93,22.1-12.47,22.1h-5.42c-2.03,0-2.71-.75-2.71-3.19h0Z"/>
      <path class="cls-1" d="m374.37,28.48c0,14.98,9.15,25.08,22.78,25.08s22.85-10.1,22.85-25.08c0-7.05-2.1-13.22-6.17-17.97-4.07-4.81-9.49-7.19-16.68-7.19s-12.41,2.31-16.75,7.19c-3.93,4.54-6.03,10.92-6.03,17.97h0Zm12.68-14.17c1.35-5.35,4.81-8.13,10.1-8.13s8.68,2.78,10.17,8.13c.95,3.46,1.22,7.12,1.22,14.17s-.27,10.58-1.22,14.1c-1.43,5.29-4.88,8.14-10.17,8.14s-8.68-2.85-10.1-8.14c-1.02-3.45-1.36-7.05-1.36-14.1,0-7.12.34-10.64,1.36-14.17h0Z"/>
      <path class="cls-1" d="m0,52.88h43.93l1.35-15.72h-2.58c-1.02,8.74-6.58,13.56-15.79,13.56h-6.78c-1.83,0-2.58-.88-2.58-2.85v-20.47h3.53c3.59,0,6.78.81,8.2,2.1,1.42,1.35,2.44,3.86,2.44,6.17,0,.41,0,.88-.07,1.36h2.51V15.67l-2.51-.07v.54c0,5.9-3.73,9.09-10.57,9.09h-3.53V8.55c0-1.83.54-2.37,2.24-2.37h6.78c5.36,0,8.14.81,11.05,3.25,2.17,1.76,3.86,4.41,4.27,6.78.14.61.2,1.42.27,2.44h2.85l-1.15-14.65H0v2.37h3.8c1.97,0,3.32,1.22,3.32,3.32v37.62c0,1.97-1.36,3.26-3.39,3.26H0v2.3h0Z"/>
      <path class="cls-1" d="m46,6.38h3.73c2.1,0,3.46,1.29,3.46,3.39v37.42c0,1.36-.27,2.03-.82,2.58-.47.34-1.49.68-2.44.81h-3.93v2.3h41.96l1.02-19.25h-2.78c-1.63,10.85-6.85,17.08-14.57,17.08h-5.42c-1.83,0-2.65-.88-2.65-2.92V9.77c0-2.03,1.36-3.39,3.39-3.39h3.8v-2.37h-24.74v2.37h0Z"/>
      <g>
        <path class="cls-2" d="m146.37,40.06c1.61-3.31,2.59-7,2.76-10.9h-26.23v11.11h23.36s-.01.03.11-.22Z"/>
        <path class="cls-2" d="m119.96,14.42h-23.16c-1.95,3.54-3.16,7.55-3.4,11.81h26.57v-11.81h0Z"/>
        <path class="cls-2" d="m122.9,14.42v11.81h26.22c-.25-4.27-1.46-8.27-3.4-11.81h-22.82Z"/>
        <path class="cls-2" d="m119.96,29.17h-26.59c.18,3.98,1.2,7.74,2.87,11.11h23.72v-11.11h0Z"/>
        <path class="cls-2" d="m119.96,43.21h-22.03c4.77,7.24,12.82,12.13,22.03,12.56v-12.56Z"/>
        <path class="cls-2" d="m122.9,11.48h20.95C139.07,4.92,131.51.52,122.9.02v11.47Z"/>
        <path class="cls-2" d="m122.9,43.21v12.53c9.07-.53,16.97-5.38,21.68-12.53h-21.68Z"/>
        <path class="cls-2" d="m119.96,11.48V0c-8.75.4-16.45,4.83-21.29,11.48h21.29Z"/>
      </g>
    </g>
  </g>
</svg>