<svg id="LOGOS" xmlns="http://www.w3.org/2000/svg" viewBox="0 0 815.26 535.24"><defs><style>.cls-1{fill:#0047e9;}</style></defs><polygon class="cls-1" points="66.39 67.49 66.39 104.1 66.39 134.99 103.82 134.99 103.82 104.1 290.39 104.1 290.39 104.1 290.39 67.49 66.39 67.49"/><polygon class="cls-1" points="290.39 333.06 252.96 333.06 252.96 363.93 66.39 363.93 66.39 363.95 66.39 400.54 290.39 400.54 290.39 363.93 290.39 363.93 290.39 333.06"/><rect class="cls-1" x="441.14" y="146.91" width="47.5" height="174.44"/><path class="cls-1" d="M335.78,196.36c0-8.23,7.11-12.34,21-12.34,15.33,0,31,4.48,47.5,13.83v-40a138.17,138.17,0,0,0-55-11.56c-37.4,0-62.84,19.07-62.84,49,0,50.11,77.8,52,77.8,76.29q0,13.47-24.69,13.47c-13.68,0-32.76-5.13-48.27-14.14v39.3a131.8,131.8,0,0,0,53.88,11.12c43.76,0,67.7-22.07,67.7-50.87C413.2,216.55,335.41,215.06,335.78,196.36Z"/><path class="cls-1" d="M242.74,270.93a102,102,0,0,1-49,12.2c-30.67,0-47.5-13.09-50.12-39.27H262.2V232.64c0-53.49-31.42-87.15-82.66-87.15-25.43,0-46,8.6-62.08,25.43s-23.94,37.41-23.94,62.46c0,25.81,8.23,47.13,24.31,63.59q24.69,24.67,70.69,24.68c20.14,0,38.33-3.89,54.22-11.63Zm-61.33-89.16c18.33,0,29.93,10.1,34.41,30.67H145.14C149.62,194.11,163.46,181.77,181.41,181.77Z"/><path class="cls-1" d="M615.79,186.18a81.26,81.26,0,0,1,42.64,11.59v-40c-13.84-7.48-31.8-11.22-54.61-11.22-27.3,0-48.62,7.86-64,23.94s-22.81,36.65-22.81,61.71v4.49c0,25.06,7.48,45.63,22.81,61.71s36.66,23.94,64,23.94c22.81,0,40.77-3.74,54.61-11.22v-40a81.26,81.26,0,0,1-42.64,11.59c-29.55,0-47.88-17.95-47.88-47.5,0-.06,0-1.68,0-1.85C568.07,204,586.36,186.18,615.79,186.18Z"/><path class="cls-1" d="M350.38,381a9.16,9.16,0,0,1,6.31,8.88c0,5.88-4.61,10.65-11.47,10.65h-17.4V364.27H344c6.31,0,10.59,3.62,10.59,9.06a8.86,8.86,0,0,1-4.17,7.46Zm-14.6-2.42h6.09c1.87,0,5-.6,5-4,0-2.47-1.7-4.17-4.71-4.17h-6.37Zm7,5.82h-7v9.82h7.41c4.66,0,5.65-2.91,5.65-5C348.84,386.28,346.54,384.41,342.81,384.41Z"/><path class="cls-1" d="M370.68,376.07v14.15c0,2.7,1.43,5,4,5,3,0,5-2.08,5-6.69V376.12h7.41v24.42h-5.93l-.88-3.34h-.22a9.23,9.23,0,0,1-7.84,3.73c-6,0-9-3.19-9-9.66v-15.2Z"/><path class="cls-1" d="M392.84,392.75a15.69,15.69,0,0,0,8.39,3c2.42,0,3.62-.66,3.62-2,0-3.57-11.41-3.84-11.41-11.19,0-4.45,3.79-7.19,9.22-7.19a22.37,22.37,0,0,1,8.07,1.7V383a15.71,15.71,0,0,0-7-2c-2,0-3.08.66-3.08,1.81,0,2.8,11.31,2.91,11.31,10.87,0,3.95-3.13,7.46-9.94,7.46a20.23,20.23,0,0,1-9.21-2.09Z"/><path class="cls-1" d="M421.71,372.06A4,4,0,0,1,417.6,368a4.14,4.14,0,0,1,4.11-4.07,4.09,4.09,0,0,1,0,8.18Zm-3.89,28.48V376.07h7.51v24.47Z"/><path class="cls-1" d="M449.41,400.54v-14c0-2.91-1.53-5.21-4.06-5.21-3,0-5.38,2-5.38,6.64v12.56h-7.41V376.12h5.77c.33,1.1.55,2.25.82,3.35h.22a10.79,10.79,0,0,1,8.73-4c5.76,0,8.72,3.68,8.72,9.49v15.53Z"/><path class="cls-1" d="M487.26,388.08v1.65H469.87c.43,4.34,3.61,5.76,7.35,5.76a15.34,15.34,0,0,0,8.83-2.85v5.87a17.7,17.7,0,0,1-9.6,2.63c-9.38,0-13.94-5.75-13.94-12.95s5-12.89,12.62-12.89S487.26,380.29,487.26,388.08Zm-17.18-3h10.37c-.6-2.74-2.3-4.5-5-4.5A5.51,5.51,0,0,0,470.08,385.12Z"/><path class="cls-1" d="M491.66,392.75a15.72,15.72,0,0,0,8.4,3c2.41,0,3.62-.66,3.62-2,0-3.57-11.41-3.84-11.41-11.19,0-4.45,3.78-7.19,9.22-7.19a22.28,22.28,0,0,1,8.06,1.7V383a15.71,15.71,0,0,0-7-2c-2,0-3.07.66-3.07,1.81,0,2.8,11.3,2.91,11.3,10.87,0,3.95-3.12,7.46-9.93,7.46a20.27,20.27,0,0,1-9.22-2.09Z"/><path class="cls-1" d="M515.05,392.75a15.69,15.69,0,0,0,8.4,3c2.41,0,3.62-.66,3.62-2,0-3.57-11.42-3.84-11.42-11.19,0-4.45,3.79-7.19,9.22-7.19a22.33,22.33,0,0,1,8.07,1.7V383a15.71,15.71,0,0,0-7-2c-2,0-3.07.66-3.07,1.81,0,2.8,11.3,2.91,11.3,10.87,0,3.95-3.13,7.46-9.93,7.46a20.24,20.24,0,0,1-9.22-2.09Z"/><path class="cls-1" d="M581.76,404a74.3,74.3,0,0,1-8.5-5.43,17.84,17.84,0,0,1-10.54,3.29c-7.63,0-12.07-3.73-12.07-10a12.35,12.35,0,0,1,7.3-10.7,16.67,16.67,0,0,1-1.59-6.58c0-6.48,4.33-10.65,11.63-10.65a18.6,18.6,0,0,1,8.67,2c-.11,1.81-.27,3.68-.44,5.54a20,20,0,0,0-7.41-1.92c-3.56,0-5.38,2-5.38,5.16,0,4.61,3.85,10.43,10,16a31.65,31.65,0,0,0,5-11.14c1.7,1,3.29,2.09,5,3.18a33.78,33.78,0,0,1-5.59,11.64,59.41,59.41,0,0,0,9,5.76Zm-13.11-9.11a44.59,44.59,0,0,1-7.74-8.73,6.08,6.08,0,0,0-3.4,5c0,3.4,2.58,5.37,6.09,5.37A8.54,8.54,0,0,0,568.65,394.89Z"/><path class="cls-1" d="M345.88,448.7l-10.1-11a.19.19,0,0,1-.17.06V455.4h-7.84V418.58H329c5.81,6.86,11.69,13.44,17.5,20.25l17.45-20.25h1.15V455.4h-7.9V437.73c-.05-.06-.16-.06-.22-.06l-9.87,11Z"/><path class="cls-1" d="M388.43,452.54c-1.81,2.15-4.88,3.46-8.61,3.46-5.66,0-8.07-3.4-8.07-7,0-4.61,3.4-8.56,11.41-8.56h4.78V440c0-2.91-1.7-4.44-5.6-4.44a17.69,17.69,0,0,0-7.57,2.08v-5.54a25,25,0,0,1,9.38-1.87c8.12,0,11.14,4.23,11.14,10.54V455.4h-6.15l-.54-2.86Zm-5.7-1.58a5.05,5.05,0,0,0,5.21-5.38v-.94H384.1c-3.35,0-5.21,1-5.21,3.29C378.89,449.91,380.53,451,382.73,451Z"/><path class="cls-1" d="M409,434.87a7.94,7.94,0,0,1,7.29-4.55,9.4,9.4,0,0,1,3.19.55v6.75a9.82,9.82,0,0,0-3.73-.82c-3.51,0-6,2.85-6,7.79V455.4h-7.41V431h5.49l.93,3.89Z"/><path class="cls-1" d="M438.55,442.61l10.86,12.79H441l-9.71-11.91V455.4h-7.63v-39h7.63V442c3.13-3.67,6.25-7.29,9.33-11h8.12C445.3,434.82,442,438.71,438.55,442.61Z"/><path class="cls-1" d="M475.81,442.94v1.65H458.42c.43,4.33,3.62,5.76,7.35,5.76a15.34,15.34,0,0,0,8.83-2.85v5.87A17.7,17.7,0,0,1,465,456c-9.38,0-13.94-5.76-13.94-12.95s5-12.89,12.63-12.89S475.81,435.15,475.81,442.94Zm-17.17-3H469c-.61-2.74-2.31-4.5-5.05-4.5A5.5,5.5,0,0,0,458.64,440Z"/><path class="cls-1" d="M490.45,423v8H497v5.49h-6.52v9.71c0,2.52.82,3.78,3.18,3.78a8.79,8.79,0,0,0,4.17-1.31v5.65a12.48,12.48,0,0,1-6.42,1.7c-6,0-8.29-3.29-8.29-8.56v-11H479.3v-4.12l4.61-1.48,5.33-7.9Z"/><path class="cls-1" d="M507,426.92a4,4,0,0,1-4.11-4.12,4.14,4.14,0,0,1,4.11-4.06,4.09,4.09,0,0,1,0,8.18Zm-3.9,28.48V430.93h7.52V455.4Z"/><path class="cls-1" d="M534.66,455.4v-14c0-2.91-1.53-5.22-4.06-5.22-3,0-5.38,2-5.38,6.64V455.4h-7.41V431h5.77c.33,1.1.54,2.25.82,3.35h.22a10.75,10.75,0,0,1,8.72-4c5.76,0,8.73,3.68,8.73,9.5V455.4Z"/><path class="cls-1" d="M551.44,454.14l-1.49-.28c-2.08-.38-3-1.64-3-2.9v-.33l4.55-4.56a8.19,8.19,0,0,1-2.52-6.31c0-5.54,4.66-9.55,10.75-9.55a17.43,17.43,0,0,1,4.61.77h8.73v3.4c-1.32.16-2.58.39-3.85.6a8.69,8.69,0,0,1,1.65,4.89c0,4.72-3.89,8.83-10.48,8.83a13.88,13.88,0,0,1-5-.93l-1.26,2.09L566,451.17c4.72.55,6.8,2.53,6.8,6.53,0,3.46-3.57,10.05-13.77,10.05-8.56,0-11.36-4-11.36-7.14A7.86,7.86,0,0,1,551.44,454.14Zm13.93,3.4c0-1.32-1.2-1.87-2.74-2l-7.08-.77a5.49,5.49,0,0,0-1.59,3.62c0,2,1.59,3.79,5.1,3.79C563.4,462.15,565.37,459.57,565.37,457.54Zm-.93-18.11a4.36,4.36,0,0,0-4.39-4.5,4.31,4.31,0,0,0-4.33,4.5c0,2.69,1.53,4.61,4.33,4.61A4.29,4.29,0,0,0,564.44,439.43Z"/><path class="cls-1" d="M588.13,445.69a21.34,21.34,0,0,0,11.47,3.89c3.46,0,6.31-1.15,6.31-4,0-6.92-17.28-6.31-17.28-17.12,0-6.1,5.1-10,12.34-10a26.1,26.1,0,0,1,10.82,2.31v7a19.6,19.6,0,0,0-9.5-2.91c-2.91,0-5.49,1-5.49,3.57,0,5.1,17.29,4.83,17.29,17,0,5.82-4.39,10.65-13.45,10.65-3.78,0-8.78-.72-12.51-2.91Z"/><path class="cls-1" d="M638.87,431.31v6a10.72,10.72,0,0,0-5.21-1.31,6.82,6.82,0,0,0-7.19,7.19c0,4.33,2.74,7,7,7a13.15,13.15,0,0,0,6.26-1.7v5.87a19.17,19.17,0,0,1-8,1.64c-8.23,0-12.73-5.43-12.73-12.56,0-7.85,5.6-13.23,13.44-13.23A18.6,18.6,0,0,1,638.87,431.31Z"/><path class="cls-1" d="M662.2,455.4v-14c0-2.91-1.37-5.16-4.11-5.16-2.91,0-5.33,2-5.33,6.64V455.4H645.3v-39h7.19v17.51s.11.05.16.05a9.38,9.38,0,0,1,7.9-3.51c5.82,0,9.06,3.51,9.06,9.44V455.4Z"/><path class="cls-1" d="M702.66,443.11c0,7.41-5.49,12.84-13.61,12.84-8.56,0-13.72-5.49-13.72-12.84s5.6-12.9,13.72-12.9C697.39,430.21,702.66,435.81,702.66,443.11ZM682.74,443c0,4.11,2.3,7,6.36,7s6.42-3.07,6.42-7c0-3.79-2.46-6.86-6.42-6.86S682.74,439.27,682.74,443Z"/><path class="cls-1" d="M734.45,443.11c0,7.41-5.49,12.84-13.61,12.84-8.56,0-13.72-5.49-13.72-12.84s5.6-12.9,13.72-12.9C729.18,430.21,734.45,435.81,734.45,443.11ZM714.53,443c0,4.11,2.3,7,6.36,7s6.43-3.07,6.43-7c0-3.79-2.47-6.86-6.43-6.86S714.53,439.27,714.53,443Z"/><path class="cls-1" d="M740.31,455.4v-39h7.46v39Z"/></svg>