<svg width="98" height="64" viewBox="0 0 98 64" fill="none" xmlns="http://www.w3.org/2000/svg">
<path d="M8.71857 8.07007V12.4476V16.1412H13.1768V12.4476H35.3986V8.07007H8.71857Z" fill="white"/>
<path d="M35.3986 39.8247H30.9404V43.5159H8.71857V43.5183V47.8935H35.3986V43.5159V39.8247Z" fill="white"/>
<path d="M59.0116 17.5664H53.354V38.4246H59.0116V17.5664Z" fill="white"/>
<path d="M40.8049 23.4792C40.8049 22.4951 41.6518 22.0037 43.3062 22.0037C45.1321 22.0037 46.9985 22.5393 48.9638 23.6573V18.8744C46.8975 17.968 44.6678 17.4975 42.4128 17.4922C37.9582 17.4922 34.9281 19.7724 34.9281 23.3512C34.9281 29.343 44.1947 29.569 44.1947 32.4734C44.1947 33.5472 43.2144 34.0841 41.2539 34.0841C39.6245 34.0841 37.352 33.4707 35.5046 32.3933V37.0925C37.5268 37.984 39.7136 38.4371 41.9221 38.4222C47.1343 38.4222 49.9857 35.7832 49.9857 32.3395C50.0262 25.8934 40.7608 25.7152 40.8049 23.4792Z" fill="white"/>
<path d="M29.7232 32.3957C27.9303 33.3653 25.9234 33.8669 23.8869 33.8544C20.2339 33.8544 18.2293 32.2892 17.9172 29.1588H32.041V27.8172C32.041 21.4213 28.2986 17.3965 22.1956 17.3965C19.1667 17.3965 16.7166 18.4248 14.8014 20.4372C12.8861 22.4496 11.95 24.9104 11.95 27.9057C11.95 30.9919 12.9302 33.5412 14.8455 35.5093C16.806 37.4759 19.6125 38.4596 23.2652 38.4604C25.664 38.4604 27.8305 37.9952 29.7232 37.0697V32.3957ZM22.4183 21.7346C24.6015 21.7346 25.9832 22.9423 26.5168 25.4019H18.0983C18.6319 23.2101 20.2803 21.7346 22.4183 21.7346Z" fill="white"/>
<path d="M74.1561 22.2621C75.9441 22.2442 77.702 22.7239 79.2349 23.6479V18.865C77.5864 17.9706 75.4473 17.5234 72.7304 17.5234C69.4788 17.5234 66.9394 18.4633 65.1076 20.386C63.2757 22.3087 62.3907 24.7683 62.3907 27.7648V28.3017C62.3907 31.2982 63.2816 33.7578 65.1076 35.6805C66.9335 37.6033 69.474 38.5431 72.7304 38.5431C75.4473 38.5431 77.5864 38.0959 79.2349 37.2015V32.4186C77.702 33.3426 75.9441 33.8223 74.1561 33.8044C70.6365 33.8044 68.4533 31.6581 68.4533 28.1247C68.4533 28.1176 68.4533 27.9239 68.4533 27.9035C68.4723 24.3929 70.6508 22.2621 74.1561 22.2621Z" fill="white"/>
<path d="M42.5439 45.5571C42.7659 45.63 42.9587 45.7725 43.094 45.9636C43.2293 46.1548 43.2999 46.3845 43.2954 46.6189C43.2954 47.322 42.7464 47.8923 41.9293 47.8923H39.8568V43.5566H41.784C42.5355 43.5566 43.0453 43.9895 43.0453 44.64C43.0442 44.8186 42.998 44.9941 42.9112 45.1501C42.8244 45.306 42.6996 45.4374 42.5486 45.532L42.5439 45.5571ZM40.8049 45.2677H41.5303C41.753 45.2677 42.1258 45.196 42.1258 44.7894C42.1258 44.4941 41.9233 44.2908 41.5648 44.2908H40.8061L40.8049 45.2677ZM41.6387 45.9636H40.8049V47.1378H41.6875C42.2425 47.1378 42.3604 46.7899 42.3604 46.54C42.3604 46.1884 42.0865 45.9648 41.6422 45.9648L41.6387 45.9636Z" fill="white"/>
<path d="M44.9618 44.9675V46.6595C44.9618 46.9823 45.1321 47.2573 45.4382 47.2573C45.7955 47.2573 46.0337 47.0086 46.0337 46.4574V44.9735H46.9163V47.8935H46.21L46.1052 47.4941H46.079C45.9717 47.6396 45.8304 47.7564 45.6676 47.8342C45.5047 47.912 45.3253 47.9484 45.1452 47.9401C44.4305 47.9401 44.0732 47.5587 44.0732 46.785V44.9675H44.9618Z" fill="white"/>
<path d="M47.6012 46.9622C47.8927 47.1762 48.2398 47.3008 48.6005 47.3209C48.8887 47.3209 49.0316 47.242 49.0316 47.0818C49.0316 46.6549 47.6726 46.6226 47.6726 45.7438C47.6726 45.2117 48.124 44.884 48.7708 44.884C49.101 44.8914 49.4269 44.9603 49.732 45.0873V45.7964C49.4766 45.6522 49.191 45.5703 48.8982 45.5572C48.66 45.5572 48.5314 45.6361 48.5314 45.7737C48.5314 46.1085 49.8785 46.1216 49.8785 47.0734C49.8785 47.5457 49.5057 47.9654 48.6946 47.9654C48.3144 47.9702 47.9385 47.8845 47.5976 47.7155L47.6012 46.9622Z" fill="white"/>
<path d="M51.0398 44.4882C50.9755 44.49 50.9116 44.4787 50.8518 44.455C50.792 44.4313 50.7375 44.3958 50.6918 44.3504C50.6461 44.305 50.61 44.2509 50.5856 44.1911C50.5613 44.1314 50.5493 44.0673 50.5503 44.0028C50.5524 43.8736 50.6049 43.7503 50.6963 43.6594C50.7878 43.5685 50.9111 43.517 51.0398 43.5161C51.169 43.5161 51.2929 43.5676 51.3843 43.6594C51.4756 43.7511 51.5269 43.8755 51.5269 44.0052C51.5269 44.1349 51.4756 44.2593 51.3843 44.351C51.2929 44.4427 51.169 44.4942 51.0398 44.4942V44.4882ZM50.5765 47.8937V44.9677H51.471V47.8937H50.5765Z" fill="white"/>
<path d="M54.3391 47.8936V46.2196C54.3391 45.8716 54.1568 45.5966 53.8555 45.5966C53.4982 45.5966 53.2147 45.8357 53.2147 46.3906V47.8924H52.3321V44.9736H53.0194C53.0587 45.1052 53.0849 45.2427 53.117 45.3742H53.1432C53.268 45.2193 53.4268 45.0955 53.6072 45.0125C53.7876 44.9295 53.9847 44.8896 54.183 44.8959C54.8691 44.8959 55.2216 45.3359 55.2216 46.0306V47.8876L54.3391 47.8936Z" fill="white"/>
<path d="M58.8473 46.4036V46.6009H56.776C56.8272 47.1199 57.206 47.2897 57.6514 47.2897C58.0286 47.2878 58.396 47.1687 58.7032 46.9489V47.6508C58.3598 47.8632 57.963 47.9724 57.5597 47.9652C56.4425 47.9652 55.8994 47.2777 55.8994 46.4168C55.8994 45.5559 56.4949 44.8755 57.4025 44.8755C58.3101 44.8755 58.8473 45.4722 58.8473 46.4036ZM56.801 46.0449H58.0362C57.9647 45.7173 57.7622 45.5068 57.4406 45.5068C57.2877 45.5083 57.1401 45.5634 57.0233 45.6625C56.9066 45.7616 56.8279 45.8986 56.801 46.0497V46.0449Z" fill="white"/>
<path d="M59.3713 46.9622C59.6633 47.1762 60.0108 47.3008 60.3718 47.3209C60.6589 47.3209 60.803 47.242 60.803 47.0818C60.803 46.6549 59.444 46.6226 59.444 45.7438C59.444 45.2117 59.8942 44.884 60.5422 44.884C60.872 44.8913 61.1975 44.9602 61.5022 45.0873V45.7964C61.2467 45.6522 60.9612 45.5703 60.6684 45.5572C60.4302 45.5572 60.3028 45.6361 60.3028 45.7737C60.3028 46.1085 61.6487 46.1216 61.6487 47.0734C61.6487 47.5457 61.2771 47.9654 60.4659 47.9654C60.0854 47.9702 59.7091 47.8845 59.3678 47.7155L59.3713 46.9622Z" fill="white"/>
<path d="M62.1573 46.9622C62.4492 47.1764 62.7967 47.301 63.1578 47.3209C63.4448 47.3209 63.5889 47.242 63.5889 47.0818C63.5889 46.6549 62.2287 46.6226 62.2287 45.7438C62.2287 45.2117 62.6802 44.884 63.3269 44.884C63.6571 44.8913 63.9831 44.9602 64.2881 45.0873V45.7964C64.0327 45.6522 63.7471 45.5703 63.4544 45.5572C63.2161 45.5572 63.0887 45.6361 63.0887 45.7737C63.0887 46.1085 64.4346 46.1216 64.4346 47.0734C64.4346 47.5457 64.0618 47.9654 63.2519 47.9654C62.8713 47.9703 62.495 47.8847 62.1537 47.7155L62.1573 46.9622Z" fill="white"/>
<path d="M70.1029 48.3074C69.7512 48.1142 69.4129 47.8973 69.0905 47.6581C68.724 47.9192 68.2845 48.0569 67.8351 48.0515C66.9263 48.0515 66.3975 47.6055 66.3975 46.8558C66.4102 46.5826 66.4982 46.3183 66.6517 46.0924C66.8053 45.8665 67.0183 45.6879 67.267 45.5764C67.1509 45.3299 67.0865 45.0621 67.0776 44.7896C67.0776 44.0147 67.5933 43.5161 68.4628 43.5161C68.8212 43.5108 69.1756 43.5928 69.4955 43.7553C69.4824 43.9717 69.4633 44.1953 69.4431 44.4177C69.1663 44.2848 68.8667 44.2069 68.5605 44.1881C68.1365 44.1881 67.9197 44.4273 67.9197 44.8051C67.9197 45.3563 68.3782 46.0522 69.1108 46.7183C69.3935 46.3173 69.5958 45.8648 69.7063 45.3862C69.9088 45.5058 70.0982 45.6361 70.3018 45.7665C70.1711 46.2691 69.945 46.7417 69.636 47.1583C69.972 47.4197 70.3308 47.6502 70.708 47.847L70.1029 48.3074ZM68.5414 47.2181C68.1899 46.9122 67.88 46.5612 67.6195 46.1742C67.5059 46.2297 67.4088 46.3141 67.3378 46.419C67.2667 46.5239 67.2243 46.6456 67.2146 46.7721C67.2146 47.1786 67.5219 47.4142 67.9399 47.4142C68.1561 47.4146 68.3668 47.346 68.5414 47.2181Z" fill="white"/>
<path d="M42.0079 53.6523L40.8049 52.337C40.8024 52.3398 40.7992 52.3419 40.7957 52.3432C40.7921 52.3444 40.7883 52.3448 40.7846 52.3442V54.4534H39.8508V50.0508H39.9973C40.6894 50.871 41.3897 51.6578 42.0817 52.4721L44.1602 50.0508H44.2971V54.4534H43.3562V52.3406C43.3502 52.3334 43.3371 52.3334 43.33 52.3334L42.1544 53.6487L42.0079 53.6523Z" fill="white"/>
<path d="M47.0759 54.1113C46.8603 54.3683 46.4947 54.525 46.0504 54.525C45.3762 54.525 45.0892 54.1184 45.0892 53.688C45.0892 53.1367 45.4942 52.6644 46.4482 52.6644H47.0175V52.6118C47.0175 52.2639 46.8151 52.0809 46.3505 52.0809C46.0352 52.095 45.7271 52.18 45.4489 52.3296V51.6672C45.8035 51.5212 46.1828 51.4453 46.5661 51.4436C47.5333 51.4436 47.893 51.9494 47.893 52.7039V54.4532H47.1605L47.0961 54.1113H47.0759ZM46.397 53.9223C46.481 53.9252 46.5646 53.9104 46.6426 53.8788C46.7205 53.8472 46.791 53.7995 46.8494 53.7389C46.9079 53.6783 46.9531 53.6061 46.982 53.5269C47.011 53.4476 47.0231 53.3632 47.0175 53.279V53.1666H46.5602C46.1612 53.1666 45.9396 53.2862 45.9396 53.56C45.9396 53.7968 46.135 53.9271 46.397 53.9271V53.9223Z" fill="white"/>
<path d="M49.5259 51.9985C49.6034 51.8337 49.7265 51.6948 49.8804 51.5983C50.0344 51.5019 50.2128 51.4519 50.3942 51.4544C50.5237 51.4541 50.6523 51.4764 50.7742 51.5202V52.3273C50.6339 52.2658 50.483 52.2324 50.3299 52.2293C49.9118 52.2293 49.6153 52.57 49.6153 53.1607V54.4533H48.7327V51.5357H49.3866L49.4974 52.0009L49.5259 51.9985Z" fill="white"/>
<path d="M53.0456 52.924L54.3391 54.4534H53.3374L52.1809 53.0293V54.4534H51.2721V49.79H52.1809V52.8511C52.5537 52.4123 52.9253 51.9794 53.2921 51.5358H54.2593C53.8495 51.9926 53.4565 52.4577 53.0456 52.924Z" fill="white"/>
<path d="M57.4835 52.9634V53.1607H55.4122C55.4634 53.6785 55.8434 53.8495 56.2877 53.8495C56.6649 53.8476 57.0322 53.7286 57.3394 53.5087V54.2106C56.996 54.4231 56.5992 54.5322 56.1959 54.5251C55.0787 54.5251 54.5356 53.8363 54.5356 52.9766C54.5356 52.1169 55.1311 51.4353 56.0399 51.4353C56.9487 51.4353 57.4835 52.032 57.4835 52.9634ZM55.4384 52.6047H56.6724C56.5997 52.2771 56.3972 52.0666 56.0709 52.0666C55.9188 52.0697 55.7725 52.1257 55.6571 52.2252C55.5417 52.3247 55.4644 52.4614 55.4384 52.6119V52.6047Z" fill="white"/>
<path d="M59.2272 50.5792V51.5358H60.0074V52.1923H59.2308V53.3533C59.2308 53.6547 59.3285 53.8053 59.6096 53.8053C59.7856 53.7959 59.9564 53.742 60.1062 53.6487V54.3243C59.8743 54.4601 59.6101 54.5304 59.3416 54.5275C58.6269 54.5275 58.3542 54.1341 58.3542 53.504V52.1887H57.8992V51.6961L58.4483 51.5191L59.0831 50.5745L59.2272 50.5792Z" fill="white"/>
<path d="M61.1985 51.0479C61.1336 51.0498 61.069 51.0382 61.0087 51.0141C60.9484 50.99 60.8937 50.9537 60.8478 50.9076C60.802 50.8615 60.766 50.8064 60.7421 50.7459C60.7183 50.6853 60.707 50.6204 60.7089 50.5553C60.7114 50.4263 60.764 50.3033 60.8554 50.2127C60.9468 50.122 61.0699 50.0707 61.1985 50.0698C61.3277 50.0698 61.4516 50.1213 61.5429 50.2131C61.6343 50.3048 61.6856 50.4292 61.6856 50.5589C61.6856 50.6886 61.6343 50.813 61.5429 50.9047C61.4516 50.9964 61.3277 51.0479 61.1985 51.0479ZM60.7339 54.4534V51.5274H61.6296V54.4534H60.7339Z" fill="white"/>
<path d="M64.4929 54.4532V52.7792C64.4929 52.4313 64.3107 52.1551 64.0094 52.1551C63.652 52.1551 63.3686 52.3942 63.3686 52.949V54.4532H62.486V51.5357H63.1732C63.2125 51.6672 63.2376 51.8047 63.2709 51.9362H63.2971C63.4215 51.7812 63.5801 51.6573 63.7603 51.5743C63.9406 51.4913 64.1375 51.4515 64.3357 51.458C65.0218 51.458 65.3755 51.898 65.3755 52.5939V54.4532H64.4929Z" fill="white"/>
<path d="M66.4916 54.3028L66.3141 54.2693C66.0664 54.2239 65.9568 54.0732 65.9568 53.9225V53.8831L66.4987 53.3378C66.3978 53.241 66.3188 53.1235 66.267 52.9933C66.2152 52.8631 66.1919 52.7233 66.1986 52.5833C66.1986 51.9209 66.7536 51.4414 67.479 51.4414C67.6653 51.4472 67.85 51.4782 68.0281 51.5335H69.0679V51.94C68.9106 51.9592 68.7606 51.9867 68.6093 52.0118C68.7323 52.1822 68.8008 52.3861 68.8058 52.5965C68.8058 53.1609 68.3425 53.6523 67.5576 53.6523C67.354 53.6524 67.152 53.6147 66.9621 53.5411L66.812 53.791L68.2258 53.9476C68.788 54.0134 69.0357 54.2502 69.0357 54.7285C69.0357 55.1422 68.6105 55.9302 67.3956 55.9302C66.376 55.9302 66.0425 55.4519 66.0425 55.0764C66.0474 54.9201 66.091 54.7675 66.1694 54.6325C66.2478 54.4974 66.3585 54.3841 66.4916 54.3028ZM68.1507 54.7093C68.1507 54.5515 68.0078 54.4857 67.8244 54.4702L66.9811 54.3781C66.8666 54.4938 66.7991 54.6481 66.7917 54.811C66.7917 55.0501 66.9811 55.2641 67.3992 55.2641C67.9161 55.2606 68.1507 54.9521 68.1507 54.7093ZM68.04 52.5439C68.0422 52.4737 68.0303 52.4038 68.005 52.3384C67.9797 52.2729 67.9415 52.2133 67.8927 52.1631C67.8438 52.1128 67.7854 52.073 67.7209 52.046C67.6563 52.0189 67.587 52.0053 67.5171 52.0058C67.4475 52.0054 67.3786 52.0192 67.3145 52.0464C67.2504 52.0735 67.1925 52.1135 67.1443 52.1638C67.0961 52.2141 67.0585 52.2738 67.034 52.3391C67.0094 52.4044 66.9983 52.4741 67.0014 52.5439C67.0014 52.8655 67.1836 53.0951 67.5171 53.0951C67.5885 53.097 67.6595 53.0838 67.7256 53.0564C67.7916 53.029 67.8512 52.988 67.9005 52.9361C67.9497 52.8841 67.9876 52.8224 68.0117 52.7548C68.0357 52.6873 68.0453 52.6154 68.04 52.5439Z" fill="white"/>
<path d="M70.8616 53.2924C71.2627 53.5766 71.7372 53.7382 72.2278 53.7575C72.6399 53.7575 72.9794 53.62 72.9794 53.2792C72.9794 52.4518 70.9212 52.5247 70.9212 51.2321C70.9212 50.5027 71.5286 50.0364 72.391 50.0364C72.8353 50.035 73.2747 50.1291 73.6797 50.3126V51.1496C73.3386 50.938 72.9489 50.8182 72.5482 50.8017C72.2016 50.8017 71.8943 50.9212 71.8943 51.2285C71.8943 51.8384 73.9537 51.8061 73.9537 53.2613C73.9537 53.9572 73.4308 54.5347 72.3517 54.5347C71.9014 54.5347 71.3059 54.4486 70.8616 54.1868V53.2924Z" fill="white"/>
<path d="M76.9051 51.5727V52.2902C76.7149 52.1859 76.5013 52.132 76.2846 52.1335C76.1705 52.1271 76.0563 52.145 75.9495 52.1859C75.8427 52.2269 75.7457 52.29 75.6649 52.3711C75.584 52.4523 75.5212 52.5496 75.4804 52.6568C75.4396 52.764 75.4218 52.8787 75.4282 52.9933C75.4282 53.511 75.7546 53.8303 76.262 53.8303C76.5235 53.8261 76.7798 53.7562 77.0076 53.627V54.3289C76.7077 54.4622 76.3827 54.5291 76.0547 54.525C75.0745 54.525 74.5385 53.8757 74.5385 53.0232C74.5385 52.0845 75.2055 51.4412 76.1393 51.4412C76.4003 51.4394 76.6596 51.484 76.9051 51.5727Z" fill="white"/>
<path d="M79.6839 54.4534V52.7794C79.6839 52.4314 79.5207 52.1624 79.1944 52.1624C78.8478 52.1624 78.5595 52.4015 78.5595 52.9563V54.4534H77.671V49.79H78.5274V51.8838C78.5274 51.8838 78.5405 51.8897 78.5464 51.8897C78.6582 51.7491 78.8021 51.6376 78.9659 51.5646C79.1296 51.4915 79.3085 51.4591 79.4874 51.47C80.1806 51.47 80.5665 51.8897 80.5665 52.5988V54.4534H79.6839Z" fill="white"/>
<path d="M84.503 52.9839C84.503 53.8699 83.8491 54.5192 82.882 54.5192C81.8624 54.5192 81.2478 53.8628 81.2478 52.9839C81.2478 52.105 81.9148 51.4414 82.882 51.4414C83.8753 51.4414 84.503 52.111 84.503 52.9839ZM82.1304 52.9707C82.1304 53.4622 82.4043 53.8077 82.8879 53.8077C83.3715 53.8077 83.6526 53.4407 83.6526 52.9707C83.6526 52.5176 83.3596 52.1505 82.8879 52.1505C82.4162 52.1505 82.1304 52.5247 82.1304 52.9707Z" fill="white"/>
<path d="M88.2894 52.9839C88.2894 53.8699 87.6355 54.5192 86.6684 54.5192C85.6488 54.5192 85.0342 53.8628 85.0342 52.9839C85.0342 52.105 85.7012 51.4414 86.6684 51.4414C87.6617 51.4414 88.2894 52.111 88.2894 52.9839ZM85.9168 52.9707C85.9168 53.4622 86.1907 53.8077 86.6743 53.8077C87.1579 53.8077 87.4402 53.4407 87.4402 52.9707C87.4402 52.5176 87.146 52.1505 86.6743 52.1505C86.2027 52.1505 85.9168 52.5247 85.9168 52.9707Z" fill="white"/>
<path d="M88.9874 54.4534V49.79H89.8759V54.4534H88.9874Z" fill="white"/>
</svg>
