<?xml version="1.0" encoding="UTF-8"?><svg id="Capa_2" xmlns="http://www.w3.org/2000/svg" viewBox="0 0 122.74 32.02"><g id="Capa_1-2"><path d="m0,30.73c.02-.09.07-.18.06-.27,0-.24.1-.39.33-.43.46-.09.92-.17,1.38-.25,1.14-.22,1.85-.93,2.16-2,.2-.69.33-1.41.39-2.13.4-4.85.22-9.72.24-14.58,0-1.13-.04-2.27-.1-3.4-.07-1.17-.15-2.33-.51-3.46-.48-1.54-1.65-2.18-3.01-2.19-.23,0-.46,0-.7,0-.13,0-.19-.05-.19-.18,0-.38,0-.75,0-1.13,0-.13.04-.2.18-.19.06,0,.13,0,.19,0,8.16,0,16.32,0,24.48,0q.38,0,.38.37c0,2.73,0,5.46,0,8.19,0,.31,0,.33-.32.31-.31-.02-.58.08-.85.19-.37.13-.51.07-.65-.29-.22-.57-.39-1.16-.63-1.73-.7-1.69-1.83-3.04-3.41-3.96-.56-.32-1.24-.46-1.88-.61-.93-.22-1.88-.2-2.83-.12-.87.07-1.74.03-2.61.02-.26,0-.39.07-.41.33-.04.42-.1.84-.12,1.26-.03.6-.05,1.2-.06,1.79-.04,2.82-.07,5.64-.1,8.45,0,.35,0,.35.34.35.97,0,1.95-.02,2.92.03,1.06.06,1.82-.42,2.46-1.19.58-.7.85-1.52.99-2.4.02-.13.07-.25.08-.37.01-.28.16-.34.41-.32.23.02.46.01.69,0,.17,0,.23.05.22.22-.01.25,0,.5,0,.74,0,3.03,0,6.05,0,9.08q0,.32-.31.32c-.26,0-.53-.01-.79,0-.22.02-.31-.07-.36-.28-.06-.31-.15-.62-.23-.93-.25-.97-.79-1.74-1.56-2.38-.38-.31-.83-.36-1.27-.44-1.12-.22-2.25-.2-3.39-.2-.16,0-.2.06-.2.21,0,1.31-.01,2.62.02,3.93.03,1.1.11,2.2.18,3.3.05.78.09,1.56.19,2.33.15,1.1.69,2.01,1.58,2.66.26.19.64.23.97.3.44.1.89.17,1.34.24.22.03.32.16.35.36.02.09.02.19.03.29.02.63-.04.69-.67.69-5,0-10.01,0-15.01,0-.14,0-.28-.03-.42-.05,0-.16,0-.32,0-.48Z"/><path d="m69.76,10.26c.14-.05.24-.07.33-.11.92-.4,1.86-.77,2.87-.89.51-.06,1.02-.06,1.52-.13,3.34-.47,7.35,2.39,8.47,6.12.26.88.41,1.77.47,2.67.06.94.14,1.88.09,2.82-.17,3.24-1.16,6.15-3.63,8.4-1.57,1.44-3.41,2.34-5.53,2.66-1.49.22-2.99.21-4.49.16-2.07-.07-4.09-.51-6.12-.89-.22-.04-.3-.13-.29-.36.02-.8,0-1.6,0-2.4,0-6.26,0-12.52,0-18.78,0-.88,0-1.76-.06-2.63-.05-.74-.16-1.49-.28-2.22-.08-.47-.33-.88-.65-1.24-.3-.34-.72-.43-1.13-.54-.22-.06-.43-.1-.65-.16-.2-.05-.3-.18-.31-.4-.03-.6-.04-.61.57-.73,2.21-.43,4.43-.85,6.64-1.27.63-.12,1.27-.22,1.9-.35.24-.05.28.05.29.23.02.33.05.65.05.98,0,.87.01,1.74,0,2.61-.02,2.03-.06,4.05-.09,6.08,0,.1,0,.2,0,.35Zm.09,6.57s.03,0,.05,0c0,1.68,0,3.37,0,5.05,0,1.28.03,2.55.05,3.83.02,1.24.04,2.47.06,3.71,0,.14.02.27.03.41.04.29.16.44.44.46.48.03.97.07,1.45.02.73-.08,1.38-.38,1.86-.94,1-1.15,1.71-2.47,2.18-3.93.44-1.33.54-2.71.61-4.1.07-1.43.04-2.87-.14-4.3-.21-1.63-.9-3.03-2.08-4.18-.48-.47-.97-.97-1.67-1.06-.87-.12-1.74-.19-2.61.06-.19.06-.25.13-.25.33,0,1.55,0,3.1,0,4.65Z"/><path d="m32.48,31.96c-1.36.04-2.7-.06-3.98-.55-3.04-1.16-4.99-3.32-5.94-6.41-.46-1.49-.69-3.02-.66-4.57.03-1.94.29-3.85,1.14-5.63,1.43-2.96,3.69-4.91,6.91-5.72,1.25-.31,2.52-.41,3.8-.33,1.82.12,3.59.55,5.12,1.56,2.45,1.61,3.94,3.91,4.51,6.79.25,1.27.28,2.55.23,3.84-.06,1.55-.22,3.09-.85,4.53-1.5,3.45-4.1,5.57-7.78,6.32-.81.17-1.66.16-2.5.23v-.06Zm4.57-9.8c-.02-.28-.04-.56-.05-.84-.05-1.13-.05-2.27-.16-3.39-.1-1.03-.26-2.05-.48-3.06-.3-1.35-.87-2.57-1.84-3.59-.89-.94-2.54-.99-3.46-.19-.66.57-1.04,1.32-1.33,2.13-.58,1.65-.76,3.37-.81,5.1-.03,1.03-.03,2.06,0,3.09.02.85.07,1.7.14,2.55.11,1.24.37,2.45.81,3.62.3.8.68,1.55,1.31,2.15.6.58,1.3.85,2.16.75.37-.04.61-.27.91-.41.74-.35,1.33-.87,1.64-1.66.77-2.01,1.14-4.09,1.18-6.24Z"/><path d="m98.23,19.45c-2.07,0-4.14,0-6.21,0-.34,0-.33,0-.34.33-.03,1.82.27,3.58,1.11,5.21,1.06,2.06,2.73,3.38,5.07,3.69,1.46.19,2.92.11,4.29-.53.44-.21.85-.48,1.27-.71.45-.25.6-.19.85.26.08.15.08.27-.02.42-.55.77-1.21,1.42-2.01,1.93-1.36.87-2.82,1.5-4.42,1.74-.96.14-1.94.15-2.91.1-1.02-.05-2.02-.23-2.96-.61-3.51-1.41-5.71-3.95-6.56-7.64-.32-1.38-.34-2.79-.27-4.19.12-2.2.69-4.28,1.92-6.14,1.63-2.48,3.93-3.98,6.86-4.51,1.97-.36,3.89-.17,5.76.53.85.32,1.55.89,2.2,1.51,1.56,1.49,2.52,3.31,2.81,5.45.13.98.08,1.99.12,2.98,0,.18-.11.18-.24.18-.96,0-1.92,0-2.88,0-1.14,0-2.29,0-3.43,0Zm-1.54-1.83v-.05c.36,0,.72,0,1.08,0,.19,0,.24-.06.24-.25.04-1.24-.12-2.46-.36-3.68-.16-.81-.36-1.62-.84-2.32-.62-.91-1.65-1.12-2.58-.53-.51.32-.9.77-1.18,1.3-.89,1.62-1.35,3.36-1.32,5.22,0,.24.08.31.32.31,1.55,0,3.1,0,4.65,0Z"/><path d="m106.1,27.3c0-1.01,0-2.03,0-3.04,0-.17.03-.27.22-.29.25-.03.5-.08.75-.12.16-.03.25.05.3.2.12.35.25.71.38,1.06.73,2.06,2.1,3.53,4.11,4.39.59.25,1.22.22,1.84.19.79-.04,1.53-.26,2.13-.8.68-.61,1.03-1.37,1.08-2.29.06-1.13-.45-1.94-1.34-2.56-.91-.63-1.91-1.06-2.92-1.47-.77-.32-1.56-.58-2.3-.95-1.05-.52-1.96-1.23-2.67-2.18-.82-1.1-1.13-2.35-1.09-3.71.04-1.46.49-2.78,1.42-3.91,1.2-1.47,2.76-2.41,4.61-2.82.65-.14,1.32-.21,1.99-.24,1.04-.05,2.07-.01,3.11.12,1.23.16,2.43.43,3.61.82.08.03.15.06.22.08.17.05.23.16.23.34,0,1.79,0,3.58,0,5.37,0,.17-.05.27-.22.32-.16.05-.31.12-.47.18-.26.09-.39.04-.5-.21-.12-.28-.23-.58-.32-.87-.63-2.16-2.01-3.59-4.17-4.23-1.65-.49-3.43.69-3.63,2.4-.05.42-.07.86-.02,1.28.09.62.46,1.08.95,1.47,1.24,1,2.63,1.71,4.15,2.19,1.86.58,3.34,1.7,4.46,3.3.44.63.63,1.36.71,2.11.14,1.42-.06,2.78-.73,4.06-1.1,2.1-2.81,3.4-5.13,3.91-.88.19-1.77.34-2.67.32-.93-.02-1.88.04-2.8-.06-1.11-.12-2.21-.37-3.31-.59-.47-.09-.92-.26-1.38-.39-.07-.02-.14-.04-.21-.05-.36-.05-.36-.05-.36-.42,0-.97,0-1.93,0-2.9Z"/><path d="m53.21,13.35c.07-.11.14-.22.2-.34.51-1.04,1.16-1.96,2.05-2.71.94-.8,1.97-1.43,3.23-1.56.67-.07,1.36-.2,2.01.07.37.15.7.39,1.05.61.17.11.19.26.11.45-.49,1.21-.96,2.43-1.45,3.65-.26.66-.54,1.31-.82,2.01-.24-.09-.48-.16-.69-.27-.7-.36-1.43-.62-2.22-.73-1.18-.16-2.29.03-3.29.7-.25.17-.37.37-.38.67,0,.51-.03,1.02-.04,1.53-.02,1.05-.04,2.09-.04,3.14,0,1.16.01,2.32.05,3.47.03.99.11,1.99.18,2.98.03.39.02.78.11,1.16.13.59.47,1.08,1.01,1.37.28.15.63.22.95.27.46.08.93.11,1.4.15.14.01.18.07.18.19,0,.32,0,.64-.01.96,0,.05-.1.11-.16.15-.04.02-.09,0-.14,0-4.18,0-8.36,0-12.54,0-.36,0-.36-.12-.34-.39.01-.23.05-.46.07-.69,0-.13.06-.17.19-.19.37-.06.74-.13,1.1-.22.84-.21,1.4-.9,1.47-1.77.08-.94.2-1.88.26-2.83.05-.81.07-1.63.07-2.44,0-2.04-.01-4.09-.06-6.13-.02-1.09-.03-2.19-.28-3.26-.18-.78-.58-1.37-1.39-1.57-.38-.1-.77-.15-1.15-.21-.2-.03-.28-.12-.28-.33,0-.69,0-.69.7-.84,2.41-.49,4.82-.98,7.23-1.47.43-.09.86-.16,1.29-.24.25-.04.29,0,.29.26,0,1.37,0,2.73,0,4.1,0,.09.01.18.02.27.02,0,.04,0,.06.01Z"/></g></svg>