<?xml version="1.0" encoding="UTF-8"?><svg id="Capa_2" xmlns="http://www.w3.org/2000/svg" viewBox="0 0 150.95 102.37"><defs><style>.cls-1{fill:#fff;}.cls-2{fill:#f5a611;}</style></defs><g id="Capa_2-2"><rect class="cls-2" width="28.83" height="28.83"/><polygon class="cls-1" points="23.82 11.54 4.58 11.54 10.55 15.78 8.31 23.18 23.82 11.54"/><polygon class="cls-1" points="14.2 4.39 12.37 10.09 16.3 10.09 14.2 4.39"/><polygon class="cls-1" points="15.46 19.35 20.33 23.18 18.52 17.11 15.46 19.35"/><rect class="cls-2" x="30.53" width="28.83" height="28.83"/><polygon class="cls-1" points="54.35 11.54 35.11 11.54 41.08 15.78 38.84 23.18 54.35 11.54"/><polygon class="cls-1" points="44.73 4.39 42.9 10.09 46.83 10.09 44.73 4.39"/><polygon class="cls-1" points="45.99 19.35 50.86 23.18 49.04 17.11 45.99 19.35"/><rect class="cls-2" x="61.06" width="28.83" height="28.83"/><polygon class="cls-1" points="84.87 11.54 65.64 11.54 71.61 15.78 69.37 23.18 84.87 11.54"/><polygon class="cls-1" points="75.26 4.39 73.43 10.09 77.36 10.09 75.26 4.39"/><polygon class="cls-1" points="76.52 19.35 81.39 23.18 79.57 17.11 76.52 19.35"/><rect class="cls-2" x="91.59" width="28.83" height="28.83"/><polygon class="cls-1" points="115.4 11.54 96.17 11.54 102.14 15.78 99.9 23.18 115.4 11.54"/><polygon class="cls-1" points="105.79 4.39 103.96 10.09 107.89 10.09 105.79 4.39"/><polygon class="cls-1" points="107.04 19.35 111.92 23.18 110.1 17.11 107.04 19.35"/><rect class="cls-2" x="122.12" width="28.83" height="28.83"/><polygon class="cls-1" points="145.93 11.54 126.7 11.54 132.67 15.78 130.43 23.18 145.93 11.54"/><polygon class="cls-1" points="136.32 4.39 134.48 10.09 138.42 10.09 136.32 4.39"/><polygon class="cls-1" points="137.57 19.35 142.45 23.18 140.63 17.11 137.57 19.35"/><rect class="cls-2" x="46.97" y="44.74" width="57.63" height="57.63"/><path class="cls-1" d="m76.61,79.05c1.34-1.92,2.12-4.25,2.12-6.76,0-6.54-5.3-11.85-11.85-11.85s-11.85,5.3-11.85,11.85,5.31,11.85,11.85,11.85c1.97,0,3.83-.48,5.47-1.33l11.8,5.25-12.52-10.59c-1.25,1.15-2.92,1.85-4.75,1.85-3.87,0-7.02-3.15-7.02-7.02s3.15-7.02,7.02-7.02,7.02,3.14,7.02,7.02c0,1.33-.37,2.56-1,3.61l3.71,3.15Z"/><path class="cls-1" d="m78,80.42l3.02-3.44c1.76,1.37,3.93,2.31,6.18,2.31s3.27-.82,3.27-1.9c0-1.59-1.38-1.98-3.58-2.85l-3.03-1.23c-2.58-.93-4.93-2.81-4.93-6.03,0-3.66,3.47-6.59,8.53-6.59,2.8,0,5.63,1,7.73,2.89l-2.65,3.15c-1.64-1.12-3.09-1.73-5.36-1.73-1.73,0-2.91.68-2.91,1.97s1.56,1.82,3.79,2.61l2.85,1.15c3.05,1.09,4.97,2.89,4.97,6.01,0,3.67-3.24,6.86-9,6.86-3.14,0-6.39-1.09-8.86-3.19Z"/></g></svg>