<?xml version="1.0" encoding="UTF-8"?><svg id="Capa_2" xmlns="http://www.w3.org/2000/svg" viewBox="0 0 57.63 57.63"><defs><style>.cls-1{fill:#fff;}.cls-2{fill:#f5a611;}</style></defs><g id="Capa_2-2"><rect class="cls-2" width="57.63" height="57.63"/><path class="cls-1" d="m29.64,34.31c1.34-1.92,2.12-4.25,2.12-6.76,0-6.54-5.3-11.85-11.85-11.85s-11.85,5.3-11.85,11.85,5.31,11.85,11.85,11.85c1.97,0,3.83-.48,5.47-1.33l11.8,5.25-12.52-10.59c-1.25,1.15-2.92,1.85-4.75,1.85-3.87,0-7.02-3.15-7.02-7.02s3.15-7.02,7.02-7.02,7.02,3.14,7.02,7.02c0,1.33-.37,2.56-1,3.61l3.71,3.15Z"/><path class="cls-1" d="m31.03,35.67l3.02-3.44c1.76,1.37,3.93,2.31,6.18,2.31s3.27-.82,3.27-1.9c0-1.59-1.38-1.98-3.58-2.85l-3.03-1.23c-2.58-.93-4.93-2.81-4.93-6.03,0-3.66,3.47-6.59,8.53-6.59,2.8,0,5.63,1,7.73,2.89l-2.65,3.15c-1.64-1.12-3.09-1.73-5.36-1.73-1.73,0-2.91.68-2.91,1.97s1.56,1.82,3.79,2.61l2.85,1.15c3.05,1.09,4.97,2.89,4.97,6.01,0,3.67-3.24,6.86-9,6.86-3.14,0-6.39-1.09-8.86-3.19Z"/></g></svg>