<svg width="394" height="278" viewBox="0 0 394 278" fill="none" xmlns="http://www.w3.org/2000/svg">
<rect width="392.288" height="277.363" transform="translate(0.856201 0.268677)" fill="white"/>
<path d="M171.394 47.821V50.5849V52.9169H174.209V50.5849H188.239V47.821H171.394Z" fill="#0047E9"/>
<path d="M188.239 67.8701H185.425V70.2006H171.394V70.2021V72.9645H188.239V70.2006V67.8701Z" fill="#0047E9"/>
<path d="M203.148 53.8168H199.576V66.986H203.148V53.8168Z" fill="#0047E9"/>
<path d="M191.653 57.55C191.653 56.9287 192.187 56.6184 193.232 56.6184C194.385 56.6184 195.563 56.9566 196.804 57.6625V54.6427C195.499 54.0704 194.092 53.7734 192.668 53.77C189.855 53.77 187.942 55.2097 187.942 57.4692C187.942 61.2522 193.793 61.3949 193.793 63.2287C193.793 63.9066 193.174 64.2456 191.936 64.2456C190.907 64.2456 189.473 63.8583 188.306 63.1781V66.145C189.583 66.7079 190.964 66.994 192.358 66.9845C195.649 66.9845 197.449 65.3184 197.449 63.1441C197.475 59.0742 191.625 58.9617 191.653 57.55Z" fill="#0047E9"/>
<path d="M184.656 63.1796C183.524 63.7918 182.257 64.1085 180.971 64.1006C178.665 64.1006 177.399 63.1124 177.202 61.136H186.119V60.2889C186.119 56.2507 183.757 53.7096 179.903 53.7096C177.991 53.7096 176.444 54.3588 175.235 55.6294C174.026 56.9 173.435 58.4537 173.435 60.3448C173.435 62.2933 174.053 63.9029 175.263 65.1455C176.501 66.3871 178.272 67.0082 180.579 67.0087C182.093 67.0087 183.461 66.715 184.656 66.1307V63.1796ZM180.044 56.4485C181.422 56.4485 182.295 57.211 182.632 58.7639H177.316C177.653 57.3801 178.694 56.4485 180.044 56.4485Z" fill="#0047E9"/>
<path d="M212.71 56.7815C213.838 56.7702 214.948 57.073 215.916 57.6564V54.6367C214.875 54.072 213.525 53.7896 211.809 53.7896C209.756 53.7896 208.153 54.383 206.997 55.597C205.84 56.8109 205.281 58.3638 205.281 60.2557V60.5947C205.281 62.4866 205.844 64.0395 206.997 65.2535C208.149 66.4674 209.753 67.0608 211.809 67.0608C213.525 67.0608 214.875 66.7784 215.916 66.2137V63.194C214.948 63.7774 213.838 64.0802 212.71 64.0689C210.487 64.0689 209.109 62.7138 209.109 60.483C209.109 60.4784 209.109 60.3561 209.109 60.3433C209.121 58.1268 210.496 56.7815 212.71 56.7815Z" fill="#0047E9"/>
<path d="M192.751 71.4893C192.891 71.5353 193.013 71.6253 193.098 71.746C193.183 71.8667 193.228 72.0117 193.225 72.1597C193.225 72.6036 192.878 72.9637 192.363 72.9637H191.054V70.2263H192.271C192.745 70.2263 193.067 70.4996 193.067 70.9103C193.066 71.0231 193.037 71.1338 192.983 71.2323C192.928 71.3308 192.849 71.4137 192.754 71.4734L192.751 71.4893ZM191.653 71.3066H192.111C192.251 71.3066 192.487 71.2613 192.487 71.0046C192.487 70.8181 192.359 70.6898 192.132 70.6898H191.653L191.653 71.3066ZM192.179 71.746H191.653V72.4873H192.21C192.56 72.4873 192.635 72.2676 192.635 72.1099C192.635 71.8879 192.462 71.7467 192.181 71.7467L192.179 71.746Z" fill="#0047E9"/>
<path d="M194.277 71.1171V72.1854C194.277 72.3892 194.385 72.5628 194.578 72.5628C194.804 72.5628 194.954 72.4058 194.954 72.0578V71.1209H195.511V72.9645H195.065L194.999 72.7123H194.983C194.915 72.8042 194.826 72.8779 194.723 72.927C194.62 72.9762 194.507 72.9991 194.393 72.9939C193.942 72.9939 193.716 72.7531 193.716 72.2646V71.1171H194.277Z" fill="#0047E9"/>
<path d="M195.944 72.3764C196.128 72.5115 196.347 72.5901 196.575 72.6028C196.757 72.6028 196.847 72.553 196.847 72.4519C196.847 72.1823 195.989 72.162 195.989 71.6071C195.989 71.2711 196.274 71.0643 196.682 71.0643C196.891 71.0689 197.096 71.1124 197.289 71.1926V71.6403C197.128 71.5493 196.947 71.4976 196.763 71.4893C196.612 71.4893 196.531 71.5391 196.531 71.6259C196.531 71.8373 197.382 71.8456 197.382 72.4466C197.382 72.7448 197.146 73.0098 196.634 73.0098C196.394 73.0128 196.157 72.9587 195.941 72.852L195.944 72.3764Z" fill="#0047E9"/>
<path d="M198.115 70.8144C198.074 70.8155 198.034 70.8084 197.996 70.7934C197.958 70.7785 197.924 70.756 197.895 70.7273C197.866 70.6987 197.843 70.6645 197.828 70.6268C197.813 70.5891 197.805 70.5486 197.806 70.5079C197.807 70.4263 197.84 70.3485 197.898 70.2911C197.956 70.2337 198.033 70.2012 198.115 70.2006C198.196 70.2006 198.274 70.2331 198.332 70.291C198.39 70.349 198.422 70.4275 198.422 70.5094C198.422 70.5913 198.39 70.6698 198.332 70.7277C198.274 70.7856 198.196 70.8182 198.115 70.8182V70.8144ZM197.822 72.9645V71.1171H198.387V72.9645H197.822Z" fill="#0047E9"/>
<path d="M200.198 72.9645V71.9075C200.198 71.6879 200.083 71.5142 199.892 71.5142C199.667 71.5142 199.488 71.6652 199.488 72.0155V72.9637H198.931V71.1209H199.365C199.389 71.2039 199.406 71.2907 199.426 71.3738H199.443C199.522 71.276 199.622 71.1978 199.736 71.1454C199.85 71.0931 199.974 71.0679 200.099 71.0718C200.532 71.0718 200.755 71.3496 200.755 71.7883V72.9607L200.198 72.9645Z" fill="#0047E9"/>
<path d="M203.044 72.0238V72.1484H201.736C201.769 72.476 202.008 72.5832 202.289 72.5832C202.527 72.582 202.759 72.5069 202.953 72.3681V72.8112C202.736 72.9454 202.486 73.0143 202.231 73.0098C201.526 73.0098 201.183 72.5757 201.183 72.0321C201.183 71.4885 201.559 71.059 202.132 71.059C202.705 71.059 203.044 71.4357 203.044 72.0238ZM201.752 71.7973H202.532C202.487 71.5905 202.359 71.4576 202.156 71.4576C202.059 71.4585 201.966 71.4933 201.893 71.5559C201.819 71.6185 201.769 71.7049 201.752 71.8003V71.7973Z" fill="#0047E9"/>
<path d="M203.375 72.3764C203.559 72.5115 203.779 72.5902 204.007 72.6028C204.188 72.6028 204.279 72.553 204.279 72.4519C204.279 72.1823 203.421 72.162 203.421 71.6071C203.421 71.2711 203.705 71.0643 204.114 71.0643C204.322 71.0689 204.528 71.1124 204.72 71.1926V71.6403C204.559 71.5493 204.379 71.4976 204.194 71.4893C204.043 71.4893 203.963 71.5391 203.963 71.6259C203.963 71.8373 204.813 71.8456 204.813 72.4466C204.813 72.7448 204.578 73.0098 204.066 73.0098C203.826 73.0128 203.588 72.9587 203.373 72.852L203.375 72.3764Z" fill="#0047E9"/>
<path d="M205.134 72.3764C205.318 72.5116 205.538 72.5903 205.766 72.6028C205.947 72.6028 206.038 72.553 206.038 72.4519C206.038 72.1823 205.179 72.162 205.179 71.6071C205.179 71.2711 205.464 71.0643 205.872 71.0643C206.081 71.0689 206.287 71.1124 206.479 71.1926V71.6403C206.318 71.5493 206.138 71.4976 205.953 71.4893C205.803 71.4893 205.722 71.5391 205.722 71.6259C205.722 71.8373 206.572 71.8456 206.572 72.4466C206.572 72.7448 206.336 73.0098 205.825 73.0098C205.585 73.0129 205.347 72.9588 205.132 72.852L205.134 72.3764Z" fill="#0047E9"/>
<path d="M210.151 73.2257C209.928 73.1037 209.715 72.9668 209.511 72.8157C209.28 72.9806 209.002 73.0676 208.719 73.0641C208.145 73.0641 207.811 72.7825 207.811 72.3092C207.819 72.1367 207.875 71.9699 207.972 71.8272C208.068 71.6846 208.203 71.5718 208.36 71.5014C208.287 71.3457 208.246 71.1767 208.24 71.0046C208.24 70.5154 208.566 70.2006 209.115 70.2006C209.341 70.1972 209.565 70.2491 209.767 70.3516C209.759 70.4882 209.747 70.6294 209.734 70.7698C209.559 70.686 209.37 70.6367 209.177 70.6249C208.909 70.6249 208.772 70.7759 208.772 71.0144C208.772 71.3625 209.062 71.8018 209.524 72.2224C209.703 71.9692 209.83 71.6835 209.9 71.3813C210.028 71.4568 210.148 71.5391 210.276 71.6214C210.194 71.9387 210.051 72.2371 209.856 72.5002C210.068 72.6652 210.294 72.8108 210.533 72.935L210.151 73.2257ZM209.165 72.5379C208.943 72.3448 208.747 72.1232 208.583 71.8789C208.511 71.9139 208.45 71.9672 208.405 72.0334C208.36 72.0996 208.333 72.1765 208.327 72.2563C208.327 72.513 208.521 72.6617 208.785 72.6617C208.921 72.662 209.054 72.6187 209.165 72.5379Z" fill="#0047E9"/>
<path d="M192.412 76.6003L191.653 75.7698C191.651 75.7716 191.649 75.7729 191.647 75.7737C191.645 75.7745 191.642 75.7747 191.64 75.7744V77.1061H191.05V74.3264H191.143C191.58 74.8443 192.022 75.341 192.459 75.8551L193.771 74.3264H193.858V77.1061H193.263V75.7721C193.26 75.7676 193.251 75.7676 193.247 75.7676L192.505 76.598L192.412 76.6003Z" fill="#0047E9"/>
<path d="M195.612 76.8902C195.476 77.0525 195.245 77.1514 194.964 77.1514C194.539 77.1514 194.358 76.8947 194.358 76.6229C194.358 76.2749 194.613 75.9767 195.216 75.9767H195.575V75.9435C195.575 75.7238 195.447 75.6083 195.154 75.6083C194.955 75.6172 194.76 75.6708 194.585 75.7653V75.3471C194.809 75.2549 195.048 75.2069 195.29 75.2059C195.901 75.2059 196.128 75.5252 196.128 76.0016V77.1061H195.665L195.625 76.8902H195.612ZM195.183 76.7709C195.236 76.7727 195.289 76.7633 195.338 76.7434C195.388 76.7234 195.432 76.6933 195.469 76.6551C195.506 76.6168 195.534 76.5712 195.553 76.5212C195.571 76.4712 195.579 76.4179 195.575 76.3647V76.2938H195.286C195.034 76.2938 194.894 76.3693 194.894 76.5421C194.894 76.6916 195.018 76.7739 195.183 76.7739V76.7709Z" fill="#0047E9"/>
<path d="M197.159 75.5562C197.208 75.4522 197.285 75.3644 197.383 75.3035C197.48 75.2426 197.592 75.2111 197.707 75.2127C197.789 75.2125 197.87 75.2265 197.947 75.2542V75.7638C197.858 75.7249 197.763 75.7039 197.666 75.7019C197.402 75.7019 197.215 75.917 197.215 76.29V77.1061H196.658V75.264H197.071L197.141 75.5577L197.159 75.5562Z" fill="#0047E9"/>
<path d="M199.381 76.1405L200.198 77.1061H199.565L198.835 76.2069V77.1061H198.261V74.1618H198.835V76.0945C199.071 75.8174 199.305 75.5441 199.537 75.264H200.147C199.889 75.5524 199.641 75.8461 199.381 76.1405Z" fill="#0047E9"/>
<path d="M202.183 76.1654V76.29H200.875C200.908 76.6169 201.147 76.7248 201.428 76.7248C201.666 76.7237 201.898 76.6485 202.092 76.5097V76.9528C201.875 77.087 201.625 77.1559 201.37 77.1514C200.665 77.1514 200.322 76.7165 200.322 76.1737C200.322 75.6309 200.698 75.2006 201.272 75.2006C201.845 75.2006 202.183 75.5773 202.183 76.1654ZM200.892 75.9389H201.671C201.625 75.7321 201.497 75.5992 201.291 75.5992C201.195 75.6011 201.103 75.6365 201.03 75.6994C200.957 75.7622 200.908 75.8485 200.892 75.9435V75.9389Z" fill="#0047E9"/>
<path d="M203.284 74.6601V75.264H203.776V75.6785H203.286V76.4115C203.286 76.6018 203.348 76.6969 203.525 76.6969C203.636 76.691 203.744 76.657 203.839 76.598V77.0246C203.692 77.1103 203.526 77.1547 203.356 77.1529C202.905 77.1529 202.733 76.9045 202.733 76.5067V75.6762H202.445V75.3652L202.792 75.2535L203.193 74.6571L203.284 74.6601Z" fill="#0047E9"/>
<path d="M204.528 74.956C204.487 74.9572 204.447 74.9499 204.409 74.9347C204.371 74.9194 204.336 74.8965 204.307 74.8674C204.278 74.8383 204.255 74.8035 204.24 74.7653C204.225 74.727 204.218 74.6861 204.219 74.645C204.221 74.5635 204.254 74.4859 204.312 74.4286C204.37 74.3714 204.447 74.339 204.528 74.3385C204.61 74.3385 204.688 74.371 204.746 74.4289C204.804 74.4868 204.836 74.5653 204.836 74.6472C204.836 74.7291 204.804 74.8077 204.746 74.8656C204.688 74.9235 204.61 74.956 204.528 74.956ZM204.235 77.1061V75.2587H204.801V77.1061H204.235Z" fill="#0047E9"/>
<path d="M206.609 77.1061V76.0492C206.609 75.8295 206.494 75.6551 206.303 75.6551C206.078 75.6551 205.899 75.8061 205.899 76.1564V77.1061H205.341V75.264H205.775C205.8 75.3471 205.816 75.4339 205.837 75.5169H205.854C205.932 75.4191 206.032 75.3408 206.146 75.2884C206.26 75.236 206.384 75.2109 206.509 75.215C206.942 75.215 207.166 75.4928 207.166 75.9321V77.1061H206.609Z" fill="#0047E9"/>
<path d="M207.87 77.011L207.758 76.9898C207.602 76.9611 207.533 76.866 207.533 76.7709V76.746L207.875 76.4017C207.811 76.3406 207.761 76.2664 207.729 76.1842C207.696 76.102 207.681 76.0138 207.685 75.9254C207.685 75.5071 208.036 75.2044 208.494 75.2044C208.612 75.2081 208.728 75.2276 208.841 75.2625H209.497V75.5192C209.398 75.5313 209.303 75.5486 209.208 75.5645C209.285 75.6721 209.328 75.8008 209.332 75.9337C209.332 76.29 209.039 76.6003 208.544 76.6003C208.415 76.6003 208.287 76.5765 208.168 76.5301L208.073 76.6879L208.965 76.7868C209.32 76.8283 209.477 76.9778 209.477 77.2797C209.477 77.5409 209.208 78.0385 208.441 78.0385C207.798 78.0385 207.587 77.7365 207.587 77.4994C207.59 77.4008 207.618 77.3044 207.667 77.2191C207.717 77.1338 207.786 77.0623 207.87 77.011ZM208.918 77.2677C208.918 77.168 208.828 77.1265 208.712 77.1167L208.18 77.0585C208.107 77.1316 208.065 77.229 208.06 77.3318C208.06 77.4828 208.18 77.6179 208.444 77.6179C208.77 77.6157 208.918 77.4209 208.918 77.2677ZM208.848 75.9004C208.85 75.8561 208.842 75.812 208.826 75.7707C208.81 75.7294 208.786 75.6917 208.755 75.66C208.724 75.6283 208.687 75.6031 208.647 75.5861C208.606 75.569 208.562 75.5604 208.518 75.5607C208.474 75.5605 208.431 75.5692 208.39 75.5863C208.35 75.6035 208.313 75.6287 208.283 75.6605C208.252 75.6923 208.228 75.7299 208.213 75.7712C208.197 75.8124 208.19 75.8564 208.192 75.9004C208.192 76.1035 208.307 76.2485 208.518 76.2485C208.563 76.2497 208.608 76.2413 208.65 76.224C208.691 76.2067 208.729 76.1809 208.76 76.1481C208.791 76.1153 208.815 76.0763 208.83 76.0336C208.845 75.991 208.851 75.9456 208.848 75.9004Z" fill="#0047E9"/>
<path d="M210.63 76.373C210.883 76.5525 211.182 76.6545 211.492 76.6667C211.752 76.6667 211.967 76.5799 211.967 76.3647C211.967 75.8423 210.667 75.8884 210.667 75.0723C210.667 74.6118 211.051 74.3173 211.595 74.3173C211.876 74.3164 212.153 74.3759 212.409 74.4917V75.0202C212.193 74.8866 211.947 74.8109 211.694 74.8005C211.476 74.8005 211.282 74.876 211.282 75.07C211.282 75.455 212.582 75.4346 212.582 76.3534C212.582 76.7928 212.252 77.1574 211.57 77.1574C211.286 77.1574 210.91 77.1031 210.63 76.9377V76.373Z" fill="#0047E9"/>
<path d="M214.445 75.2874V75.7404C214.325 75.6746 214.19 75.6405 214.053 75.6415C213.981 75.6374 213.909 75.6487 213.842 75.6746C213.774 75.7004 213.713 75.7403 213.662 75.7915C213.611 75.8427 213.571 75.9042 213.546 75.9719C213.52 76.0396 213.509 76.112 213.513 76.1843C213.513 76.5112 213.719 76.7128 214.039 76.7128C214.204 76.7101 214.366 76.666 214.51 76.5844V77.0276C214.321 77.1117 214.115 77.154 213.908 77.1514C213.289 77.1514 212.951 76.7414 212.951 76.2032C212.951 75.6105 213.372 75.2044 213.962 75.2044C214.127 75.2032 214.29 75.2314 214.445 75.2874Z" fill="#0047E9"/>
<path d="M216.2 77.1061V76.0492C216.2 75.8295 216.097 75.6596 215.891 75.6596C215.672 75.6596 215.49 75.8106 215.49 76.1609V77.1061H214.929V74.1618H215.47V75.4837C215.47 75.4837 215.478 75.4875 215.482 75.4875C215.552 75.3987 215.643 75.3283 215.746 75.2822C215.85 75.2361 215.963 75.2156 216.076 75.2225C216.513 75.2225 216.757 75.4875 216.757 75.9352V77.1061H216.2Z" fill="#0047E9"/>
<path d="M219.242 76.1783C219.242 76.7377 218.83 77.1476 218.219 77.1476C217.575 77.1476 217.187 76.7332 217.187 76.1783C217.187 75.6234 217.608 75.2044 218.219 75.2044C218.846 75.2044 219.242 75.6272 219.242 76.1783ZM217.744 76.17C217.744 76.4802 217.917 76.6984 218.223 76.6984C218.528 76.6984 218.705 76.4667 218.705 76.17C218.705 75.8838 218.52 75.6521 218.223 75.6521C217.925 75.6521 217.744 75.8884 217.744 76.17Z" fill="#0047E9"/>
<path d="M221.633 76.1783C221.633 76.7377 221.22 77.1476 220.61 77.1476C219.966 77.1476 219.578 76.7332 219.578 76.1783C219.578 75.6234 219.999 75.2044 220.61 75.2044C221.237 75.2044 221.633 75.6272 221.633 76.1783ZM220.135 76.17C220.135 76.4802 220.308 76.6984 220.613 76.6984C220.919 76.6984 221.097 76.4667 221.097 76.17C221.097 75.8838 220.911 75.6521 220.613 75.6521C220.315 75.6521 220.135 75.8884 220.135 76.17Z" fill="#0047E9"/>
<path d="M222.074 77.1061V74.1618H222.635V77.1061H222.074Z" fill="#0047E9"/>
<path d="M75.5018 104.472H69.8361V90.3081H75.4006V92.7565H72.3047V96.0548H74.7936V98.3413H72.3047V102.024H75.5018V104.472ZM78.7922 100.122V101.154C78.7922 101.559 78.8866 101.876 79.0755 102.105C79.2778 102.334 79.5409 102.449 79.8646 102.449C80.1749 102.449 80.4245 102.341 80.6133 102.125C80.8157 101.896 80.9168 101.599 80.9168 101.235C80.9168 100.736 80.7752 100.257 80.4919 99.7982C80.2086 99.3261 79.6623 98.6988 78.8529 97.9164C77.3016 96.446 76.5259 94.9823 76.5259 93.5254C76.5259 92.5002 76.8564 91.6773 77.5174 91.0568C78.1919 90.4227 79.0148 90.1057 79.986 90.1057C80.9438 90.1057 81.733 90.4092 82.3535 91.0163C82.9875 91.6098 83.3046 92.4058 83.3046 93.404V94.355H80.9168V93.5254C80.9168 93.1612 80.8292 92.8779 80.6538 92.6756C80.4784 92.4597 80.2491 92.3518 79.9658 92.3518C79.669 92.3518 79.433 92.453 79.2576 92.6553C79.0822 92.8442 78.9945 93.1072 78.9945 93.4445C78.9945 93.8627 79.1294 94.2876 79.3992 94.7193C79.6825 95.1375 80.2086 95.7175 80.9775 96.4595C81.8004 97.2554 82.4075 98.0243 82.7987 98.7662C83.2034 99.5082 83.4057 100.304 83.4057 101.154C83.4057 102.206 83.0617 103.056 82.3738 103.704C81.6858 104.351 80.8359 104.675 79.8242 104.675C78.8394 104.675 78.0233 104.371 77.3757 103.764C76.7282 103.144 76.4045 102.314 76.4045 101.275V100.122H78.7922ZM85.0343 104.472V90.3081H87.5637V104.472H85.0343ZM93.8841 101.255V99.1102H96.292V101.296C96.292 102.307 95.9615 103.123 95.3005 103.744C94.653 104.365 93.8503 104.675 92.8925 104.675C91.9213 104.675 91.1119 104.371 90.4644 103.764C89.8169 103.144 89.4931 102.321 89.4931 101.296V93.5659C89.4931 92.5407 89.8236 91.711 90.4846 91.077C91.1591 90.4295 91.9887 90.1057 92.9735 90.1057C93.9313 90.1057 94.7204 90.4092 95.341 91.0163C95.975 91.6098 96.292 92.4058 96.292 93.404V95.468H93.8841V93.5254C93.8841 93.1882 93.7964 92.9184 93.621 92.716C93.4591 92.5137 93.2298 92.4125 92.933 92.4125C92.6362 92.4125 92.4002 92.5137 92.2248 92.716C92.0494 92.9184 91.9617 93.1882 91.9617 93.5254V101.255C91.9617 101.606 92.0494 101.882 92.2248 102.085C92.4002 102.274 92.6362 102.368 92.933 102.368C93.2298 102.368 93.4591 102.274 93.621 102.085C93.7964 101.882 93.8841 101.606 93.8841 101.255ZM104.969 92.3923V96.2369H105.637C106.473 96.2369 106.891 95.7647 106.891 94.8204V93.8087C106.891 92.8644 106.473 92.3923 105.637 92.3923H104.969ZM102.5 104.472V90.3081H105.981C107.006 90.3081 107.829 90.6049 108.449 91.1984C109.07 91.7785 109.38 92.6081 109.38 93.6873V94.1527C109.38 95.4747 108.901 96.4325 107.943 97.026C109.036 97.5656 109.583 98.5639 109.583 100.021V101.033C109.583 102.112 109.259 102.955 108.611 103.562C107.977 104.169 107.141 104.472 106.102 104.472H102.5ZM104.969 98.139V102.409H105.839C106.675 102.409 107.094 101.936 107.094 100.992V99.5554C107.094 98.6111 106.675 98.139 105.839 98.139H104.969ZM115.505 90.3081H117.974V101.235C117.974 102.26 117.636 103.09 116.962 103.724C116.301 104.358 115.478 104.675 114.493 104.675C113.522 104.675 112.713 104.371 112.065 103.764C111.418 103.144 111.094 102.321 111.094 101.296V90.3081H113.583V101.255C113.583 101.606 113.67 101.882 113.846 102.085C114.021 102.274 114.257 102.368 114.554 102.368C114.851 102.368 115.08 102.274 115.242 102.085C115.417 101.882 115.505 101.606 115.505 101.255V90.3081ZM121.771 100.122V101.154C121.771 101.559 121.866 101.876 122.055 102.105C122.257 102.334 122.52 102.449 122.844 102.449C123.154 102.449 123.404 102.341 123.593 102.125C123.795 101.896 123.896 101.599 123.896 101.235C123.896 100.736 123.754 100.257 123.471 99.7982C123.188 99.3261 122.642 98.6988 121.832 97.9164C120.281 96.446 119.505 94.9823 119.505 93.5254C119.505 92.5002 119.836 91.6773 120.497 91.0568C121.171 90.4227 121.994 90.1057 122.965 90.1057C123.923 90.1057 124.712 90.4092 125.333 91.0163C125.967 91.6098 126.284 92.4058 126.284 93.404V94.355H123.896V93.5254C123.896 93.1612 123.808 92.8779 123.633 92.6756C123.458 92.4597 123.228 92.3518 122.945 92.3518C122.648 92.3518 122.412 92.453 122.237 92.6553C122.061 92.8442 121.974 93.1072 121.974 93.4445C121.974 93.8627 122.109 94.2876 122.379 94.7193C122.662 95.1375 123.188 95.7175 123.957 96.4595C124.78 97.2554 125.387 98.0243 125.778 98.7662C126.183 99.5082 126.385 100.304 126.385 101.154C126.385 102.206 126.041 103.056 125.353 103.704C124.665 104.351 123.815 104.675 122.803 104.675C121.819 104.675 121.003 104.371 120.355 103.764C119.708 103.144 119.384 102.314 119.384 101.275V100.122H121.771ZM128.014 104.472V90.3081H130.543V104.472H128.014ZM137.693 104.472L134.84 95.7512V104.472H132.675V90.3081H135.002L137.693 98.5234V90.3081H139.858V104.472H137.693ZM147.549 104.472H141.883V90.3081H147.448V92.7565H144.352V96.0548H146.841V98.3413H144.352V102.024H147.549V104.472ZM150.839 100.122V101.154C150.839 101.559 150.934 101.876 151.123 102.105C151.325 102.334 151.588 102.449 151.912 102.449C152.222 102.449 152.472 102.341 152.66 102.125C152.863 101.896 152.964 101.599 152.964 101.235C152.964 100.736 152.822 100.257 152.539 99.7982C152.256 99.3261 151.709 98.6988 150.9 97.9164C149.349 96.446 148.573 94.9823 148.573 93.5254C148.573 92.5002 148.903 91.6773 149.564 91.0568C150.239 90.4227 151.062 90.1057 152.033 90.1057C152.991 90.1057 153.78 90.4092 154.401 91.0163C155.035 91.6098 155.352 92.4058 155.352 93.404V94.355H152.964V93.5254C152.964 93.1612 152.876 92.8779 152.701 92.6756C152.526 92.4597 152.296 92.3518 152.013 92.3518C151.716 92.3518 151.48 92.453 151.305 92.6553C151.129 92.8442 151.042 93.1072 151.042 93.4445C151.042 93.8627 151.177 94.2876 151.446 94.7193C151.73 95.1375 152.256 95.7175 153.025 96.4595C153.848 97.2554 154.455 98.0243 154.846 98.7662C155.25 99.5082 155.453 100.304 155.453 101.154C155.453 102.206 155.109 103.056 154.421 103.704C153.733 104.351 152.883 104.675 151.871 104.675C150.887 104.675 150.07 104.371 149.423 103.764C148.775 103.144 148.452 102.314 148.452 101.275V100.122H150.839ZM158.862 100.122V101.154C158.862 101.559 158.957 101.876 159.145 102.105C159.348 102.334 159.611 102.449 159.935 102.449C160.245 102.449 160.494 102.341 160.683 102.125C160.886 101.896 160.987 101.599 160.987 101.235C160.987 100.736 160.845 100.257 160.562 99.7982C160.279 99.3261 159.732 98.6988 158.923 97.9164C157.371 96.446 156.596 94.9823 156.596 93.5254C156.596 92.5002 156.926 91.6773 157.587 91.0568C158.262 90.4227 159.085 90.1057 160.056 90.1057C161.014 90.1057 161.803 90.4092 162.423 91.0163C163.057 91.6098 163.374 92.4058 163.374 93.404V94.355H160.987V93.5254C160.987 93.1612 160.899 92.8779 160.724 92.6756C160.548 92.4597 160.319 92.3518 160.036 92.3518C159.739 92.3518 159.503 92.453 159.327 92.6553C159.152 92.8442 159.064 93.1072 159.064 93.4445C159.064 93.8627 159.199 94.2876 159.469 94.7193C159.752 95.1375 160.279 95.7175 161.047 96.4595C161.87 97.2554 162.477 98.0243 162.869 98.7662C163.273 99.5082 163.476 100.304 163.476 101.154C163.476 102.206 163.132 103.056 162.444 103.704C161.756 104.351 160.906 104.675 159.894 104.675C158.909 104.675 158.093 104.371 157.446 103.764C156.798 103.144 156.474 102.314 156.474 101.275V100.122H158.862ZM172.283 94.699L171.494 99.7375H173.093L172.283 94.699ZM173.579 90.3081L176.371 104.472H173.801L173.376 101.721H171.211L170.786 104.472H168.378L171.171 90.3081H173.579ZM182.391 104.472L179.538 95.7512V104.472H177.373V90.3081H179.7L182.391 98.5234V90.3081H184.557V104.472H182.391ZM189.05 92.6148V102.166H189.819C190.656 102.166 191.074 101.694 191.074 100.749V94.0313C191.074 93.087 190.656 92.6148 189.819 92.6148H189.05ZM186.582 104.472V90.3081H190.001C191.094 90.3081 191.957 90.6116 192.591 91.2186C193.239 91.8257 193.563 92.7025 193.563 93.8492V100.871C193.563 102.017 193.232 102.908 192.571 103.542C191.91 104.162 191.033 104.472 189.941 104.472H186.582ZM203.849 102.348L202.048 95.9334V104.472H199.762V90.3081H202.251L204.497 98.2604L206.743 90.3081H209.07V104.472H206.783V95.9334L204.962 102.348H203.849ZM213.978 94.699L213.189 99.7375H214.788L213.978 94.699ZM215.273 90.3081L218.066 104.472H215.496L215.071 101.721H212.906L212.481 104.472H210.073L212.865 90.3081H215.273ZM221.537 92.6148V96.9856H222.306C223.142 96.9856 223.56 96.5134 223.56 95.5691V94.0313C223.56 93.087 223.142 92.6148 222.306 92.6148H221.537ZM226.656 104.472H224.086L222.548 99.0495H221.537V104.472H219.068V90.3081H222.326C223.499 90.3081 224.41 90.6183 225.058 91.2389C225.719 91.8594 226.049 92.7767 226.049 93.9908V95.5287C226.049 96.8102 225.611 97.714 224.734 98.2401L226.656 104.472ZM227.763 104.472V90.3081H230.231V96.5606L232.396 90.3081H235.148L232.477 97.026L235.351 104.472H232.599L230.231 97.7747V104.472H227.763ZM242.024 104.472H236.359V90.3081H241.923V92.7565H238.827V96.0548H241.316V98.3413H238.827V102.024H242.024V104.472ZM249.463 92.7565H247.298V104.472H244.789V92.7565H242.623V90.3081H249.463V92.7565ZM250.786 104.472V90.3081H253.315V104.472H250.786ZM260.465 104.472L257.612 95.7512V104.472H255.447V90.3081H257.774L260.465 98.5234V90.3081H262.631V104.472H260.465ZM268.035 98.8067V96.8844H271.536V101.134C271.536 102.186 271.192 103.043 270.504 103.704C269.816 104.351 268.966 104.675 267.954 104.675C266.942 104.675 266.106 104.358 265.445 103.724C264.784 103.09 264.453 102.247 264.453 101.194V93.6671C264.453 92.6014 264.797 91.7447 265.485 91.0972C266.173 90.4362 267.023 90.1057 268.035 90.1057C269.047 90.1057 269.883 90.4227 270.544 91.0568C271.205 91.6908 271.536 92.5339 271.536 93.5861V95.2656H269.047V93.6266C269.047 93.2489 268.952 92.9521 268.763 92.7363C268.575 92.5204 268.318 92.4125 267.994 92.4125C267.671 92.4125 267.408 92.5204 267.205 92.7363C267.016 92.9521 266.922 93.2489 266.922 93.6266V101.194C266.922 101.586 267.023 101.896 267.226 102.125C267.428 102.341 267.691 102.449 268.015 102.449C268.352 102.449 268.622 102.341 268.824 102.125C269.026 101.896 269.128 101.586 269.128 101.194V98.8067H268.035ZM279.619 100.122V101.154C279.619 101.559 279.713 101.876 279.902 102.105C280.105 102.334 280.368 102.449 280.691 102.449C281.002 102.449 281.251 102.341 281.44 102.125C281.643 101.896 281.744 101.599 281.744 101.235C281.744 100.736 281.602 100.257 281.319 99.7982C281.035 99.3261 280.489 98.6988 279.68 97.9164C278.128 96.446 277.353 94.9823 277.353 93.5254C277.353 92.5002 277.683 91.6773 278.344 91.0568C279.019 90.4227 279.842 90.1057 280.813 90.1057C281.771 90.1057 282.56 90.4092 283.18 91.0163C283.814 91.6098 284.131 92.4058 284.131 93.404V94.355H281.744V93.5254C281.744 93.1612 281.656 92.8779 281.481 92.6756C281.305 92.4597 281.076 92.3518 280.793 92.3518C280.496 92.3518 280.26 92.453 280.084 92.6553C279.909 92.8442 279.821 93.1072 279.821 93.4445C279.821 93.8627 279.956 94.2876 280.226 94.7193C280.509 95.1375 281.035 95.7175 281.804 96.4595C282.627 97.2554 283.234 98.0243 283.626 98.7662C284.03 99.5082 284.233 100.304 284.233 101.154C284.233 102.206 283.889 103.056 283.201 103.704C282.513 104.351 281.663 104.675 280.651 104.675C279.666 104.675 278.85 104.371 278.203 103.764C277.555 103.144 277.231 102.314 277.231 101.275V100.122H279.619ZM289.949 101.255V99.1102H292.357V101.296C292.357 102.307 292.026 103.123 291.365 103.744C290.718 104.365 289.915 104.675 288.957 104.675C287.986 104.675 287.176 104.371 286.529 103.764C285.881 103.144 285.558 102.321 285.558 101.296V93.5659C285.558 92.5407 285.888 91.711 286.549 91.077C287.224 90.4295 288.053 90.1057 289.038 90.1057C289.996 90.1057 290.785 90.4092 291.406 91.0163C292.04 91.6098 292.357 92.4058 292.357 93.404V95.468H289.949V93.5254C289.949 93.1882 289.861 92.9184 289.686 92.716C289.524 92.5137 289.294 92.4125 288.998 92.4125C288.701 92.4125 288.465 92.5137 288.289 92.716C288.114 92.9184 288.026 93.1882 288.026 93.5254V101.255C288.026 101.606 288.114 101.882 288.289 102.085C288.465 102.274 288.701 102.368 288.998 102.368C289.294 102.368 289.524 102.274 289.686 102.085C289.861 101.882 289.949 101.606 289.949 101.255ZM298.67 104.472V98.3615H296.647V104.472H294.178V90.3081H296.647V95.8929H298.67V90.3081H301.159V104.472H298.67ZM305.455 93.6266V101.154C305.455 101.532 305.55 101.828 305.738 102.044C305.941 102.26 306.204 102.368 306.528 102.368C306.851 102.368 307.108 102.26 307.297 102.044C307.485 101.828 307.58 101.532 307.58 101.154V93.6266C307.58 93.2489 307.485 92.9521 307.297 92.7363C307.108 92.5204 306.851 92.4125 306.528 92.4125C306.204 92.4125 305.941 92.5204 305.738 92.7363C305.55 92.9521 305.455 93.2489 305.455 93.6266ZM302.986 101.194V93.6671C302.986 92.6014 303.33 91.7447 304.018 91.0972C304.706 90.4362 305.556 90.1057 306.568 90.1057C307.58 90.1057 308.416 90.4227 309.077 91.0568C309.738 91.6908 310.069 92.5339 310.069 93.5861V101.134C310.069 102.186 309.725 103.043 309.037 103.704C308.349 104.351 307.499 104.675 306.487 104.675C305.475 104.675 304.639 104.358 303.978 103.724C303.317 103.09 302.986 102.247 302.986 101.194ZM314.15 93.6266V101.154C314.15 101.532 314.244 101.828 314.433 102.044C314.635 102.26 314.898 102.368 315.222 102.368C315.546 102.368 315.802 102.26 315.991 102.044C316.18 101.828 316.274 101.532 316.274 101.154V93.6266C316.274 93.2489 316.18 92.9521 315.991 92.7363C315.802 92.5204 315.546 92.4125 315.222 92.4125C314.898 92.4125 314.635 92.5204 314.433 92.7363C314.244 92.9521 314.15 93.2489 314.15 93.6266ZM311.681 101.194V93.6671C311.681 92.6014 312.025 91.7447 312.713 91.0972C313.401 90.4362 314.251 90.1057 315.263 90.1057C316.274 90.1057 317.111 90.4227 317.772 91.0568C318.433 91.6908 318.763 92.5339 318.763 93.5861V101.134C318.763 102.186 318.419 103.043 317.731 103.704C317.043 104.351 316.194 104.675 315.182 104.675C314.17 104.675 313.334 104.358 312.673 103.724C312.012 103.09 311.681 102.247 311.681 101.194ZM325.839 104.472H320.578V90.3081H323.047V102.024H325.839V104.472Z" fill="black"/>
<path d="M144.418 171.756H141.599L140.759 169.815H136.035L135.176 171.756H132.413L138.257 159.21H138.668L144.418 171.756ZM138.462 164.494H138.388L136.875 167.91H139.937L138.462 164.494ZM141.841 155.962L139.041 158.352H137.435L139.918 155.14L141.841 155.962ZM148.21 158.482V171.756H145.671V158.482H148.21ZM158.833 163.448L154.352 171.906H153.904L149.423 163.448H152.149L153.064 165.278L154.128 167.556H154.203C154.215 167.518 154.502 166.89 155.062 165.67L156.07 163.448H158.833ZM165.581 171.756L165.394 170.786H165.338C164.678 171.57 163.701 171.962 162.407 171.962C161.535 171.962 160.857 171.744 160.372 171.308C159.899 170.86 159.662 170.288 159.662 169.591C159.662 168.707 159.992 168.004 160.652 167.481C161.324 166.946 162.288 166.678 163.546 166.678H165.17V166.51C165.17 165.502 164.535 164.998 163.266 164.998C162.432 164.998 161.573 165.234 160.689 165.707V163.822C161.61 163.399 162.674 163.187 163.882 163.187C166.408 163.187 167.672 164.382 167.672 166.772V171.756H165.581ZM162.089 169.217C162.089 169.541 162.208 169.796 162.444 169.983C162.693 170.157 163.01 170.244 163.396 170.244C163.944 170.244 164.373 170.076 164.684 169.74C165.008 169.392 165.17 168.95 165.17 168.415V168.097H163.863C162.681 168.097 162.089 168.471 162.089 169.217ZM171.677 163.448L171.994 164.774H172.088C172.337 164.289 172.679 163.909 173.114 163.635C173.563 163.361 174.048 163.224 174.571 163.224C174.994 163.224 175.355 163.287 175.654 163.411V165.707C175.243 165.521 174.82 165.427 174.384 165.427C173.774 165.427 173.276 165.67 172.89 166.156C172.517 166.628 172.33 167.269 172.33 168.079V171.756H169.81V163.448H171.677ZM180.758 163.187C182.164 163.187 183.285 163.604 184.118 164.438C184.965 165.259 185.388 166.305 185.388 167.574C185.388 168.844 184.959 169.889 184.1 170.711C183.241 171.532 182.127 171.943 180.758 171.943C179.327 171.943 178.188 171.539 177.341 170.73C176.507 169.908 176.09 168.856 176.09 167.574C176.09 166.317 176.526 165.272 177.397 164.438C178.269 163.604 179.389 163.187 180.758 163.187ZM180.777 165.203C180.142 165.203 179.619 165.427 179.208 165.875C178.81 166.311 178.611 166.865 178.611 167.537C178.611 168.259 178.804 168.838 179.19 169.273C179.588 169.709 180.117 169.927 180.777 169.927C181.436 169.927 181.965 169.703 182.363 169.255C182.762 168.807 182.961 168.234 182.961 167.537C182.961 166.865 182.756 166.311 182.345 165.875C181.947 165.427 181.424 165.203 180.777 165.203ZM201.717 165.726L198.356 169.479H197.945L194.51 165.726C194.498 165.739 194.479 165.745 194.454 165.745V171.756H191.784V159.229H192.195L198.151 166.118L204.088 159.229H204.48V171.756H201.791V165.745C201.779 165.732 201.754 165.726 201.717 165.726ZM212.292 171.756L212.105 170.786H212.049C211.389 171.57 210.412 171.962 209.118 171.962C208.247 171.962 207.568 171.744 207.083 171.308C206.61 170.86 206.373 170.288 206.373 169.591C206.373 168.707 206.703 168.004 207.363 167.481C208.035 166.946 209 166.678 210.257 166.678H211.881V166.51C211.881 165.502 211.246 164.998 209.977 164.998C209.143 164.998 208.284 165.234 207.4 165.707V163.822C208.321 163.399 209.385 163.187 210.593 163.187C213.119 163.187 214.383 164.382 214.383 166.772V171.756H212.292ZM208.8 169.217C208.8 169.541 208.919 169.796 209.155 169.983C209.404 170.157 209.721 170.244 210.107 170.244C210.655 170.244 211.084 170.076 211.396 169.74C211.719 169.392 211.881 168.95 211.881 168.415V168.097H210.574C209.392 168.097 208.8 168.471 208.8 169.217ZM218.388 163.448L218.705 164.774H218.799C219.048 164.289 219.39 163.909 219.826 163.635C220.274 163.361 220.759 163.224 221.282 163.224C221.705 163.224 222.066 163.287 222.365 163.411V165.707C221.954 165.521 221.531 165.427 221.095 165.427C220.485 165.427 219.987 165.67 219.602 166.156C219.228 166.628 219.041 167.269 219.041 168.079V171.756H216.521V163.448H218.388ZM224.398 163.411L226.209 160.723H226.62V163.448H228.842V165.315H226.62V168.62C226.62 169.068 226.701 169.398 226.863 169.609C227.037 169.809 227.317 169.908 227.703 169.908C228.151 169.908 228.624 169.759 229.122 169.46V171.383C228.512 171.769 227.784 171.962 226.937 171.962C225.058 171.962 224.118 170.991 224.118 169.049V165.315H222.83V163.915L224.398 163.411ZM233.138 163.43V171.756H230.581V163.43H233.138ZM234.781 159.584L232.205 162.123H230.767L232.989 158.781L234.781 159.584ZM243.643 166.473V171.756H241.123V166.996C241.123 166.473 240.992 166.05 240.731 165.726C240.482 165.39 240.152 165.222 239.741 165.222C239.194 165.222 238.752 165.421 238.416 165.819C238.08 166.205 237.912 166.759 237.912 167.481V171.756H235.391V163.448H237.352C237.402 163.585 237.458 163.803 237.52 164.102C237.582 164.388 237.619 164.55 237.632 164.587H237.706C238.441 163.691 239.43 163.243 240.675 163.243C241.633 163.243 242.368 163.529 242.878 164.102C243.388 164.662 243.643 165.452 243.643 166.473ZM249.485 163.168C250.767 163.168 251.775 163.56 252.509 164.345C253.244 165.116 253.611 166.174 253.611 167.518V168.079H247.693C247.829 169.385 248.663 170.039 250.194 170.039C251.215 170.039 252.217 169.715 253.2 169.068V171.066C252.279 171.663 251.19 171.962 249.933 171.962C248.402 171.962 247.226 171.551 246.404 170.73C245.595 169.896 245.191 168.838 245.191 167.556C245.191 166.311 245.589 165.272 246.386 164.438C247.195 163.592 248.228 163.168 249.485 163.168ZM249.578 164.979C249.13 164.979 248.744 165.122 248.421 165.409C248.097 165.683 247.879 166.05 247.767 166.51H251.296C251.072 165.49 250.499 164.979 249.578 164.979ZM255.094 163.448H262.189V163.672L258.044 169.889H262.002V171.756H254.516V171.532L258.66 165.334H255.094V163.448Z" fill="black"/>
<path d="M177.25 128.883C177.664 128.883 177.991 128.946 178.23 129.072L178.176 129.459L178.122 129.864C177.907 129.72 177.628 129.648 177.286 129.648C176.837 129.648 176.474 129.798 176.198 130.097C175.928 130.397 175.793 130.799 175.793 131.302C175.793 131.614 175.889 131.866 176.081 132.058C176.279 132.243 176.549 132.336 176.891 132.336C177.268 132.336 177.625 132.24 177.961 132.049L177.844 132.822C177.52 133.002 177.097 133.092 176.576 133.092C176.03 133.092 175.605 132.93 175.299 132.606C174.993 132.276 174.84 131.845 174.84 131.311C174.84 130.58 175.071 129.992 175.533 129.549C175.994 129.105 176.567 128.883 177.25 128.883ZM180.751 128.883C181.195 128.883 181.549 128.994 181.812 129.216C182.076 129.432 182.208 129.708 182.208 130.043C182.208 130.439 182.004 130.76 181.596 131.006C181.189 131.245 180.646 131.365 179.969 131.365C179.687 131.365 179.501 131.362 179.411 131.356C179.399 131.464 179.393 131.527 179.393 131.545C179.393 131.821 179.483 132.034 179.663 132.183C179.849 132.327 180.101 132.399 180.419 132.399C180.982 132.399 181.492 132.225 181.947 131.878C181.929 131.986 181.89 132.243 181.83 132.651C181.375 132.939 180.838 133.083 180.221 133.083C179.645 133.083 179.208 132.93 178.908 132.624C178.608 132.318 178.458 131.899 178.458 131.365C178.458 130.688 178.671 130.103 179.097 129.612C179.516 129.126 180.068 128.883 180.751 128.883ZM180.688 129.603C180.377 129.603 180.11 129.711 179.888 129.926C179.666 130.142 179.522 130.433 179.456 130.799C179.558 130.823 179.714 130.835 179.924 130.835C180.344 130.835 180.679 130.769 180.931 130.637C181.189 130.505 181.318 130.337 181.318 130.133C181.318 129.977 181.264 129.852 181.156 129.756C181.048 129.654 180.892 129.603 180.688 129.603ZM185.756 128.964L185.675 129.881C185.495 129.804 185.312 129.765 185.127 129.765C184.809 129.765 184.533 129.911 184.299 130.205C184.066 130.499 183.916 130.898 183.85 131.401L183.643 132.993H182.708L183.265 129H183.931L183.958 129.783C183.97 129.783 183.979 129.786 183.985 129.792C184.111 129.504 184.284 129.282 184.506 129.126C184.734 128.97 184.992 128.892 185.28 128.892C185.441 128.892 185.6 128.916 185.756 128.964ZM186.707 128.901L187.498 127.723H187.705L187.534 128.991H188.604L188.55 129.324L188.496 129.711H187.426L187.157 131.626C187.091 132.064 187.238 132.282 187.597 132.282C187.807 132.282 188.05 132.198 188.326 132.031L188.227 132.813C187.927 132.993 187.6 133.083 187.247 133.083C186.809 133.083 186.512 132.963 186.356 132.723C186.2 132.483 186.158 132.127 186.23 131.653L186.5 129.711H185.871C185.907 129.531 185.934 129.351 185.952 129.171L186.707 128.901ZM190.437 128.991L189.879 132.993H188.944L189.502 128.991H190.437ZM190.239 127.166C190.377 127.166 190.488 127.211 190.572 127.301C190.662 127.391 190.707 127.502 190.707 127.633C190.707 127.801 190.644 127.948 190.518 128.074C190.398 128.2 190.257 128.263 190.095 128.263C189.951 128.263 189.837 128.221 189.754 128.137C189.67 128.053 189.628 127.939 189.628 127.795C189.628 127.627 189.691 127.481 189.816 127.355C189.942 127.229 190.083 127.166 190.239 127.166ZM194.988 128.991L194.431 132.993H193.495L193.954 129.711H192.605L191.913 134.791H191.005L191.688 129.711H191.014L191.113 129.09L191.796 128.991L191.913 128.164C191.991 127.601 192.198 127.166 192.533 126.86C192.875 126.554 193.337 126.402 193.918 126.402C194.41 126.402 194.814 126.488 195.132 126.662L195.069 127.454C194.715 127.25 194.332 127.148 193.918 127.148C193.295 127.148 192.932 127.496 192.83 128.191L192.704 128.991H194.988ZM197.948 128.883C198.361 128.883 198.688 128.946 198.928 129.072L198.874 129.459L198.82 129.864C198.604 129.72 198.325 129.648 197.984 129.648C197.534 129.648 197.172 129.798 196.896 130.097C196.626 130.397 196.491 130.799 196.491 131.302C196.491 131.614 196.587 131.866 196.779 132.058C196.977 132.243 197.246 132.336 197.588 132.336C197.966 132.336 198.322 132.24 198.658 132.049L198.541 132.822C198.218 133.002 197.795 133.092 197.273 133.092C196.728 133.092 196.302 132.93 195.997 132.606C195.691 132.276 195.538 131.845 195.538 131.311C195.538 130.58 195.769 129.992 196.23 129.549C196.692 129.105 197.264 128.883 197.948 128.883ZM201.395 129.639C200.993 129.639 200.676 129.804 200.442 130.133C200.214 130.463 200.1 130.841 200.1 131.266C200.1 131.602 200.175 131.866 200.325 132.058C200.481 132.249 200.711 132.345 201.017 132.345C201.395 132.345 201.71 132.192 201.961 131.887C202.219 131.575 202.348 131.185 202.348 130.718C202.348 130.4 202.264 130.142 202.096 129.944C201.928 129.741 201.695 129.639 201.395 129.639ZM202.321 132.993L202.258 132.471H202.222C201.815 132.879 201.317 133.083 200.729 133.083C200.226 133.083 199.836 132.933 199.56 132.633C199.291 132.327 199.156 131.926 199.156 131.428C199.156 130.685 199.363 130.079 199.776 129.612C200.19 129.138 200.72 128.901 201.368 128.901C201.967 128.901 202.399 129.123 202.663 129.567H202.699L202.933 128.991H203.544L203.283 130.826L202.986 132.993H202.321ZM210.747 128.991L209.92 134.926H209.011C209.035 134.776 209.089 134.408 209.173 133.82L209.362 132.471L209.335 132.453C208.981 132.879 208.52 133.092 207.95 133.092C207.423 133.092 207.009 132.936 206.709 132.624C206.416 132.312 206.269 131.908 206.269 131.41C206.269 130.661 206.479 130.058 206.898 129.603C207.324 129.135 207.863 128.901 208.517 128.901C209.14 128.901 209.59 129.138 209.866 129.612H209.902L210.108 128.991H210.747ZM208.562 129.666C208.16 129.666 207.833 129.819 207.582 130.124C207.33 130.418 207.204 130.793 207.204 131.248C207.204 131.59 207.282 131.86 207.438 132.058C207.6 132.249 207.836 132.345 208.148 132.345C208.55 132.345 208.879 132.189 209.137 131.878C209.395 131.566 209.524 131.194 209.524 130.763C209.524 130.433 209.44 130.169 209.272 129.971C209.104 129.774 208.867 129.672 208.562 129.666ZM211.58 131.473L211.921 128.991H212.848L212.533 131.275C212.443 131.959 212.659 132.3 213.18 132.3C213.48 132.3 213.732 132.171 213.936 131.914C214.139 131.656 214.271 131.311 214.331 130.88L214.601 128.991H215.536L214.979 132.993H214.223L214.205 132.399H214.169C213.81 132.843 213.375 133.065 212.865 133.065C212.392 133.065 212.041 132.927 211.813 132.651C211.586 132.369 211.508 131.977 211.58 131.473ZM218.309 128.883C218.753 128.883 219.106 128.994 219.37 129.216C219.634 129.432 219.766 129.708 219.766 130.043C219.766 130.439 219.562 130.76 219.154 131.006C218.747 131.245 218.204 131.365 217.527 131.365C217.245 131.365 217.059 131.362 216.969 131.356C216.957 131.464 216.951 131.527 216.951 131.545C216.951 131.821 217.041 132.034 217.221 132.183C217.407 132.327 217.659 132.399 217.976 132.399C218.54 132.399 219.049 132.225 219.505 131.878C219.487 131.986 219.448 132.243 219.388 132.651C218.932 132.939 218.396 133.083 217.778 133.083C217.203 133.083 216.765 132.93 216.466 132.624C216.166 132.318 216.016 131.899 216.016 131.365C216.016 130.688 216.229 130.103 216.654 129.612C217.074 129.126 217.626 128.883 218.309 128.883ZM218.246 129.603C217.934 129.603 217.668 129.711 217.446 129.926C217.224 130.142 217.08 130.433 217.014 130.799C217.116 130.823 217.272 130.835 217.482 130.835C217.901 130.835 218.237 130.769 218.489 130.637C218.747 130.505 218.876 130.337 218.876 130.133C218.876 129.977 218.822 129.852 218.714 129.756C218.606 129.654 218.45 129.603 218.246 129.603Z" fill="black"/>
<path d="M131.059 198.306V200.106H130.552V198.346C130.552 198.075 130.49 197.866 130.365 197.72C130.245 197.573 130.072 197.5 129.845 197.5C129.565 197.5 129.339 197.593 129.166 197.78C128.997 197.966 128.912 198.233 128.912 198.58V200.106H128.399V195.367H128.892V197.566H128.912C129.179 197.242 129.519 197.08 129.932 197.08C130.288 197.08 130.563 197.189 130.759 197.406C130.959 197.62 131.059 197.92 131.059 198.306ZM134.033 200.106L133.967 199.713H133.953C133.713 200.019 133.349 200.173 132.86 200.173C132.496 200.173 132.229 200.086 132.06 199.913C131.896 199.735 131.814 199.537 131.814 199.319C131.814 198.995 131.929 198.744 132.16 198.566C132.396 198.384 132.738 198.293 133.187 198.293H133.893V198.193C133.893 197.709 133.622 197.466 133.08 197.466C132.778 197.466 132.46 197.56 132.127 197.746V197.32C132.429 197.151 132.769 197.066 133.147 197.066C133.578 197.066 133.893 197.166 134.093 197.366C134.293 197.562 134.393 197.857 134.393 198.253V200.106H134.033ZM132.314 199.266C132.314 199.431 132.378 199.559 132.507 199.653C132.64 199.746 132.809 199.793 133.014 199.793C133.285 199.793 133.498 199.704 133.653 199.526C133.813 199.348 133.893 199.128 133.893 198.866V198.66H133.187C132.605 198.66 132.314 198.862 132.314 199.266ZM138.321 197.066C138.61 197.066 138.861 197.111 139.074 197.2V197.653C138.883 197.538 138.656 197.48 138.394 197.48C138.079 197.48 137.814 197.586 137.601 197.8C137.392 198.009 137.288 198.291 137.288 198.646C137.288 198.98 137.388 199.248 137.588 199.453C137.788 199.653 138.054 199.753 138.387 199.753C138.707 199.753 138.974 199.679 139.187 199.533V199.979C138.965 200.108 138.663 200.173 138.281 200.173C137.796 200.173 137.425 200.03 137.168 199.746C136.905 199.457 136.774 199.093 136.774 198.653C136.774 198.2 136.921 197.822 137.214 197.52C137.508 197.218 137.876 197.066 138.321 197.066ZM141.238 197.066C141.691 197.066 142.064 197.215 142.357 197.513C142.651 197.811 142.797 198.18 142.797 198.62C142.797 199.06 142.649 199.428 142.351 199.726C142.058 200.024 141.686 200.173 141.238 200.173C140.758 200.173 140.376 200.026 140.091 199.733C139.807 199.444 139.665 199.073 139.665 198.62C139.665 198.189 139.816 197.822 140.118 197.52C140.42 197.218 140.793 197.066 141.238 197.066ZM140.178 198.613C140.178 198.951 140.273 199.226 140.464 199.439C140.656 199.648 140.913 199.753 141.238 199.753C141.562 199.753 141.82 199.644 142.011 199.426C142.202 199.208 142.297 198.937 142.297 198.613C142.297 198.302 142.2 198.035 142.004 197.813C141.813 197.595 141.558 197.486 141.238 197.486C140.918 197.486 140.662 197.595 140.471 197.813C140.276 198.035 140.178 198.302 140.178 198.613ZM148.093 198.3V200.106H147.593V198.313C147.593 197.766 147.362 197.493 146.9 197.493C146.66 197.493 146.465 197.586 146.314 197.773C146.163 197.955 146.087 198.224 146.087 198.58V200.106H145.58V198.32C145.58 197.769 145.361 197.493 144.921 197.493C144.672 197.493 144.467 197.589 144.307 197.78C144.147 197.971 144.067 198.237 144.067 198.58V200.106H143.567V197.146H143.921L144.001 197.573C144.005 197.578 144.014 197.58 144.027 197.58C144.276 197.242 144.614 197.073 145.041 197.073C145.498 197.073 145.809 197.269 145.974 197.66C146.089 197.469 146.236 197.322 146.414 197.22C146.596 197.118 146.783 197.066 146.974 197.066C147.72 197.066 148.093 197.478 148.093 198.3ZM149.449 198.613C149.449 198.933 149.544 199.202 149.735 199.419C149.931 199.633 150.191 199.739 150.515 199.739C150.849 199.739 151.104 199.631 151.282 199.413C151.464 199.191 151.555 198.92 151.555 198.6C151.555 198.266 151.46 197.997 151.269 197.793C151.077 197.584 150.822 197.48 150.502 197.48C150.2 197.48 149.949 197.591 149.749 197.813C149.549 198.035 149.449 198.302 149.449 198.613ZM149.469 199.759L149.442 199.766V201.539H148.962V197.133H149.315L149.402 197.566H149.429C149.544 197.402 149.702 197.275 149.902 197.186C150.106 197.098 150.324 197.053 150.555 197.053C151.004 197.053 151.364 197.193 151.635 197.473C151.911 197.749 152.048 198.117 152.048 198.58C152.048 199.037 151.908 199.415 151.628 199.713C151.348 200.015 150.989 200.166 150.549 200.166C150.086 200.166 149.727 200.03 149.469 199.759ZM153.331 195.367V200.106H152.824V195.367H153.331ZM154.503 197.513C154.783 197.215 155.134 197.066 155.556 197.066C155.978 197.066 156.314 197.211 156.562 197.5C156.811 197.789 156.936 198.151 156.936 198.586C156.936 198.657 156.933 198.702 156.929 198.72H154.609C154.618 199.048 154.725 199.306 154.929 199.493C155.134 199.679 155.385 199.773 155.683 199.773C156.1 199.773 156.473 199.648 156.802 199.399V199.846C156.505 200.064 156.129 200.173 155.676 200.173C155.183 200.173 154.794 200.03 154.509 199.746C154.229 199.462 154.089 199.084 154.089 198.613C154.089 198.182 154.227 197.815 154.503 197.513ZM155.569 197.473C155.316 197.473 155.103 197.555 154.929 197.72C154.756 197.88 154.652 198.093 154.616 198.36H156.462C156.427 198.084 156.329 197.869 156.169 197.713C156.014 197.553 155.814 197.473 155.569 197.473ZM158.259 196.227H158.392V197.14H159.225V197.54H158.392V199.193C158.392 199.375 158.423 199.511 158.486 199.599C158.552 199.688 158.663 199.733 158.819 199.733C159.006 199.733 159.188 199.673 159.365 199.553V199.973C159.183 200.102 158.97 200.166 158.726 200.166C158.357 200.166 158.121 200.053 158.019 199.826C157.93 199.626 157.886 199.339 157.886 198.966V197.54H157.399V197.233L157.912 197.113C157.939 197.042 157.997 196.898 158.086 196.68C158.175 196.458 158.232 196.307 158.259 196.227ZM161.965 200.106L161.899 199.713H161.885C161.645 200.019 161.281 200.173 160.792 200.173C160.428 200.173 160.161 200.086 159.992 199.913C159.828 199.735 159.746 199.537 159.746 199.319C159.746 198.995 159.861 198.744 160.092 198.566C160.328 198.384 160.67 198.293 161.119 198.293H161.825V198.193C161.825 197.709 161.554 197.466 161.012 197.466C160.71 197.466 160.392 197.56 160.059 197.746V197.32C160.361 197.151 160.701 197.066 161.079 197.066C161.51 197.066 161.825 197.166 162.025 197.366C162.225 197.562 162.325 197.857 162.325 198.253V200.106H161.965ZM160.246 199.266C160.246 199.431 160.31 199.559 160.439 199.653C160.572 199.746 160.741 199.793 160.945 199.793C161.217 199.793 161.43 199.704 161.585 199.526C161.745 199.348 161.825 199.128 161.825 198.866V198.66H161.119C160.537 198.66 160.246 198.862 160.246 199.266ZM165.698 198.626C165.698 198.302 165.602 198.035 165.411 197.826C165.22 197.609 164.96 197.5 164.631 197.5C164.325 197.5 164.074 197.611 163.878 197.833C163.687 198.051 163.592 198.32 163.592 198.64C163.592 198.973 163.687 199.244 163.878 199.453C164.069 199.657 164.325 199.759 164.645 199.759C164.947 199.759 165.198 199.651 165.398 199.433C165.598 199.215 165.698 198.946 165.698 198.626ZM165.671 197.493L165.705 197.48V195.373H166.198V200.106H165.831L165.751 199.686L165.718 199.673C165.602 199.837 165.442 199.964 165.238 200.053C165.038 200.142 164.822 200.186 164.591 200.186C164.147 200.186 163.787 200.048 163.512 199.773C163.236 199.497 163.098 199.128 163.098 198.666C163.098 198.213 163.238 197.835 163.518 197.533C163.798 197.226 164.158 197.073 164.598 197.073C165.047 197.073 165.405 197.213 165.671 197.493ZM168.467 197.066C168.92 197.066 169.293 197.215 169.586 197.513C169.88 197.811 170.026 198.18 170.026 198.62C170.026 199.06 169.877 199.428 169.58 199.726C169.286 200.024 168.915 200.173 168.467 200.173C167.987 200.173 167.604 200.026 167.32 199.733C167.036 199.444 166.893 199.073 166.893 198.62C166.893 198.189 167.045 197.822 167.347 197.52C167.649 197.218 168.022 197.066 168.467 197.066ZM167.407 198.613C167.407 198.951 167.502 199.226 167.693 199.439C167.884 199.648 168.142 199.753 168.467 199.753C168.791 199.753 169.049 199.644 169.24 199.426C169.431 199.208 169.526 198.937 169.526 198.613C169.526 198.302 169.429 198.035 169.233 197.813C169.042 197.595 168.786 197.486 168.467 197.486C168.147 197.486 167.891 197.595 167.7 197.813C167.504 198.035 167.407 198.302 167.407 198.613ZM172.091 199.919V199.466C172.402 199.688 172.722 199.799 173.051 199.799C173.504 199.799 173.731 199.644 173.731 199.333C173.731 199.208 173.677 199.102 173.571 199.013C173.469 198.92 173.342 198.842 173.191 198.78C173.04 198.717 172.889 198.653 172.738 198.586C172.586 198.52 172.458 198.428 172.351 198.313C172.249 198.193 172.198 198.051 172.198 197.886C172.198 197.633 172.291 197.435 172.478 197.293C172.669 197.146 172.909 197.073 173.198 197.073C173.5 197.073 173.793 197.14 174.077 197.273V197.706C173.78 197.538 173.509 197.453 173.264 197.453C172.886 197.453 172.698 197.593 172.698 197.873C172.698 198.042 172.875 198.195 173.231 198.333C173.377 198.391 173.493 198.44 173.577 198.48C173.662 198.52 173.762 198.577 173.877 198.653C173.993 198.728 174.077 198.82 174.131 198.926C174.188 199.028 174.217 199.148 174.217 199.286C174.217 199.553 174.115 199.766 173.911 199.926C173.706 200.086 173.437 200.166 173.104 200.166C172.704 200.166 172.367 200.084 172.091 199.919ZM176.943 200.106L176.877 199.713H176.863C176.623 200.019 176.259 200.173 175.77 200.173C175.406 200.173 175.139 200.086 174.97 199.913C174.806 199.735 174.724 199.537 174.724 199.319C174.724 198.995 174.839 198.744 175.07 198.566C175.306 198.384 175.648 198.293 176.097 198.293H176.803V198.193C176.803 197.709 176.532 197.466 175.99 197.466C175.688 197.466 175.37 197.56 175.037 197.746V197.32C175.339 197.151 175.679 197.066 176.057 197.066C176.488 197.066 176.803 197.166 177.003 197.366C177.203 197.562 177.303 197.857 177.303 198.253V200.106H176.943ZM175.224 199.266C175.224 199.431 175.288 199.559 175.417 199.653C175.55 199.746 175.719 199.793 175.924 199.793C176.195 199.793 176.408 199.704 176.563 199.526C176.723 199.348 176.803 199.128 176.803 198.866V198.66H176.097C175.515 198.66 175.224 198.862 175.224 199.266ZM178.79 196.227H178.923V197.14H179.756V197.54H178.923V199.193C178.923 199.375 178.954 199.511 179.016 199.599C179.083 199.688 179.194 199.733 179.35 199.733C179.536 199.733 179.718 199.673 179.896 199.553V199.973C179.714 200.102 179.501 200.166 179.256 200.166C178.887 200.166 178.652 200.053 178.55 199.826C178.461 199.626 178.416 199.339 178.416 198.966V197.54H177.93V197.233L178.443 197.113C178.47 197.042 178.527 196.898 178.616 196.68C178.705 196.458 178.763 196.307 178.79 196.227ZM181.023 197.14V200.106H180.516V197.14H181.023ZM180.783 196.547C180.69 196.547 180.612 196.518 180.55 196.46C180.492 196.398 180.463 196.322 180.463 196.233C180.463 196.149 180.494 196.076 180.556 196.013C180.623 195.947 180.698 195.913 180.783 195.913C180.872 195.913 180.945 195.944 181.003 196.007C181.065 196.069 181.096 196.144 181.096 196.233C181.096 196.322 181.065 196.398 181.003 196.46C180.945 196.518 180.872 196.547 180.783 196.547ZM181.725 199.919V199.466C182.036 199.688 182.356 199.799 182.685 199.799C183.138 199.799 183.365 199.644 183.365 199.333C183.365 199.208 183.311 199.102 183.205 199.013C183.103 198.92 182.976 198.842 182.825 198.78C182.674 198.717 182.523 198.653 182.372 198.586C182.22 198.52 182.092 198.428 181.985 198.313C181.883 198.193 181.832 198.051 181.832 197.886C181.832 197.633 181.925 197.435 182.112 197.293C182.303 197.146 182.543 197.073 182.831 197.073C183.134 197.073 183.427 197.14 183.711 197.273V197.706C183.414 197.538 183.142 197.453 182.898 197.453C182.52 197.453 182.332 197.593 182.332 197.873C182.332 198.042 182.509 198.195 182.865 198.333C183.011 198.391 183.127 198.44 183.211 198.48C183.296 198.52 183.396 198.577 183.511 198.653C183.627 198.728 183.711 198.82 183.765 198.926C183.822 199.028 183.851 199.148 183.851 199.286C183.851 199.553 183.749 199.766 183.545 199.926C183.34 200.086 183.071 200.166 182.738 200.166C182.338 200.166 182 200.084 181.725 199.919ZM186.297 195.353V195.773C186.137 195.711 185.969 195.68 185.791 195.68C185.355 195.68 185.138 195.953 185.138 196.5V197.14H186.031V197.54H185.138V200.106H184.638V197.54H184.104V197.226L184.638 197.14V196.52C184.638 196.129 184.731 195.824 184.918 195.607C185.109 195.385 185.395 195.273 185.777 195.273C185.946 195.273 186.12 195.3 186.297 195.353ZM188.361 200.106L188.294 199.713H188.281C188.041 200.019 187.677 200.173 187.188 200.173C186.823 200.173 186.557 200.086 186.388 199.913C186.223 199.735 186.141 199.537 186.141 199.319C186.141 198.995 186.257 198.744 186.488 198.566C186.723 198.384 187.066 198.293 187.514 198.293H188.221V198.193C188.221 197.709 187.95 197.466 187.408 197.466C187.106 197.466 186.788 197.56 186.455 197.746V197.32C186.757 197.151 187.097 197.066 187.474 197.066C187.905 197.066 188.221 197.166 188.421 197.366C188.621 197.562 188.721 197.857 188.721 198.253V200.106H188.361ZM186.641 199.266C186.641 199.431 186.706 199.559 186.835 199.653C186.968 199.746 187.137 199.793 187.341 199.793C187.612 199.793 187.825 199.704 187.981 199.526C188.141 199.348 188.221 199.128 188.221 198.866V198.66H187.514C186.932 198.66 186.641 198.862 186.641 199.266ZM191.047 197.066C191.336 197.066 191.587 197.111 191.8 197.2V197.653C191.609 197.538 191.383 197.48 191.12 197.48C190.805 197.48 190.54 197.586 190.327 197.8C190.118 198.009 190.014 198.291 190.014 198.646C190.014 198.98 190.114 199.248 190.314 199.453C190.514 199.653 190.78 199.753 191.114 199.753C191.434 199.753 191.7 199.679 191.914 199.533V199.979C191.691 200.108 191.389 200.173 191.007 200.173C190.523 200.173 190.152 200.03 189.894 199.746C189.632 199.457 189.501 199.093 189.501 198.653C189.501 198.2 189.647 197.822 189.941 197.52C190.234 197.218 190.603 197.066 191.047 197.066ZM193.097 196.227H193.231V197.14H194.064V197.54H193.231V199.193C193.231 199.375 193.262 199.511 193.324 199.599C193.391 199.688 193.502 199.733 193.657 199.733C193.844 199.733 194.026 199.673 194.204 199.553V199.973C194.022 200.102 193.808 200.166 193.564 200.166C193.195 200.166 192.96 200.053 192.857 199.826C192.769 199.626 192.724 199.339 192.724 198.966V197.54H192.237V197.233L192.751 197.113C192.777 197.042 192.835 196.898 192.924 196.68C193.013 196.458 193.071 196.307 193.097 196.227ZM196.177 197.066C196.63 197.066 197.004 197.215 197.297 197.513C197.59 197.811 197.737 198.18 197.737 198.62C197.737 199.06 197.588 199.428 197.29 199.726C196.997 200.024 196.626 200.173 196.177 200.173C195.697 200.173 195.315 200.026 195.031 199.733C194.746 199.444 194.604 199.073 194.604 198.62C194.604 198.189 194.755 197.822 195.057 197.52C195.359 197.218 195.733 197.066 196.177 197.066ZM195.117 198.613C195.117 198.951 195.213 199.226 195.404 199.439C195.595 199.648 195.853 199.753 196.177 199.753C196.501 199.753 196.759 199.644 196.95 199.426C197.141 199.208 197.237 198.937 197.237 198.613C197.237 198.302 197.139 198.035 196.944 197.813C196.753 197.595 196.497 197.486 196.177 197.486C195.857 197.486 195.602 197.595 195.411 197.813C195.215 198.035 195.117 198.302 195.117 198.613ZM199.86 197.533C199.607 197.533 199.4 197.642 199.24 197.86C199.085 198.073 199.007 198.349 199.007 198.686V200.106H198.507V197.146H198.86L198.947 197.666C198.951 197.671 198.958 197.673 198.967 197.673C199.167 197.273 199.489 197.073 199.933 197.073C200.031 197.073 200.113 197.084 200.18 197.106V197.58C200.087 197.549 199.98 197.533 199.86 197.533ZM201.254 197.14V200.106H200.748V197.14H201.254ZM201.014 196.547C200.921 196.547 200.843 196.518 200.781 196.46C200.723 196.398 200.694 196.322 200.694 196.233C200.694 196.149 200.725 196.076 200.788 196.013C200.854 195.947 200.93 195.913 201.014 195.913C201.103 195.913 201.176 195.944 201.234 196.007C201.296 196.069 201.327 196.144 201.327 196.233C201.327 196.322 201.296 196.398 201.234 196.46C201.176 196.518 201.103 196.547 201.014 196.547ZM204.302 200.106L204.236 199.713H204.223C203.983 200.019 203.618 200.173 203.129 200.173C202.765 200.173 202.498 200.086 202.329 199.913C202.165 199.735 202.083 199.537 202.083 199.319C202.083 198.995 202.198 198.744 202.429 198.566C202.665 198.384 203.007 198.293 203.456 198.293H204.163V198.193C204.163 197.709 203.891 197.466 203.349 197.466C203.047 197.466 202.729 197.56 202.396 197.746V197.32C202.698 197.151 203.038 197.066 203.416 197.066C203.847 197.066 204.163 197.166 204.362 197.366C204.562 197.562 204.662 197.857 204.662 198.253V200.106H204.302ZM202.583 199.266C202.583 199.431 202.647 199.559 202.776 199.653C202.909 199.746 203.078 199.793 203.283 199.793C203.554 199.793 203.767 199.704 203.923 199.526C204.083 199.348 204.163 199.128 204.163 198.866V198.66H203.456C202.874 198.66 202.583 198.862 202.583 199.266ZM210.128 198.3V200.106H209.628V198.313C209.628 197.766 209.397 197.493 208.935 197.493C208.695 197.493 208.499 197.586 208.348 197.773C208.197 197.955 208.122 198.224 208.122 198.58V200.106H207.615V198.32C207.615 197.769 207.395 197.493 206.955 197.493C206.706 197.493 206.502 197.589 206.342 197.78C206.182 197.971 206.102 198.237 206.102 198.58V200.106H205.602V197.146H205.955L206.035 197.573C206.04 197.578 206.049 197.58 206.062 197.58C206.311 197.242 206.649 197.073 207.075 197.073C207.533 197.073 207.844 197.269 208.008 197.66C208.124 197.469 208.271 197.322 208.448 197.22C208.631 197.118 208.817 197.066 209.008 197.066C209.755 197.066 210.128 197.478 210.128 198.3ZM211.317 197.513C211.597 197.215 211.948 197.066 212.37 197.066C212.792 197.066 213.128 197.211 213.377 197.5C213.625 197.789 213.75 198.151 213.75 198.586C213.75 198.657 213.748 198.702 213.743 198.72H211.423C211.432 199.048 211.539 199.306 211.743 199.493C211.948 199.679 212.199 199.773 212.497 199.773C212.914 199.773 213.288 199.648 213.616 199.399V199.846C213.319 200.064 212.943 200.173 212.49 200.173C211.997 200.173 211.608 200.03 211.323 199.746C211.044 199.462 210.904 199.084 210.904 198.613C210.904 198.182 211.041 197.815 211.317 197.513ZM212.383 197.473C212.13 197.473 211.917 197.555 211.743 197.72C211.57 197.88 211.466 198.093 211.43 198.36H213.277C213.241 198.084 213.143 197.869 212.983 197.713C212.828 197.553 212.628 197.473 212.383 197.473ZM217.166 198.306V200.106H216.666V198.36C216.666 198.089 216.604 197.877 216.48 197.726C216.355 197.571 216.184 197.493 215.966 197.493C215.686 197.493 215.46 197.589 215.286 197.78C215.113 197.966 215.026 198.233 215.026 198.58V200.106H214.527V197.14H214.866L214.96 197.58H214.986C215.258 197.242 215.602 197.073 216.02 197.073C216.393 197.073 216.677 197.18 216.873 197.393C217.068 197.602 217.166 197.906 217.166 198.306ZM218.647 196.227H218.78V197.14H219.613V197.54H218.78V199.193C218.78 199.375 218.811 199.511 218.873 199.599C218.94 199.688 219.051 199.733 219.207 199.733C219.393 199.733 219.576 199.673 219.753 199.553V199.973C219.571 200.102 219.358 200.166 219.113 200.166C218.745 200.166 218.509 200.053 218.407 199.826C218.318 199.626 218.274 199.339 218.274 198.966V197.54H217.787V197.233L218.3 197.113C218.327 197.042 218.385 196.898 218.473 196.68C218.562 196.458 218.62 196.307 218.647 196.227ZM220.567 197.513C220.847 197.215 221.198 197.066 221.62 197.066C222.042 197.066 222.378 197.211 222.626 197.5C222.875 197.789 223 198.151 223 198.586C223 198.657 222.997 198.702 222.993 198.72H220.673C220.682 199.048 220.789 199.306 220.993 199.493C221.198 199.679 221.449 199.773 221.747 199.773C222.164 199.773 222.538 199.648 222.866 199.399V199.846C222.569 200.064 222.193 200.173 221.74 200.173C221.247 200.173 220.858 200.03 220.573 199.746C220.293 199.462 220.153 199.084 220.153 198.613C220.153 198.182 220.291 197.815 220.567 197.513ZM221.633 197.473C221.38 197.473 221.167 197.555 220.993 197.72C220.82 197.88 220.716 198.093 220.68 198.36H222.526C222.491 198.084 222.393 197.869 222.233 197.713C222.078 197.553 221.878 197.473 221.633 197.473ZM225.631 197.513C225.911 197.215 226.262 197.066 226.684 197.066C227.106 197.066 227.442 197.211 227.691 197.5C227.94 197.789 228.064 198.151 228.064 198.586C228.064 198.657 228.062 198.702 228.057 198.72H225.738C225.747 199.048 225.853 199.306 226.058 199.493C226.262 199.679 226.513 199.773 226.811 199.773C227.229 199.773 227.602 199.648 227.931 199.399V199.846C227.633 200.064 227.257 200.173 226.804 200.173C226.311 200.173 225.922 200.03 225.638 199.746C225.358 199.462 225.218 199.084 225.218 198.613C225.218 198.182 225.356 197.815 225.631 197.513ZM226.698 197.473C226.444 197.473 226.231 197.555 226.058 197.72C225.884 197.88 225.78 198.093 225.744 198.36H227.591C227.555 198.084 227.457 197.869 227.297 197.713C227.142 197.553 226.942 197.473 226.698 197.473ZM229.354 195.367V200.106H228.847V195.367H229.354ZM232.294 198.613C232.294 198.933 232.39 199.202 232.581 199.419C232.776 199.633 233.036 199.739 233.361 199.739C233.694 199.739 233.949 199.631 234.127 199.413C234.309 199.191 234.4 198.92 234.4 198.6C234.4 198.266 234.305 197.997 234.114 197.793C233.923 197.584 233.667 197.48 233.347 197.48C233.045 197.48 232.794 197.591 232.594 197.813C232.394 198.035 232.294 198.302 232.294 198.613ZM232.314 199.759L232.287 199.766V201.539H231.807V197.133H232.161L232.247 197.566H232.274C232.39 197.402 232.547 197.275 232.747 197.186C232.952 197.098 233.169 197.053 233.401 197.053C233.849 197.053 234.209 197.193 234.48 197.473C234.756 197.749 234.894 198.117 234.894 198.58C234.894 199.037 234.754 199.415 234.474 199.713C234.194 200.015 233.834 200.166 233.394 200.166C232.932 200.166 232.572 200.03 232.314 199.759ZM237.016 197.533C236.762 197.533 236.556 197.642 236.396 197.86C236.24 198.073 236.163 198.349 236.163 198.686V200.106H235.663V197.146H236.016L236.103 197.666C236.107 197.671 236.114 197.673 236.123 197.673C236.322 197.273 236.645 197.073 237.089 197.073C237.187 197.073 237.269 197.084 237.336 197.106V197.58C237.242 197.549 237.136 197.533 237.016 197.533ZM239.126 197.066C239.579 197.066 239.953 197.215 240.246 197.513C240.539 197.811 240.686 198.18 240.686 198.62C240.686 199.06 240.537 199.428 240.239 199.726C239.946 200.024 239.575 200.173 239.126 200.173C238.646 200.173 238.264 200.026 237.98 199.733C237.695 199.444 237.553 199.073 237.553 198.62C237.553 198.189 237.704 197.822 238.006 197.52C238.309 197.218 238.682 197.066 239.126 197.066ZM238.066 198.613C238.066 198.951 238.162 199.226 238.353 199.439C238.544 199.648 238.802 199.753 239.126 199.753C239.451 199.753 239.708 199.644 239.899 199.426C240.09 199.208 240.186 198.937 240.186 198.613C240.186 198.302 240.088 198.035 239.893 197.813C239.702 197.595 239.446 197.486 239.126 197.486C238.806 197.486 238.551 197.595 238.36 197.813C238.164 198.035 238.066 198.302 238.066 198.613ZM241.229 200.706C241.229 200.382 241.385 200.11 241.696 199.893L241.503 199.873C241.285 199.855 241.176 199.735 241.176 199.513L241.729 199.006C241.512 198.815 241.403 198.546 241.403 198.2C241.403 197.88 241.516 197.613 241.743 197.4C241.974 197.182 242.263 197.073 242.609 197.073C242.747 197.073 242.907 197.1 243.089 197.153H244.089V197.426L243.529 197.5C243.725 197.686 243.822 197.922 243.822 198.206C243.822 198.513 243.709 198.773 243.482 198.986C243.26 199.199 242.976 199.306 242.629 199.306C242.376 199.306 242.167 199.257 242.003 199.159L241.723 199.513L243.209 199.679C243.756 199.742 244.029 199.99 244.029 200.426C244.029 200.697 243.893 200.955 243.622 201.199C243.351 201.448 242.976 201.572 242.496 201.572C242.087 201.572 241.774 201.49 241.556 201.326C241.338 201.161 241.229 200.955 241.229 200.706ZM242.076 198.733C242.209 198.871 242.389 198.94 242.616 198.94C242.842 198.94 243.022 198.871 243.156 198.733C243.293 198.591 243.362 198.411 243.362 198.193C243.362 197.984 243.291 197.809 243.149 197.666C243.007 197.52 242.829 197.446 242.616 197.446C242.402 197.446 242.225 197.518 242.083 197.66C241.945 197.802 241.876 197.977 241.876 198.186C241.876 198.413 241.943 198.595 242.076 198.733ZM242.489 201.159C242.831 201.159 243.087 201.077 243.256 200.913C243.433 200.753 243.522 200.579 243.522 200.393C243.522 200.197 243.38 200.084 243.096 200.053L241.989 199.926C241.803 200.117 241.709 200.333 241.709 200.573C241.709 200.75 241.771 200.893 241.896 200.999C242.025 201.106 242.223 201.159 242.489 201.159ZM246.168 197.533C245.915 197.533 245.708 197.642 245.548 197.86C245.393 198.073 245.315 198.349 245.315 198.686V200.106H244.815V197.146H245.168L245.255 197.666C245.259 197.671 245.266 197.673 245.275 197.673C245.475 197.273 245.797 197.073 246.241 197.073C246.339 197.073 246.421 197.084 246.488 197.106V197.58C246.395 197.549 246.288 197.533 246.168 197.533ZM248.768 200.106L248.702 199.713H248.688C248.448 200.019 248.084 200.173 247.595 200.173C247.231 200.173 246.964 200.086 246.795 199.913C246.631 199.735 246.549 199.537 246.549 199.319C246.549 198.995 246.664 198.744 246.895 198.566C247.131 198.384 247.473 198.293 247.922 198.293H248.628V198.193C248.628 197.709 248.357 197.466 247.815 197.466C247.513 197.466 247.195 197.56 246.862 197.746V197.32C247.164 197.151 247.504 197.066 247.882 197.066C248.313 197.066 248.628 197.166 248.828 197.366C249.028 197.562 249.128 197.857 249.128 198.253V200.106H248.768ZM247.049 199.266C247.049 199.431 247.113 199.559 247.242 199.653C247.375 199.746 247.544 199.793 247.748 199.793C248.019 199.793 248.233 199.704 248.388 199.526C248.548 199.348 248.628 199.128 248.628 198.866V198.66H247.922C247.34 198.66 247.049 198.862 247.049 199.266ZM254.594 198.3V200.106H254.094V198.313C254.094 197.766 253.863 197.493 253.401 197.493C253.161 197.493 252.965 197.586 252.814 197.773C252.663 197.955 252.588 198.224 252.588 198.58V200.106H252.081V198.32C252.081 197.769 251.861 197.493 251.421 197.493C251.172 197.493 250.968 197.589 250.808 197.78C250.648 197.971 250.568 198.237 250.568 198.58V200.106H250.068V197.146H250.421L250.501 197.573C250.506 197.578 250.515 197.58 250.528 197.58C250.777 197.242 251.114 197.073 251.541 197.073C251.999 197.073 252.31 197.269 252.474 197.66C252.59 197.469 252.736 197.322 252.914 197.22C253.096 197.118 253.283 197.066 253.474 197.066C254.221 197.066 254.594 197.478 254.594 198.3ZM257.569 200.106L257.502 199.713H257.489C257.249 200.019 256.885 200.173 256.396 200.173C256.031 200.173 255.765 200.086 255.596 199.913C255.432 199.735 255.349 199.537 255.349 199.319C255.349 198.995 255.465 198.744 255.696 198.566C255.931 198.384 256.274 198.293 256.722 198.293H257.429V198.193C257.429 197.709 257.158 197.466 256.616 197.466C256.314 197.466 255.996 197.56 255.663 197.746V197.32C255.965 197.151 256.305 197.066 256.682 197.066C257.114 197.066 257.429 197.166 257.629 197.366C257.829 197.562 257.929 197.857 257.929 198.253V200.106H257.569ZM255.849 199.266C255.849 199.431 255.914 199.559 256.043 199.653C256.176 199.746 256.345 199.793 256.549 199.793C256.82 199.793 257.034 199.704 257.189 199.526C257.349 199.348 257.429 199.128 257.429 198.866V198.66H256.722C256.14 198.66 255.849 198.862 255.849 199.266ZM260.723 197.513C261.003 197.215 261.354 197.066 261.776 197.066C262.199 197.066 262.534 197.211 262.783 197.5C263.032 197.789 263.156 198.151 263.156 198.586C263.156 198.657 263.154 198.702 263.15 198.72H260.83C260.839 199.048 260.945 199.306 261.15 199.493C261.354 199.679 261.605 199.773 261.903 199.773C262.321 199.773 262.694 199.648 263.023 199.399V199.846C262.725 200.064 262.35 200.173 261.896 200.173C261.403 200.173 261.014 200.03 260.73 199.746C260.45 199.462 260.31 199.084 260.31 198.613C260.31 198.182 260.448 197.815 260.723 197.513ZM261.79 197.473C261.536 197.473 261.323 197.555 261.15 197.72C260.977 197.88 260.872 198.093 260.837 198.36H262.683C262.647 198.084 262.55 197.869 262.39 197.713C262.234 197.553 262.034 197.473 261.79 197.473ZM266.573 198.306V200.106H266.073V198.36C266.073 198.089 266.01 197.877 265.886 197.726C265.762 197.571 265.59 197.493 265.373 197.493C265.093 197.493 264.866 197.589 264.693 197.78C264.52 197.966 264.433 198.233 264.433 198.58V200.106H263.933V197.14H264.273L264.366 197.58H264.393C264.664 197.242 265.008 197.073 265.426 197.073C265.799 197.073 266.084 197.18 266.279 197.393C266.475 197.602 266.573 197.906 266.573 198.306Z" fill="black"/>
<path d="M131.21 224.099V222.322H133.206V224.133C133.206 224.971 132.932 225.648 132.384 226.162C131.847 226.676 131.182 226.933 130.388 226.933C129.583 226.933 128.913 226.682 128.376 226.179C127.839 225.664 127.571 224.982 127.571 224.133V217.727C127.571 216.877 127.845 216.19 128.393 215.664C128.952 215.128 129.639 214.859 130.455 214.859C131.249 214.859 131.903 215.111 132.417 215.614C132.943 216.106 133.206 216.766 133.206 217.593V219.303H131.21V217.693C131.21 217.414 131.137 217.19 130.992 217.023C130.858 216.855 130.668 216.771 130.422 216.771C130.176 216.771 129.98 216.855 129.835 217.023C129.69 217.19 129.617 217.414 129.617 217.693V224.099C129.617 224.39 129.69 224.619 129.835 224.787C129.98 224.943 130.176 225.022 130.422 225.022C130.668 225.022 130.858 224.943 130.992 224.787C131.137 224.619 131.21 224.39 131.21 224.099ZM138.438 226.766V221.701H136.761V226.766H134.715V215.027H136.761V219.655H138.438V215.027H140.5V226.766H138.438ZM142.266 226.766V215.027H144.363V226.766H142.266ZM150.825 226.766H146.129V215.027H150.741V217.056H148.175V219.79H150.238V221.684H148.175V224.736H150.825V226.766ZM156.017 222.271H154.038V226.766H151.992V215.027H156.52V217.056H154.038V220.309H156.017V222.271ZM164.55 225.005L163.057 219.689V226.766H161.163V215.027H163.225L165.087 221.617L166.948 215.027H168.876V226.766H166.981V219.689L165.472 225.005H164.55ZM172.944 218.666L172.29 222.842H173.615L172.944 218.666ZM174.017 215.027L176.331 226.766H174.202L173.85 224.485H172.055L171.703 226.766H169.708L172.022 215.027H174.017ZM179.208 216.939V220.561H179.845C180.538 220.561 180.885 220.17 180.885 219.387V218.113C180.885 217.33 180.538 216.939 179.845 216.939H179.208ZM183.451 226.766H181.321L180.046 222.271H179.208V226.766H177.162V215.027H179.862C180.835 215.027 181.589 215.284 182.126 215.798C182.674 216.313 182.947 217.073 182.947 218.079V219.354C182.947 220.416 182.584 221.165 181.857 221.601L183.451 226.766ZM184.368 226.766V215.027H186.413V220.209L188.208 215.027H190.488L188.275 220.594L190.656 226.766H188.375L186.413 221.215V226.766H184.368ZM196.187 226.766H191.491V215.027H196.103V217.056H193.537V219.79H195.6V221.684H193.537V224.736H196.187V226.766ZM202.351 217.056H200.557V226.766H198.477V217.056H196.683V215.027H202.351V217.056ZM203.448 226.766V215.027H205.544V226.766H203.448ZM211.469 226.766L209.105 219.538V226.766H207.311V215.027H209.239L211.469 221.835V215.027H213.264V226.766H211.469ZM217.742 222.07V220.477H220.643V223.999C220.643 224.871 220.358 225.581 219.788 226.128C219.218 226.665 218.514 226.933 217.675 226.933C216.837 226.933 216.144 226.671 215.596 226.145C215.048 225.62 214.774 224.921 214.774 224.049V217.811C214.774 216.928 215.059 216.218 215.629 215.681C216.2 215.133 216.904 214.859 217.742 214.859C218.581 214.859 219.274 215.122 219.822 215.648C220.37 216.173 220.643 216.872 220.643 217.744V219.136H218.581V217.777C218.581 217.464 218.503 217.218 218.346 217.039C218.19 216.861 217.977 216.771 217.709 216.771C217.441 216.771 217.223 216.861 217.055 217.039C216.898 217.218 216.82 217.464 216.82 217.777V224.049C216.82 224.373 216.904 224.63 217.072 224.82C217.239 224.999 217.457 225.089 217.726 225.089C218.005 225.089 218.229 224.999 218.396 224.82C218.564 224.63 218.648 224.373 218.648 224.049V222.07H217.742ZM227.661 217.777V224.015C227.661 224.328 227.739 224.574 227.896 224.753C228.064 224.932 228.282 225.022 228.55 225.022C228.818 225.022 229.031 224.932 229.187 224.753C229.344 224.574 229.422 224.328 229.422 224.015V217.777C229.422 217.464 229.344 217.218 229.187 217.039C229.031 216.861 228.818 216.771 228.55 216.771C228.282 216.771 228.064 216.861 227.896 217.039C227.739 217.218 227.661 217.464 227.661 217.777ZM225.615 224.049V217.811C225.615 216.928 225.9 216.218 226.47 215.681C227.041 215.133 227.745 214.859 228.583 214.859C229.422 214.859 230.115 215.122 230.663 215.648C231.211 216.173 231.484 216.872 231.484 217.744V223.999C231.484 224.871 231.199 225.581 230.629 226.128C230.059 226.665 229.355 226.933 228.516 226.933C227.678 226.933 226.985 226.671 226.437 226.145C225.889 225.62 225.615 224.921 225.615 224.049ZM237.013 222.271H235.034V226.766H232.988V215.027H237.516V217.056H235.034V220.309H237.013V222.271ZM242.548 222.271H240.569V226.766H238.524V215.027H243.051V217.056H240.569V220.309H242.548V222.271ZM244.143 226.766V215.027H246.239V226.766H244.143ZM251.477 224.099V222.322H253.472V224.133C253.472 224.971 253.198 225.648 252.65 226.162C252.114 226.676 251.449 226.933 250.655 226.933C249.85 226.933 249.179 226.682 248.643 226.179C248.106 225.664 247.838 224.982 247.838 224.133V217.727C247.838 216.877 248.112 216.19 248.659 215.664C249.218 215.128 249.906 214.859 250.722 214.859C251.516 214.859 252.17 215.111 252.684 215.614C253.209 216.106 253.472 216.766 253.472 217.593V219.303H251.477V217.693C251.477 217.414 251.404 217.19 251.259 217.023C251.124 216.855 250.934 216.771 250.688 216.771C250.443 216.771 250.247 216.855 250.102 217.023C249.956 217.19 249.884 217.414 249.884 217.693V224.099C249.884 224.39 249.956 224.619 250.102 224.787C250.247 224.943 250.443 225.022 250.688 225.022C250.934 225.022 251.124 224.943 251.259 224.787C251.404 224.619 251.477 224.39 251.477 224.099ZM259.677 226.766H254.982V215.027H259.593V217.056H257.028V219.79H259.09V221.684H257.028V224.736H259.677V226.766ZM262.89 216.939V220.561H263.527C264.221 220.561 264.567 220.17 264.567 219.387V218.113C264.567 217.33 264.221 216.939 263.527 216.939H262.89ZM267.133 226.766H265.003L263.729 222.271H262.89V226.766H260.844V215.027H263.544C264.517 215.027 265.271 215.284 265.808 215.798C266.356 216.313 266.63 217.073 266.63 218.079V219.354C266.63 220.416 266.266 221.165 265.54 221.601L267.133 226.766Z" fill="black"/>
<path fill-rule="evenodd" clip-rule="evenodd" d="M88.4211 20.1571H36.8856H26.1627V30.3541V38.8594H36.8856V30.3541H88.4211V20.1571Z" fill="#0047E9"/>
<path fill-rule="evenodd" clip-rule="evenodd" d="M307.194 256.593L358.729 256.593L369.452 256.593L369.452 246.396L369.452 237.891L358.729 237.891L358.729 246.396L307.194 246.396L307.194 256.593Z" fill="#0047E9"/>
</svg>
