<svg width="39" height="39" viewBox="0 0 39 39" fill="none" xmlns="http://www.w3.org/2000/svg">
<path d="M2.48425 26.9668H35.7343V29.3418H2.48425V26.9668ZM2.48425 31.7168H35.7343V34.0918H2.48425V31.7168ZM28.6093 12.7168C28.1395 12.7168 27.6803 12.8561 27.2898 13.1171C26.8992 13.378 26.5948 13.749 26.415 14.1829C26.2353 14.6169 26.1882 15.0944 26.2799 15.5551C26.3715 16.0158 26.5977 16.439 26.9299 16.7712C27.262 17.1033 27.6852 17.3295 28.1459 17.4212C28.6066 17.5128 29.0842 17.4658 29.5181 17.286C29.9521 17.1063 30.323 16.8018 30.584 16.4113C30.845 16.0207 30.9843 15.5615 30.9843 15.0918C30.9843 14.4619 30.734 13.8578 30.2886 13.4124C29.8432 12.967 29.2391 12.7168 28.6093 12.7168ZM19.1093 19.8418C18.1698 19.8418 17.2514 19.5632 16.4703 19.0413C15.6892 18.5193 15.0803 17.7775 14.7208 16.9095C14.3613 16.0416 14.2672 15.0865 14.4505 14.1651C14.6338 13.2437 15.0862 12.3973 15.7505 11.733C16.4148 11.0687 17.2612 10.6163 18.1826 10.4331C19.104 10.2498 20.059 10.3439 20.927 10.7034C21.7949 11.0629 22.5368 11.6717 23.0587 12.4528C23.5807 13.234 23.8593 14.1523 23.8593 15.0918C23.8577 16.3511 23.3567 17.5584 22.4663 18.4488C21.5758 19.3393 20.3685 19.8402 19.1093 19.8418ZM19.1093 12.7168C18.6395 12.7168 18.1803 12.8561 17.7898 13.1171C17.3992 13.378 17.0948 13.749 16.915 14.1829C16.7353 14.6169 16.6882 15.0944 16.7799 15.5551C16.8715 16.0158 17.0977 16.439 17.4299 16.7712C17.762 17.1033 18.1852 17.3295 18.6459 17.4212C19.1066 17.5128 19.5842 17.4658 20.0181 17.286C20.4521 17.1063 20.823 16.8018 21.084 16.4113C21.345 16.0207 21.4843 15.5615 21.4843 15.0918C21.4836 14.4621 21.2332 13.8584 20.7879 13.4131C20.3427 12.9679 19.7389 12.7174 19.1093 12.7168ZM9.60925 12.7168C9.13952 12.7168 8.68034 12.8561 8.28977 13.1171C7.89921 13.378 7.5948 13.749 7.41504 14.1829C7.23528 14.6169 7.18825 15.0944 7.27989 15.5551C7.37153 16.0158 7.59772 16.439 7.92987 16.7712C8.26202 17.1033 8.68521 17.3295 9.14591 17.4212C9.60662 17.5128 10.0842 17.4658 10.5181 17.286C10.9521 17.1063 11.323 16.8018 11.584 16.4113C11.845 16.0207 11.9843 15.5615 11.9843 15.0918C11.9843 14.4619 11.734 13.8578 11.2886 13.4124C10.8432 12.967 10.2391 12.7168 9.60925 12.7168Z" fill="#F37321"/>
<path d="M33.3593 24.5918H4.85925C4.22985 24.5902 3.62667 24.3395 3.18161 23.8944C2.73655 23.4494 2.48582 22.8462 2.48425 22.2168V7.9668C2.48582 7.33739 2.73655 6.73421 3.18161 6.28915C3.62667 5.84409 4.22985 5.59336 4.85925 5.5918H33.3593C33.9887 5.59336 34.5918 5.84409 35.0369 6.28915C35.482 6.73421 35.7327 7.33739 35.7343 7.9668V22.2168C35.7333 22.8464 35.4828 23.4499 35.0376 23.8951C34.5924 24.3403 33.9889 24.5909 33.3593 24.5918ZM33.3593 7.9668H4.85925V22.2168H33.3593V7.9668Z" fill="#F37321"/>
</svg>
