<svg width="39" height="39" viewBox="0 0 39 39" fill="none" xmlns="http://www.w3.org/2000/svg">
<g clip-path="url(#clip0_804_617)">
<path d="M34.1144 7.17517H30.6839V9.28628H33.8505V32.5085H4.29498V9.28628H7.46164V7.17517H4.03109C3.78434 7.17929 3.54082 7.23199 3.31444 7.33024C3.08805 7.42849 2.88325 7.57038 2.71171 7.7478C2.54017 7.92522 2.40527 8.13469 2.3147 8.36426C2.22413 8.59382 2.17967 8.83898 2.18387 9.08573V32.7091C2.17967 32.9558 2.22413 33.201 2.3147 33.4305C2.40527 33.6601 2.54017 33.8696 2.71171 34.047C2.88325 34.2244 3.08805 34.3663 3.31444 34.4645C3.54082 34.5628 3.78434 34.6155 4.03109 34.6196H34.1144C34.3612 34.6155 34.6047 34.5628 34.8311 34.4645C35.0575 34.3663 35.2623 34.2244 35.4338 34.047C35.6053 33.8696 35.7402 33.6601 35.8308 33.4305C35.9214 33.201 35.9658 32.9558 35.9616 32.7091V9.08573C35.9658 8.83898 35.9214 8.59382 35.8308 8.36426C35.7402 8.13469 35.6053 7.92522 35.4338 7.7478C35.2623 7.57038 35.0575 7.42849 34.8311 7.33024C34.6047 7.23199 34.3612 7.17929 34.1144 7.17517Z" fill="#F37321"/>
<path d="M8.51721 15.6196H10.6283V17.7307H8.51721V15.6196Z" fill="#F37321"/>
<path d="M14.8506 15.6196H16.9617V17.7307H14.8506V15.6196Z" fill="#F37321"/>
<path d="M21.1838 15.6196H23.2949V17.7307H21.1838V15.6196Z" fill="#F37321"/>
<path d="M27.5172 15.6196H29.6283V17.7307H27.5172V15.6196Z" fill="#F37321"/>
<path d="M8.51721 20.8973H10.6283V23.0085H8.51721V20.8973Z" fill="#F37321"/>
<path d="M14.8506 20.8973H16.9617V23.0085H14.8506V20.8973Z" fill="#F37321"/>
<path d="M21.1838 20.8973H23.2949V23.0085H21.1838V20.8973Z" fill="#F37321"/>
<path d="M27.5172 20.8973H29.6283V23.0085H27.5172V20.8973Z" fill="#F37321"/>
<path d="M8.51721 26.1752H10.6283V28.2863H8.51721V26.1752Z" fill="#F37321"/>
<path d="M14.8506 26.1752H16.9617V28.2863H14.8506V26.1752Z" fill="#F37321"/>
<path d="M21.1838 26.1752H23.2949V28.2863H21.1838V26.1752Z" fill="#F37321"/>
<path d="M27.5172 26.1752H29.6283V28.2863H27.5172V26.1752Z" fill="#F37321"/>
<path d="M10.6283 11.3973C10.9083 11.3973 11.1767 11.2861 11.3747 11.0882C11.5727 10.8902 11.6839 10.6217 11.6839 10.3418V4.00844C11.6839 3.72849 11.5727 3.46 11.3747 3.26205C11.1767 3.06409 10.9083 2.95288 10.6283 2.95288C10.3484 2.95288 10.0799 3.06409 9.88192 3.26205C9.68396 3.46 9.57275 3.72849 9.57275 4.00844V10.3418C9.57275 10.6217 9.68396 10.8902 9.88192 11.0882C10.0799 11.2861 10.3484 11.3973 10.6283 11.3973Z" fill="#F37321"/>
<path d="M27.5172 11.3973C27.7972 11.3973 28.0657 11.2861 28.2636 11.0882C28.4616 10.8902 28.5728 10.6217 28.5728 10.3418V4.00844C28.5728 3.72849 28.4616 3.46 28.2636 3.26205C28.0657 3.06409 27.7972 2.95288 27.5172 2.95288C27.2373 2.95288 26.9688 3.06409 26.7708 3.26205C26.5729 3.46 26.4617 3.72849 26.4617 4.00844V10.3418C26.4617 10.6217 26.5729 10.8902 26.7708 11.0882C26.9688 11.2861 27.2373 11.3973 27.5172 11.3973Z" fill="#F37321"/>
<path d="M13.7949 7.17517H24.3505V9.28628H13.7949V7.17517Z" fill="#F37321"/>
</g>
<defs>
<clipPath id="clip0_804_617">
<rect width="38" height="38" fill="white" transform="translate(0.0727539 0.841797)"/>
</clipPath>
</defs>
</svg>
