<svg width="39" height="39" viewBox="0 0 39 39" fill="none" xmlns="http://www.w3.org/2000/svg">
<g clip-path="url(#clip0_804_640)">
<path d="M25.1271 28.2862C25.1271 28.5662 25.0158 28.8347 24.8179 29.0326C24.6199 29.2306 24.3514 29.3418 24.0715 29.3418H9.29372C9.0615 29.3418 8.83983 29.5529 8.64983 29.6901L5.0715 32.5084V15.6195C5.0715 15.3396 5.18271 15.0711 5.38066 14.8732C5.57862 14.6752 5.8471 14.564 6.12705 14.564H10.2015V12.4529H6.12705C5.2872 12.4529 4.48175 12.7865 3.88788 13.3804C3.29402 13.9742 2.96039 14.7797 2.96039 15.6195V34.6195C2.96196 34.8156 3.01809 35.0073 3.1225 35.1732C3.2269 35.3392 3.37545 35.4727 3.5515 35.559C3.7211 35.6361 3.9081 35.667 4.0935 35.6484C4.2789 35.6299 4.45608 35.5626 4.60705 35.4534L10.0432 31.4529H24.2298C24.6299 31.4647 25.0281 31.3943 25.3999 31.2459C25.7716 31.0976 26.1089 30.8745 26.3909 30.5905C26.673 30.3065 26.8937 29.9677 27.0394 29.5949C27.1851 29.2221 27.2528 28.8234 27.2382 28.4234V27.2307H25.1271V28.2862Z" fill="#F37321"/>
<path d="M33.5715 5.06396H15.6271C14.7872 5.06396 13.9817 5.39759 13.3879 5.99146C12.794 6.58533 12.4604 7.39078 12.4604 8.23063V20.8973C12.4604 21.7372 12.794 22.5426 13.3879 23.1365C13.9817 23.7303 14.7872 24.064 15.6271 24.064H29.9298L34.9754 27.9801C35.1254 28.091 35.3021 28.1601 35.4875 28.1805C35.6729 28.2009 35.8604 28.1718 36.0309 28.0962C36.2106 28.0106 36.3624 27.8761 36.4688 27.708C36.5753 27.5399 36.632 27.3451 36.6326 27.1462V8.23063C36.6331 7.40875 36.314 6.61889 35.7427 6.02797C35.1715 5.43705 34.3929 5.09136 33.5715 5.06396ZM34.6271 25.0562L30.9326 22.1745C30.7484 22.0315 30.5219 21.9536 30.2887 21.9529H15.6271C15.3471 21.9529 15.0786 21.8416 14.8807 21.6437C14.6827 21.4457 14.5715 21.1772 14.5715 20.8973V8.23063C14.5715 7.95068 14.6827 7.6822 14.8807 7.48424C15.0786 7.28629 15.3471 7.17508 15.6271 7.17508H33.5715C33.8537 7.20068 34.1167 7.32857 34.3111 7.53466C34.5056 7.74074 34.6179 8.0108 34.6271 8.29396V25.0562Z" fill="#F37321"/>
</g>
<defs>
<clipPath id="clip0_804_640">
<rect width="38" height="38" fill="white" transform="translate(0.849304 0.841797)"/>
</clipPath>
</defs>
</svg>
