<svg width="67" height="65" viewBox="0 0 67 65" fill="none" xmlns="http://www.w3.org/2000/svg">
<path d="M54.7381 38.1093C54.5653 37.8069 54.3194 37.4945 53.9771 37.1854C51.5047 34.9124 44.6657 41.3327 40.5483 42.4127" stroke="white" stroke-width="2" stroke-miterlimit="10" stroke-linejoin="round"/>
<path d="M59.6796 40.04C59.6264 39.4784 59.3639 38.8536 58.7491 38.1957C56.4628 35.7399 46.3405 42.4393 42.1501 43.2069" stroke="white" stroke-width="2" stroke-miterlimit="10" stroke-linejoin="round"/>
<path d="M64.076 42.9244C64.2655 42.1767 64.1491 41.2429 63.1954 40.2327C60.8892 37.7935 49.9262 44.8319 45.7424 45.6328" stroke="white" stroke-width="2" stroke-miterlimit="10" stroke-linejoin="round"/>
<path d="M24.82 56.0309C24.82 56.0309 36.3944 59.4836 38.7605 59.6763C41.1266 59.8691 44.6457 57.8553 44.6457 57.8553L64.4017 47.846C64.4017 47.846 67.0868 45.9917 64.9135 43.4362C62.7401 40.8808 51.1657 47.3575 46.9586 47.9324" stroke="white" stroke-width="2" stroke-miterlimit="10" stroke-linejoin="round"/>
<path d="M10.8197 41.881C12.6906 39.6745 14.9902 37.6407 17.5291 36.2383C21.3174 34.1448 25.8203 34.7396 29.6718 36.3746C32.0245 37.3715 33.932 39.0663 36.205 40.1929C37.1554 40.6614 38.0892 41.1732 39.0297 41.665C40.4553 42.4061 41.9341 43.0507 43.3364 43.8317C45.5463 45.0612 47.5601 46.9022 46.6164 49.6405C45.8055 51.9833 41.6716 50.5776 41.6716 50.5776L35.1084 48.4874L29.4059 46.5699" stroke="white" stroke-width="2" stroke-miterlimit="10" stroke-linejoin="round"/>
<path d="M29.4026 49.8931C31.3366 49.9263 33.2807 49.0556 35.1084 48.4641" stroke="white" stroke-width="2" stroke-miterlimit="10" stroke-linejoin="round"/>
<path d="M19.8385 64.6378L19.8373 64.6366L1.19795 46.3039L1.28667 46.2123L1.90245 45.5772C2.41491 45.0488 3.10503 44.3376 3.81569 43.6064C5.23875 42.1422 6.73953 40.6025 7.06591 40.2843C7.34094 40.0162 7.72235 39.9337 8.06021 39.9263C8.22648 39.9227 8.37461 39.9375 8.48111 39.9533C8.52725 39.9602 8.56517 39.9672 8.5929 39.9728L8.59513 39.975L8.72537 40.1045L9.2208 40.5973L10.9986 42.3652C12.4754 43.8335 14.4574 45.8041 16.4787 47.8127C20.5205 51.8291 24.7215 56.0002 25.3507 56.6111C25.9324 57.1759 26.0183 57.704 25.9763 58.0803C25.9548 58.2734 25.8985 58.4335 25.8477 58.5451C25.8224 58.6007 25.7987 58.6435 25.782 58.6716C25.7753 58.6829 25.7697 58.6917 25.7657 58.698L19.9066 64.7059L19.8385 64.6378Z" fill="white" stroke="black" stroke-width="0.413261"/>
<path d="M42.9012 18.8404C44.2311 17.7631 44.4349 15.8129 43.3565 14.4845C42.278 13.1561 40.3258 12.9525 38.9959 14.0298C37.6661 15.1071 37.4622 17.0572 38.5407 18.3856C39.6191 19.714 41.5714 19.9176 42.9012 18.8404Z" stroke="white" stroke-width="2" stroke-miterlimit="8.35"/>
<path d="M54.6183 9.89699L52.6702 10.554C51.4427 10.9641 50.1105 10.3029 49.7 9.07676C49.4612 8.36953 49.5785 7.58696 50.01 6.98016L51.1998 5.30622L48.1373 3.13429L46.9475 4.81241C46.1976 5.86699 44.7314 6.1139 43.6756 5.36481C43.064 4.92959 42.6953 4.23072 42.6869 3.48164L42.6618 1.42688L38.9081 1.46873L38.9333 3.52348C38.9374 4.8166 37.8901 5.87118 36.5956 5.87536C35.8583 5.87536 35.1628 5.53639 34.7187 4.95051L33.4787 3.31006L30.4665 5.54895L31.694 7.19777C32.469 8.23561 32.2554 9.7003 31.2206 10.4745C30.6173 10.9265 29.8339 11.0562 29.1134 10.8302L27.1485 10.2234L26.0258 13.7805L27.9906 14.3873C29.2265 14.7765 29.9135 16.0906 29.5281 17.3251C29.3019 18.0407 28.7531 18.6056 28.0409 18.8442L26.0928 19.5012L27.2784 22.9997L29.2265 22.3427C30.454 21.9284 31.7862 22.5896 32.2009 23.8158C32.4397 24.5272 32.3266 25.3097 31.8909 25.9207L30.7011 27.5947L33.7636 29.7708L34.9533 28.0969C35.6991 27.0423 37.1612 26.7912 38.2211 27.5361C38.8369 27.9713 39.2056 28.6744 39.2098 29.4234L39.2349 31.4782L42.9886 31.4196L42.9634 29.3649C42.9467 28.0717 43.9815 27.0088 45.2802 26.9879C46.0426 26.9795 46.759 27.3352 47.2073 27.9504L48.4348 29.595L51.4469 27.3561L50.2194 25.7115C49.4444 24.6737 49.6623 23.2048 50.7012 22.4306C51.3045 21.9828 52.0837 21.8489 52.8001 22.0749L54.7649 22.6817L55.8793 19.1036L53.9145 18.4968C52.6786 18.1076 51.9915 16.7936 52.377 15.5591C52.6032 14.8435 53.152 14.2785 53.8642 14.04L55.8123 13.383L54.6183 9.89281V9.89699Z" stroke="white" stroke-width="2" stroke-miterlimit="8.35" stroke-linejoin="round"/>
</svg>
