<svg width="18" height="34" viewBox="0 0 18 34" fill="none" xmlns="http://www.w3.org/2000/svg">
<path d="M8.13413 16.9992C8.13413 18.2264 7.64742 19.4025 6.78155 20.2697L3.01198 24.0462C1.89104 25.1409 1.25818 26.641 1.25818 28.2073C1.25818 30.7774 3.34151 32.8607 5.91155 32.8607H9H12.0885C14.6585 32.8607 16.7418 30.7774 16.7418 28.2073C16.7418 26.641 16.109 25.1395 14.988 24.0462L11.2185 20.2697C10.3526 19.4011 9.86587 18.225 9.86587 16.9992C9.86587 15.7721 10.3526 14.596 11.2185 13.7288L14.988 9.95233C16.109 8.85758 16.7418 7.35747 16.7418 5.79118C16.7418 3.22115 14.6585 1.13782 12.0885 1.13782H9H5.91155C3.34151 1.13782 1.25818 3.22115 1.25818 5.79118C1.25818 7.35747 1.89104 8.85896 3.01198 9.95233L6.78155 13.7288C7.64742 14.5974 8.13413 15.7735 8.13413 16.9992V16.9992Z" stroke="#800000" stroke-width="2" stroke-miterlimit="10"/>
<path d="M8.76174 13.6031C8.76174 12.7536 7.7207 11.5996 7.1203 10.9974L5.1203 9H12.6203L10.6203 10.9974C10.0199 11.5987 9.23845 12.4974 9.23845 13.6031H8.76002H8.76174Z" fill="#FFB547"/>
<path d="M9 25.3562L14.1566 30.1027C13.5077 30.6609 12.6642 31 11.7423 31H6.25765C5.33701 31 4.49227 30.6622 3.84341 30.1027L9 25.3562Z" fill="#FFB547"/>
</svg>
