<svg width="39" height="39" viewBox="0 0 39 39" fill="none" xmlns="http://www.w3.org/2000/svg">
<path d="M9.38084 2.47241V3.16584C9.38084 10.7327 12.2129 17.2413 16.5313 19.6493V20.1016C12.2128 22.5096 9.38076 29.0182 9.38076 36.5851V37.2786H30.6628V36.5851C30.6628 28.9738 27.7829 22.4632 23.4243 20.0946V19.6563C27.7826 17.2874 30.6628 10.7767 30.6628 3.16576V2.47241H9.38062H9.38084ZM10.7863 3.85919H29.2575C29.0737 11.0172 26.0853 16.8863 22.434 18.6217L22.0374 18.8097V20.9435L22.4341 21.1313C26.0851 22.8668 29.0734 28.7341 29.2575 35.8916H10.7863C10.9686 28.7742 13.9128 22.8976 17.5309 21.1267L17.9206 20.9366V18.8143L17.5309 18.6242C13.9129 16.8533 10.9685 10.9767 10.7863 3.85926V3.85919ZM26.6436 10.2513C22.3681 12.3153 17.4014 12.3175 13.4652 10.5552C14.5528 14.3333 16.7171 17.0224 19.2636 17.4668C19.1448 17.6237 19.0804 17.8151 19.0803 18.0119C19.0803 18.5136 19.4876 18.9211 19.9894 18.9211C20.4913 18.9211 20.8986 18.5136 20.8986 18.0119C20.8986 17.81 20.8313 17.6246 20.7201 17.4738C23.3493 17.0374 25.5805 14.203 26.6436 10.2514V10.2513ZM19.9894 20.0367C19.4876 20.0367 19.0803 20.444 19.0803 20.9459C19.0803 21.4478 19.4876 21.8551 19.9894 21.8551C20.4913 21.8551 20.8986 21.4478 20.8986 20.9459C20.8986 20.444 20.4913 20.0367 19.9894 20.0367ZM19.9894 22.952C19.4876 22.952 19.0803 23.3595 19.0803 23.8612C19.0803 24.3632 19.4876 24.7704 19.9894 24.7704C20.4913 24.7704 20.8986 24.3632 20.8986 23.8612C20.8986 23.3595 20.4913 22.952 19.9894 22.952ZM19.9894 25.8861C19.4876 25.8861 19.0803 26.2934 19.0803 26.7953C19.0803 27.297 19.4876 27.7045 19.9894 27.7045C20.4913 27.7045 20.8986 27.297 20.8986 26.7953C20.8986 26.2934 20.4913 25.8861 19.9894 25.8861ZM19.9987 28.8479C18.2761 28.8687 16.5706 30.7605 14.372 34.463H25.7274C23.4621 30.6776 21.7213 28.8271 19.9987 28.8479Z" fill="#F37321"/>
</svg>
