<svg width="32" height="34" viewBox="0 0 32 34" fill="none" xmlns="http://www.w3.org/2000/svg">
<path d="M16.3048 1.00041C8.24484 0.940411 1.67484 7.45041 1.61484 15.5104C1.61484 21.4604 5.14484 26.8604 10.6648 29.0804C10.4748 30.8804 8.92484 32.2404 7.13484 32.2404H8.93484C10.9148 32.2404 12.7748 31.4304 14.1448 29.9504C14.3648 29.9904 14.5748 30.0104 14.7848 30.0304C23.2448 30.7604 30.7548 24.2004 30.8748 15.7204C30.9848 7.56041 24.4948 1.00041 16.3048 1.00041Z" stroke="#800000" stroke-width="2" stroke-miterlimit="10.84"/>
<path d="M10.5 18C11.3238 18 12 17.3238 12 16.5C12 15.6762 11.3238 15 10.5 15C9.67623 15 9 15.6762 9 16.5C9 17.3238 9.67623 18 10.5 18Z" fill="#FFB547"/>
<path d="M16 18C16.8238 18 17.5 17.3238 17.5 16.5C17.5 15.6762 16.8238 15 16 15C15.1762 15 14.5 15.6762 14.5 16.5C14.5 17.3238 15.1762 18 16 18Z" fill="#FFB547"/>
<path d="M21.5 18C22.3238 18 23 17.3238 23 16.5C23 15.6762 22.3238 15 21.5 15C20.6762 15 20 15.6762 20 16.5C20 17.3238 20.6762 18 21.5 18Z" fill="#FFB547"/>
</svg>
