<svg width="69" height="66" viewBox="0 0 69 66" fill="none" xmlns="http://www.w3.org/2000/svg">
<path d="M32.9435 48.6431H5.60242C3.53554 48.6431 1.85855 46.9682 1.85855 44.8992V4.95346C1.85855 2.88448 3.53344 1.20959 5.60242 1.20959H63.3976C65.4645 1.20959 67.1414 2.88448 67.1414 4.95346V44.9013C67.1414 46.9682 65.4665 48.6452 63.3976 48.6452H32.9435V48.6431Z" stroke="white" stroke-width="2" stroke-miterlimit="10"/>
<path d="M67.1414 45.2745V4.57824C67.1414 2.71678 65.4645 1.20959 63.3955 1.20959H61.3915V48.6431H63.3955C65.4645 48.6431 67.1414 47.1338 67.1414 45.2745Z" stroke="white" stroke-width="2" stroke-miterlimit="10"/>
<path d="M1.85855 4.57824V45.2745C1.85855 47.1359 3.53554 48.6431 5.60451 48.6431H7.60851V1.20959H5.60451C3.53554 1.20959 1.85855 2.71888 1.85855 4.57824Z" stroke="white" stroke-width="2" stroke-miterlimit="10"/>
<path d="M64.2654 26.1192C64.9241 26.1192 65.4582 25.5851 65.4582 24.9264C65.4582 24.2677 64.9241 23.7336 64.2654 23.7336C63.6067 23.7336 63.0726 24.2677 63.0726 24.9264C63.0726 25.5851 63.6067 26.1192 64.2654 26.1192Z" fill="white"/>
<path d="M4.73248 27.3244V22.5283" stroke="white" stroke-width="2" stroke-linecap="round" stroke-linejoin="round"/>
<path d="M59.0479 45.6245L59.073 3.70203H9.85776L10.0464 17.2122V45.6245H59.0479Z" stroke="white" stroke-width="2" stroke-miterlimit="6.69"/>
<path d="M40.0686 53.8753C39.7416 54.2401 39.5509 54.7054 39.5278 55.1939V55.9632L25.089 55.9883L25.0806 54.8417C25.0785 54.7767 25.0617 54.7117 25.0324 54.653C23.521 50.7876 22.7433 46.6748 22.737 42.5242L22.7244 38.5058L22.7286 39.6398L22.6951 36.6485C22.6699 35.5186 23.4623 34.5355 24.5712 34.3217C25.7954 34.1309 26.942 34.9673 27.1328 36.1894C27.1517 36.3068 27.16 36.4242 27.16 36.5416V38.032L27.1223 35.2C27.0992 34.0156 27.9713 33.0053 29.1473 32.8564C30.3568 32.7055 31.4615 33.5629 31.6124 34.7724C31.6187 34.8206 31.6229 34.8688 31.625 34.917L31.6334 38.0236L31.625 35.1225C31.386 33.6761 32.5432 32.3219 34.109 32.433C34.6079 32.4686 35.0922 32.6761 35.4611 33.0157C36.046 33.5524 36.2996 34.2986 36.2137 35.0155L36.2178 38.0194V24.6057C36.199 23.5534 36.8761 22.6142 37.8823 22.304C39.0792 21.9518 40.3348 22.6373 40.687 23.8343C40.7478 24.0376 40.7771 24.2493 40.7792 24.4631L40.8044 41.2539L41.8609 39.9438C42.712 38.8894 43.5505 37.8182 44.2401 36.6506C45.0094 35.3447 46.5963 34.6781 48.114 35.1308C48.7281 35.3111 49.0782 35.9568 48.8958 36.5709L46.3573 45.1215C45.7263 47.2596 44.63 47.922 43.278 49.6954L40.0665 53.8753H40.0686Z" fill="#3D3933" stroke="white" stroke-width="2" stroke-miterlimit="8.35"/>
<path d="M21.7434 65L21.735 58.2481C21.7308 57.0092 22.7328 56.003 23.9696 55.9988C23.9738 55.9988 23.978 55.9988 23.9843 55.9988L39.7458 55.9695C40.991 55.9695 41.9993 56.9778 41.9993 58.2229L42.0076 64.9749" fill="white"/>
<path d="M21.7434 65L21.735 58.2481C21.7308 57.0092 22.7328 56.003 23.9696 55.9988C23.9738 55.9988 23.978 55.9988 23.9843 55.9988L39.7458 55.9695C40.991 55.9695 41.9993 56.9778 41.9993 58.2229L42.0076 64.9749" stroke="white" stroke-width="2" stroke-miterlimit="8.35"/>
</svg>
