<svg width="44" height="35" viewBox="0 0 44 35" fill="none" xmlns="http://www.w3.org/2000/svg">
<g clip-path="url(#clip0_416_835)">
<path d="M34.5839 1.14429H1.10498V17.6413H34.5839V1.14429Z" stroke="#800000" stroke-width="2" stroke-miterlimit="8.35"/>
<path d="M32.9852 11.4387V16.0846H28.3394" stroke="#800000" stroke-width="2" stroke-miterlimit="8.35"/>
<path d="M17.8444 14.8582C20.8628 14.8582 23.3098 12.4113 23.3098 9.39284C23.3098 6.37441 20.8628 3.92749 17.8444 3.92749C14.826 3.92749 12.3791 6.37441 12.3791 9.39284C12.3791 12.4113 14.826 14.8582 17.8444 14.8582Z" fill="#FFB547"/>
<path d="M8.89179 10.6094C9.56342 9.93775 9.56342 8.84881 8.89179 8.17718C8.22016 7.50555 7.13122 7.50555 6.45959 8.17718C5.78796 8.84881 5.78796 9.93775 6.45959 10.6094C7.13122 11.281 8.22016 11.281 8.89179 10.6094Z" fill="#FFB547"/>
<path d="M29.6415 9.78751C29.8597 8.86308 29.2872 7.9368 28.3628 7.71862C27.4383 7.50043 26.5121 8.07296 26.2939 8.99739C26.0757 9.92182 26.6482 10.8481 27.5726 11.0663C28.4971 11.2845 29.4233 10.712 29.6415 9.78751Z" fill="#FFB547"/>
<path d="M19.3723 7.93994C19.0347 7.71198 18.6726 7.53451 18.3263 7.44217V8.72483C19.609 9.0711 20.1572 9.58474 20.1572 10.5298V10.5471C20.1572 11.4921 19.4315 12.0996 18.3681 12.2092V13.0446H17.4909V12.1919C16.7652 12.0995 16.0568 11.8124 15.4998 11.3911L16.1578 10.4288C16.6137 10.7751 17.035 11.0102 17.5328 11.1127V9.77086C16.3179 9.4419 15.7192 8.98597 15.7192 7.98178V7.96447C15.7192 7.03674 16.4276 6.42066 17.4909 6.31101V5.8219H18.3681V6.33698C18.9669 6.41345 19.4733 6.63276 19.9379 6.95306L19.3723 7.93994ZM17.5328 8.51418V7.36715C17.1201 7.41764 16.9513 7.61964 16.9513 7.88944V7.90675C16.9513 8.17656 17.0696 8.34537 17.5328 8.51418ZM18.3263 9.9743V11.156C18.7231 11.0968 18.9251 10.9193 18.9251 10.6163V10.599C18.9251 10.3206 18.7822 10.1431 18.3263 9.9743Z" fill="white"/>
<path d="M36.8747 6.1167L5.30444 17.2592L10.795 32.8157L42.3652 21.6733L36.8747 6.1167Z" fill="white" stroke="#800000" stroke-width="2" stroke-miterlimit="8.35"/>
<path d="M23.8364 24.9318C26.8548 24.9318 29.3017 22.4849 29.3017 19.4664C29.3017 16.448 26.8548 14.0011 23.8364 14.0011C20.818 14.0011 18.371 16.448 18.371 19.4664C18.371 22.4849 20.818 24.9318 23.8364 24.9318Z" fill="#FFB547"/>
<path d="M15.7985 23.5941C16.2083 22.7372 15.8459 21.7103 14.989 21.3005C14.1322 20.8907 13.1053 21.2531 12.6955 22.11C12.2857 22.9669 12.6481 23.9937 13.505 24.4035C14.3618 24.8134 15.3887 24.4509 15.7985 23.5941Z" fill="#FFB547"/>
<path d="M33.5667 17.8065C34.511 17.7046 35.194 16.8564 35.092 15.9121C34.9901 14.9677 34.1419 14.2848 33.1976 14.3867C32.2532 14.4886 31.5703 15.3368 31.6722 16.2812C31.7742 17.2255 32.6223 17.9084 33.5667 17.8065Z" fill="#FFB547"/>
<path d="M24.793 17.5879C24.3991 17.4854 23.998 17.4393 23.6402 17.4667L24.0672 18.6757C25.3917 18.5748 26.0799 18.8777 26.3945 19.7694L26.4003 19.7853C26.7148 20.6769 26.2329 21.4907 25.2662 21.948L25.5447 22.7358L24.7179 23.0273L24.4337 22.2236C23.7181 22.378 22.9548 22.3434 22.2897 22.1298L22.5898 21.0044C23.1352 21.179 23.6113 21.2613 24.1134 21.1906L23.6676 19.9252C22.4123 20.019 21.6967 19.7896 21.362 18.8417L21.3562 18.8258C21.0474 17.95 21.5106 17.1348 22.4758 16.6775L22.3128 16.2158L23.1395 15.9243L23.3112 16.4091C23.9013 16.2807 24.451 16.3196 24.9964 16.4683L24.7915 17.5864L24.793 17.5879ZM23.2492 18.7407L22.8668 17.6586C22.4931 17.8432 22.4022 18.0914 22.4917 18.3453L22.4975 18.3612C22.5869 18.6151 22.7543 18.7349 23.2492 18.7407ZM24.4828 19.8531L24.8752 20.9669C25.2301 20.7794 25.3614 20.5442 25.2604 20.2585L25.2547 20.2426C25.1623 19.98 24.9675 19.8603 24.4828 19.8531Z" fill="white"/>
</g>
<defs>
<clipPath id="clip0_416_835">
<rect width="44" height="35" fill="white"/>
</clipPath>
</defs>
</svg>
