<svg width="66" height="64" viewBox="0 0 66 64" fill="none" xmlns="http://www.w3.org/2000/svg">
<g clip-path="url(#clip0_11_629)">
<path d="M43.014 24.6154C43.014 19.8418 41.371 15.1603 38.3212 11.4565C27.1484 14.2631 20.3917 25.5988 23.2108 36.785C23.9603 39.7354 25.3209 42.496 27.2464 44.8368C36.4937 42.542 43.014 34.2085 43.014 24.6096V24.6154Z" fill="white"/>
<path d="M37.4103 10.4788C37.2143 10.2487 37.0068 10.0187 36.7935 9.80015C28.8318 1.74264 15.8833 1.52409 7.63922 9.38031C-0.71445 17.34 -0.996941 30.5449 6.93587 38.8785C9.47253 41.5471 12.6145 43.468 16.137 44.4975V44.5895C16.1831 47.7757 13.6522 50.3925 10.5045 50.4443H13.3698C17.169 50.4443 20.6915 48.5234 22.8476 45.3889C34.349 44.9231 43.308 35.1805 42.8411 23.6664C42.6508 19.5945 41.2903 15.6147 38.9438 12.2904L37.4103 10.4845V10.4788Z" stroke="white" stroke-width="2" stroke-miterlimit="9.98"/>
<path d="M28.2265 46.1078C32.1295 50.3753 37.6121 52.785 43.3772 52.785H43.5156C45.6545 55.7067 49.0443 57.4666 52.6706 57.4666H55.507C52.44 57.4666 49.9322 54.9648 49.9322 51.8591V51.7211C60.713 48.1035 66.5242 36.4687 62.9441 25.6679C62.8057 25.2998 62.6673 24.926 62.5232 24.5579C60.4766 19.2265 56.2508 15.0108 50.8604 12.9691L49.1423 12.3192C38.2232 9.12149 26.7448 15.3789 23.5394 26.3178C21.7292 32.4371 22.888 39.0223 26.6065 44.2099L28.2322 46.1078H28.2265Z" stroke="white" stroke-width="2" stroke-miterlimit="9.98"/>
<path d="M64.2873 17.4838C65.4634 11.7498 64.7601 6.90726 61.6988 3.89935" stroke="white" stroke-width="2" stroke-miterlimit="9.98"/>
<path d="M5.77132 38.1653C1.43594 47.4709 0.963201 55.839 5.39658 60.3019C12.8855 67.8246 31.5933 61.2912 47.1419 45.734L45.5853 44.7448L49.9206 42.3925L48.8829 46.6715L46.1041 45.0266" stroke="white" stroke-width="2" stroke-miterlimit="9.98"/>
<path d="M61.693 3.90508C56.2277 -1.59888 45.7236 -0.166812 33.8994 7.35583" stroke="white" stroke-width="2" stroke-miterlimit="9.98"/>
</g>
<defs>
<clipPath id="clip0_11_629">
<rect width="64.8" height="64" fill="white" transform="translate(0.599998)"/>
</clipPath>
</defs>
</svg>
