<svg width="61" height="66" viewBox="0 0 61 66" fill="none" xmlns="http://www.w3.org/2000/svg">
<path d="M36.0442 32.5068V34.6685L30.4786 37.7411L24.7131 34.9169L24.5018 31.1075V28.3547C24.5018 28.1205 26.1524 29.7768 27.0919 30.6792C27.6944 31.276 28.5197 31.83 29.3078 31.83H31.4724C31.4724 31.83 33.0173 31.2931 33.6169 30.6963C34.3423 29.9795 35.4874 29.0258 36.2241 28.1348C36.247 28.1091 36.0442 32.5068 36.0442 32.5068Z" fill="white"/>
<path d="M28.454 65.0001L29.5562 42.6463V42.2237L29.2735 42.0466C29.0194 41.8896 28.868 41.6126 28.868 41.3156V39.8221L30.6357 37.6119L32.3176 39.8221V41.327C32.3176 41.6354 32.1549 41.9181 31.8864 42.0723L31.6266 42.2237V42.6463L32.7317 65.0029H28.454V65.0001Z" fill="white"/>
<path d="M24.8902 34.722L30.5272 37.432L36.4155 34.4736" stroke="white" stroke-width="2" stroke-miterlimit="6.69" stroke-linecap="round" stroke-linejoin="round"/>
<path d="M27.1033 42.0552L30.5758 37.4319L34.0396 42.0552" stroke="white" stroke-width="2" stroke-linecap="round" stroke-linejoin="round"/>
<path d="M36.4155 34.4735V28.3825C36.9723 27.8313 37.472 27.2802 37.6577 26.7919L39.9564 22.103L42.6464 20.7551L43.2918 17.5483C43.3061 16.8544 42.7549 16.2804 42.0639 16.269C42.0639 16.269 41.8925 16.269 41.8897 16.269H41.3614C41.5584 15.1867 41.6641 14.0901 41.6784 12.9907V12.4739C41.6898 10.9118 41.3557 9.36695 40.7046 7.95057C40.6475 7.81921 40.5875 7.68785 40.5218 7.5565C38.5315 3.50438 34.3423 1.0457 29.8732 1.30556C23.9164 1.65109 19.3789 6.85973 19.3789 12.8851V12.9679C19.3903 14.073 19.4845 15.1753 19.6587 16.2661H19.1618C18.4508 16.2661 17.8768 16.8401 17.874 17.5511V17.5597L18.8049 20.7751L21.1779 22.1287L23.4396 26.849C23.865 27.9741 25.8954 30.7153 27.1033 31.7262C27.7687 32.2859 28.6111 32.5972 29.4849 32.6057H31.7779" stroke="white" stroke-width="2" stroke-miterlimit="8.35" stroke-linejoin="round"/>
<path d="M24.8902 28.6681V34.7191" stroke="white" stroke-width="2" stroke-miterlimit="8.35" stroke-linejoin="round"/>
<path d="M1.76544 64.98V48.5888C1.76544 45.2306 3.96141 42.2693 7.17112 41.2927L21.3264 36.0155L24.4278 32.4888H25.8214" stroke="white" stroke-width="2" stroke-miterlimit="8.33"/>
<path d="M35.3983 32.486H36.3407L39.4481 35.9841L54.1373 41.1442C57.1928 42.2179 59.2346 45.1021 59.2346 48.3403V64.98" stroke="white" stroke-width="2" stroke-miterlimit="8.33"/>
<path d="M10.8406 57.9209V64.98" stroke="white" stroke-width="2" stroke-miterlimit="6.69"/>
<path d="M51.1704 57.9209V64.98" stroke="white" stroke-width="2" stroke-miterlimit="6.69"/>
</svg>
