<svg width="41" height="34" viewBox="0 0 41 34" fill="none" xmlns="http://www.w3.org/2000/svg">
<path d="M7.47272 4.73608C7.39389 4.92087 7.34848 5.12332 7.34848 5.33775C7.34848 6.20557 8.05169 6.90877 8.9195 6.90877C9.78731 6.90877 10.4905 6.20557 10.4905 5.33775C10.4905 5.12332 10.4451 4.9215 10.3663 4.73608" stroke="#800000" stroke-width="1.58139" stroke-linecap="round" stroke-linejoin="round"/>
<path d="M8.91951 5.30999V1.63062" stroke="#800000" stroke-width="1.58139" stroke-linecap="round" stroke-linejoin="round"/>
<path d="M9.51775 16.0637V19.0449" stroke="#800000" stroke-width="2" stroke-linecap="round" stroke-linejoin="round"/>
<path d="M14.4099 16.0637V19.0449" stroke="#800000" stroke-width="2" stroke-linecap="round" stroke-linejoin="round"/>
<path d="M9.51775 23.3619V26.3432" stroke="#800000" stroke-width="2" stroke-linecap="round" stroke-linejoin="round"/>
<path d="M14.4099 23.3619V26.3432" stroke="#800000" stroke-width="2" stroke-linecap="round" stroke-linejoin="round"/>
<path d="M29.7615 4.73608C29.8404 4.92087 29.8858 5.12332 29.8858 5.33775C29.8858 6.20557 29.1826 6.90877 28.3147 6.90877C27.4469 6.90877 26.7437 6.20557 26.7437 5.33775C26.7437 5.12332 26.7891 4.9215 26.868 4.73608" stroke="#800000" stroke-width="1.58139" stroke-linecap="round" stroke-linejoin="round"/>
<path d="M28.3148 5.30999V1.63062" stroke="#800000" stroke-width="1.58139" stroke-linecap="round" stroke-linejoin="round"/>
<path d="M26.5779 2.65051H10.6557" stroke="#800000" stroke-width="1.58139" stroke-linecap="round" stroke-linejoin="round"/>
<path d="M24.8719 33.3693C25.4242 33.3693 25.8719 32.9216 25.8719 32.3693C25.8719 31.817 25.4242 31.3693 24.8719 31.3693V33.3693ZM30.051 1.65051C29.4987 1.65051 29.051 2.09823 29.051 2.65051C29.051 3.2028 29.4987 3.65051 30.051 3.65051V1.65051ZM7.18324 3.65051C7.73553 3.65051 8.18324 3.2028 8.18324 2.65051C8.18324 2.09823 7.73553 1.65051 7.18324 1.65051V3.65051ZM34.5682 14.6492C34.5682 15.2015 35.0159 15.6492 35.5682 15.6492C36.1205 15.6492 36.5682 15.2015 36.5682 14.6492H34.5682ZM24.8719 31.3693H3.32538V33.3693H24.8719V31.3693ZM3.32538 31.3693C2.96126 31.3693 2.66606 31.0741 2.66606 30.71H0.666061C0.666061 32.1787 1.85674 33.3693 3.32538 33.3693V31.3693ZM2.66606 30.71V10.037H0.666061V30.71H2.66606ZM36.5682 10.037V4.30983H34.5682V10.037H36.5682ZM36.5682 4.30983C36.5682 2.84115 35.3775 1.65051 33.9089 1.65051V3.65051C34.2729 3.65051 34.5682 3.94575 34.5682 4.30983H36.5682ZM33.9089 1.65051H30.051V3.65051H33.9089V1.65051ZM7.18324 1.65051H3.32538V3.65051H7.18324V1.65051ZM3.32538 1.65051C1.85672 1.65051 0.666061 2.84117 0.666061 4.30983H2.66606C2.66606 3.94574 2.96129 3.65051 3.32538 3.65051V1.65051ZM0.666061 4.30983V10.037H2.66606V4.30983H0.666061ZM1.66606 11.037H35.5682V9.037H1.66606V11.037ZM34.5682 10.037V14.6492H36.5682V10.037H34.5682Z" fill="#800000"/>
<path d="M19.3014 16.0883V19.0695" stroke="#800000" stroke-width="2" stroke-linecap="round" stroke-linejoin="round"/>
<path d="M19.2081 23.3619V26.3432" stroke="#800000" stroke-width="2" stroke-linecap="round" stroke-linejoin="round"/>
<path d="M7.03539 21.2031H21.7844" stroke="#800000" stroke-width="2" stroke-linecap="round" stroke-linejoin="round"/>
<path d="M32.358 32.3693C36.4925 32.3693 39.8442 29.0176 39.8442 24.8831C39.8442 20.7486 36.4925 17.397 32.358 17.397C28.2235 17.397 24.8719 20.7486 24.8719 24.8831C24.8719 29.0176 28.2235 32.3693 32.358 32.3693Z" stroke="#FFB547" stroke-width="2" stroke-linecap="round" stroke-linejoin="round"/>
<path d="M29.1479 25.2742L31.7065 27.5559L35.8476 22.491" stroke="#FFB547" stroke-width="2" stroke-linecap="round" stroke-linejoin="round"/>
</svg>
