<svg width="1200" height="1200" viewBox="0 0 1200 1200" fill="none" xmlns="http://www.w3.org/2000/svg">
<rect width="1200" height="1200" fill="#0047E9"/>
<path d="M199.195 283.76V349.319H204.473C210.214 349.319 213.085 346.078 213.085 339.596V293.482C213.085 287.001 210.214 283.76 204.473 283.76H199.195ZM182.249 365.154V267.925H205.723C213.223 267.925 219.15 270.009 223.502 274.176C227.947 278.343 230.169 284.361 230.169 292.232V340.43C230.169 348.301 227.9 354.412 223.363 358.764C218.826 363.024 212.807 365.154 205.306 365.154H182.249ZM281.501 365.154H242.61V267.925H280.807V284.732H259.556V307.372H276.64V323.068H259.556V348.347H281.501V365.154ZM304.087 335.291V342.374C304.087 345.152 304.736 347.328 306.032 348.903C307.421 350.477 309.227 351.264 311.449 351.264C313.579 351.264 315.292 350.523 316.588 349.041C317.977 347.467 318.672 345.43 318.672 342.93C318.672 339.504 317.699 336.217 315.755 333.068C313.81 329.827 310.06 325.521 304.504 320.151C293.855 310.058 288.531 300.011 288.531 290.01C288.531 282.972 290.8 277.324 295.337 273.064C299.967 268.712 305.615 266.536 312.282 266.536C318.857 266.536 324.274 268.62 328.533 272.787C332.885 276.861 335.062 282.324 335.062 289.177V295.705H318.672V290.01C318.672 287.51 318.07 285.565 316.866 284.176C315.662 282.695 314.088 281.954 312.143 281.954C310.106 281.954 308.486 282.648 307.282 284.037C306.078 285.334 305.476 287.139 305.476 289.454C305.476 292.325 306.402 295.242 308.254 298.205C310.199 301.075 313.81 305.057 319.088 310.15C324.737 315.613 328.904 320.892 331.589 325.984C334.367 331.077 335.756 336.541 335.756 342.374C335.756 349.597 333.395 355.431 328.672 359.875C323.95 364.32 318.116 366.543 311.171 366.543C304.411 366.543 298.809 364.459 294.365 360.292C289.92 356.033 287.697 350.338 287.697 343.208V335.291H304.087ZM374.992 343.069V328.346H391.521V343.347C391.521 350.292 389.253 355.894 384.715 360.153C380.271 364.413 374.761 366.543 368.186 366.543C361.519 366.543 355.963 364.459 351.519 360.292C347.074 356.033 344.852 350.384 344.852 343.347V290.288C344.852 283.25 347.12 277.555 351.658 273.203C356.288 268.759 361.982 266.536 368.742 266.536C375.317 266.536 380.734 268.62 384.993 272.787C389.345 276.861 391.521 282.324 391.521 289.177V303.344H374.992V290.01C374.992 287.695 374.391 285.843 373.187 284.454C372.076 283.065 370.501 282.371 368.464 282.371C366.427 282.371 364.807 283.065 363.603 284.454C362.399 285.843 361.797 287.695 361.797 290.01V343.069C361.797 345.476 362.399 347.375 363.603 348.764C364.807 350.06 366.427 350.708 368.464 350.708C370.501 350.708 372.076 350.06 373.187 348.764C374.391 347.375 374.992 345.476 374.992 343.069ZM433.609 267.925H450.555V342.93C450.555 349.967 448.24 355.662 443.61 360.014C439.073 364.366 433.424 366.543 426.665 366.543C419.997 366.543 414.442 364.459 409.997 360.292C405.552 356.033 403.33 350.384 403.33 343.347V267.925H420.414V343.069C420.414 345.476 421.016 347.375 422.22 348.764C423.424 350.06 425.044 350.708 427.081 350.708C429.118 350.708 430.693 350.06 431.804 348.764C433.007 347.375 433.609 345.476 433.609 343.069V267.925ZM480.652 282.232V308.622H485.236C490.977 308.622 493.848 305.381 493.848 298.899V291.955C493.848 285.473 490.977 282.232 485.236 282.232H480.652ZM463.707 365.154V267.925H487.597C494.635 267.925 500.283 269.962 504.543 274.037C508.802 278.018 510.932 283.713 510.932 291.121V294.316C510.932 303.39 507.645 309.965 501.07 314.039C508.571 317.743 512.321 324.595 512.321 334.596V341.541C512.321 348.949 510.099 354.736 505.654 358.903C501.302 363.07 495.561 365.154 488.431 365.154H463.707ZM480.652 321.679V350.986H486.625C492.366 350.986 495.237 347.745 495.237 341.263V331.401C495.237 324.92 492.366 321.679 486.625 321.679H480.652ZM540.335 283.76V313.761H545.613C551.354 313.761 554.225 310.521 554.225 304.039V293.482C554.225 287.001 551.354 283.76 545.613 283.76H540.335ZM575.476 365.154H557.836L547.28 327.929H540.335V365.154H523.389V267.925H545.752C553.808 267.925 560.058 270.055 564.503 274.315C569.04 278.574 571.309 284.871 571.309 293.205V303.761C571.309 312.558 568.3 318.762 562.281 322.373L575.476 365.154ZM621.963 365.154H583.072V267.925H621.269V284.732H600.017V307.372H617.102V323.068H600.017V348.347H621.963V365.154ZM700.636 365.154H661.744V267.925H699.941V284.732H678.69V307.372H695.774V323.068H678.69V348.347H700.636V365.154ZM746.418 365.154H710.304V267.925H727.25V348.347H746.418V365.154ZM687.167 561.76V627.319H692.446C698.187 627.319 701.057 624.078 701.057 617.596V571.482C701.057 565.001 698.187 561.76 692.446 561.76H687.167ZM670.222 643.154V545.925H693.696C701.196 545.925 707.122 548.009 711.475 552.176C715.919 556.343 718.142 562.361 718.142 570.232V618.43C718.142 626.301 715.873 632.412 711.336 636.764C706.798 641.024 700.779 643.154 693.279 643.154H670.222ZM769.474 643.154H730.583V545.925H768.78V562.732H747.528V585.372H764.613V601.068H747.528V626.347H769.474V643.154ZM848.147 643.154H809.255V545.925H847.452V562.732H826.201V585.372H843.285V601.068H826.201V626.347H848.147V643.154ZM870.733 613.291V620.374C870.733 623.152 871.381 625.328 872.677 626.903C874.066 628.477 875.872 629.264 878.094 629.264C880.224 629.264 881.937 628.523 883.233 627.041C884.622 625.467 885.317 623.43 885.317 620.93C885.317 617.504 884.345 614.217 882.4 611.068C880.455 607.827 876.705 603.521 871.149 598.151C860.5 588.058 855.176 578.011 855.176 568.01C855.176 560.972 857.445 555.324 861.982 551.064C866.612 546.712 872.26 544.536 878.928 544.536C885.502 544.536 890.919 546.62 895.179 550.787C899.531 554.861 901.707 560.324 901.707 567.177V573.705H885.317V568.01C885.317 565.51 884.715 563.565 883.511 562.176C882.307 560.695 880.733 559.954 878.789 559.954C876.751 559.954 875.131 560.648 873.927 562.037C872.723 563.334 872.122 565.139 872.122 567.454C872.122 570.325 873.048 573.242 874.9 576.205C876.844 579.075 880.455 583.057 885.734 588.15C891.382 593.613 895.549 598.892 898.234 603.984C901.012 609.077 902.401 614.541 902.401 620.374C902.401 627.597 900.04 633.431 895.317 637.875C890.595 642.32 884.761 644.543 877.816 644.543C871.057 644.543 865.454 642.459 861.01 638.292C856.565 634.033 854.343 628.338 854.343 621.208V613.291H870.733ZM913.58 643.154V545.925H930.943V643.154H913.58ZM974.327 621.069V606.346H990.856V621.347C990.856 628.292 988.588 633.894 984.05 638.153C979.606 642.413 974.096 644.543 967.521 644.543C960.854 644.543 955.298 642.459 950.854 638.292C946.409 634.033 944.187 628.384 944.187 621.347V568.288C944.187 561.25 946.455 555.555 950.993 551.203C955.623 546.759 961.317 544.536 968.077 544.536C974.652 544.536 980.069 546.62 984.328 550.787C988.68 554.861 990.856 560.324 990.856 567.177V581.344H974.327V568.01C974.327 565.695 973.726 563.843 972.522 562.454C971.411 561.065 969.836 560.371 967.799 560.371C965.762 560.371 964.142 561.065 962.938 562.454C961.734 563.843 961.132 565.695 961.132 568.01V621.069C961.132 623.476 961.734 625.375 962.938 626.764C964.142 628.06 965.762 628.708 967.799 628.708C969.836 628.708 971.411 628.06 972.522 626.764C973.726 625.375 974.327 623.476 974.327 621.069ZM332.317 767.569L319.955 723.539V782.154H304.259V684.925H321.344L336.761 739.512L352.179 684.925H368.152V782.154H352.457V723.539L339.956 767.569H332.317ZM401.845 715.066L396.428 749.652H407.401L401.845 715.066ZM410.734 684.925L429.902 782.154H412.262L409.345 763.263H394.483L391.566 782.154H375.037L394.205 684.925H410.734ZM453.727 700.76V730.761H459.005C464.747 730.761 467.617 727.521 467.617 721.039V710.482C467.617 704.001 464.747 700.76 459.005 700.76H453.727ZM488.868 782.154H471.228L460.672 744.929H453.727V782.154H436.782V684.925H459.144C467.2 684.925 473.451 687.055 477.895 691.315C482.433 695.574 484.701 701.871 484.701 710.205V720.761C484.701 729.558 481.692 735.762 475.673 739.373L488.868 782.154ZM496.464 782.154V684.925H513.41V727.845L528.272 684.925H547.162L528.827 731.039L548.551 782.154H529.661L513.41 736.178V782.154H496.464ZM594.36 782.154H555.469V684.925H593.666V701.732H572.414V724.372H589.499V740.068H572.414V765.347H594.36V782.154ZM645.42 701.732H630.558V782.154H613.335V701.732H598.473V684.925H645.42V701.732ZM654.504 782.154V684.925H671.866V782.154H654.504ZM720.946 782.154L701.361 722.289V782.154H686.499V684.925H702.472L720.946 741.318V684.925H735.808V782.154H720.946ZM772.904 743.262V730.067H796.933V759.235C796.933 766.458 794.572 772.338 789.85 776.875C785.127 781.32 779.293 783.543 772.349 783.543C765.404 783.543 759.663 781.366 755.125 777.014C750.588 772.662 748.319 766.875 748.319 759.652V707.982C748.319 700.667 750.681 694.787 755.403 690.342C760.126 685.805 765.959 683.536 772.904 683.536C779.849 683.536 785.59 685.712 790.128 690.064C794.665 694.417 796.933 700.204 796.933 707.427V718.955H779.849V707.704C779.849 705.112 779.201 703.075 777.905 701.593C776.608 700.111 774.849 699.371 772.626 699.371C770.404 699.371 768.598 700.111 767.209 701.593C765.913 703.075 765.265 705.112 765.265 707.704V759.652C765.265 762.338 765.959 764.467 767.348 766.041C768.737 767.523 770.543 768.264 772.765 768.264C775.08 768.264 776.932 767.523 778.321 766.041C779.71 764.467 780.405 762.338 780.405 759.652V743.262H772.904ZM882.84 703.954C882.84 708.306 881.682 712.566 879.367 716.733C877.052 720.807 873.487 725.391 868.672 730.484L878.673 745.901L887.562 726.595H902.007L886.729 758.541L902.007 782.154H885.201L879.089 772.709C873.811 779.931 867.144 783.543 859.088 783.543C852.236 783.543 846.68 781.366 842.42 777.014C838.161 772.662 836.031 766.921 836.031 759.791C836.031 754.513 837.189 749.513 839.503 744.79C841.911 739.975 845.661 734.651 850.754 728.817C847.698 723.817 845.522 719.511 844.226 715.899C842.93 712.288 842.281 708.445 842.281 704.371C842.281 698.259 844.272 693.259 848.254 689.37C852.236 685.481 857.097 683.536 862.838 683.536C868.672 683.536 873.441 685.435 877.145 689.231C880.941 692.935 882.84 697.843 882.84 703.954ZM861.172 768.68C865.153 768.68 868.579 766.088 871.45 760.902L858.81 741.318C854.273 747.151 852.004 752.568 852.004 757.569C852.004 761.087 852.838 763.819 854.504 765.764C856.171 767.708 858.394 768.68 861.172 768.68ZM857.143 704.093C857.143 709.093 858.579 714.094 861.449 719.094C866.45 713.446 868.95 708.445 868.95 704.093C868.95 701.963 868.44 700.25 867.422 698.954C866.403 697.565 864.968 696.87 863.116 696.87C861.264 696.87 859.783 697.519 858.671 698.815C857.653 700.111 857.143 701.871 857.143 704.093ZM225.035 838.232V864.622H229.618C235.359 864.622 238.23 861.381 238.23 854.899V847.955C238.23 841.473 235.359 838.232 229.618 838.232H225.035ZM208.089 921.154V823.925H231.979C239.017 823.925 244.665 825.962 248.925 830.037C253.184 834.018 255.314 839.713 255.314 847.121V850.316C255.314 859.39 252.027 865.965 245.453 870.039C252.953 873.743 256.703 880.595 256.703 890.596V897.541C256.703 904.949 254.481 910.736 250.036 914.903C245.684 919.07 239.943 921.154 232.813 921.154H208.089ZM225.035 877.679V906.986H231.007C236.748 906.986 239.619 903.745 239.619 897.263V887.401C239.619 880.92 236.748 877.679 231.007 877.679H225.035ZM297.357 823.925H314.302V898.93C314.302 905.967 311.987 911.662 307.357 916.014C302.82 920.366 297.172 922.543 290.412 922.543C283.745 922.543 278.189 920.459 273.744 916.292C269.3 912.033 267.077 906.384 267.077 899.347V823.925H284.162V899.069C284.162 901.476 284.763 903.375 285.967 904.764C287.171 906.06 288.791 906.708 290.829 906.708C292.866 906.708 294.44 906.06 295.551 904.764C296.755 903.375 297.357 901.476 297.357 899.069V823.925ZM340.372 891.291V898.374C340.372 901.152 341.02 903.328 342.316 904.903C343.705 906.477 345.511 907.264 347.733 907.264C349.863 907.264 351.576 906.523 352.872 905.041C354.261 903.467 354.956 901.43 354.956 898.93C354.956 895.504 353.984 892.217 352.039 889.068C350.094 885.827 346.344 881.521 340.788 876.151C330.14 866.058 324.815 856.011 324.815 846.01C324.815 838.972 327.084 833.324 331.621 829.064C336.251 824.712 341.9 822.536 348.567 822.536C355.141 822.536 360.558 824.62 364.818 828.787C369.17 832.861 371.346 838.324 371.346 845.177V851.705H354.956V846.01C354.956 843.51 354.354 841.565 353.15 840.176C351.946 838.695 350.372 837.954 348.428 837.954C346.391 837.954 344.77 838.648 343.566 840.037C342.363 841.334 341.761 843.139 341.761 845.454C341.761 848.325 342.687 851.242 344.539 854.205C346.483 857.075 350.094 861.057 355.373 866.15C361.021 871.613 365.188 876.892 367.873 881.984C370.651 887.077 372.04 892.541 372.04 898.374C372.04 905.597 369.679 911.431 364.957 915.875C360.234 920.32 354.4 922.543 347.455 922.543C340.696 922.543 335.094 920.459 330.649 916.292C326.204 912.033 323.982 906.338 323.982 899.208V891.291H340.372ZM383.219 921.154V823.925H400.582V921.154H383.219ZM449.661 921.154L430.077 861.289V921.154H415.215V823.925H431.188L449.661 880.318V823.925H464.523V921.154H449.661ZM517.315 921.154H478.424V823.925H516.621V840.732H495.369V863.372H512.454V879.068H495.369V904.347H517.315V921.154ZM539.901 891.291V898.374C539.901 901.152 540.55 903.328 541.846 904.903C543.235 906.477 545.041 907.264 547.263 907.264C549.393 907.264 551.106 906.523 552.402 905.041C553.791 903.467 554.486 901.43 554.486 898.93C554.486 895.504 553.513 892.217 551.569 889.068C549.624 885.827 545.874 881.521 540.318 876.151C529.669 866.058 524.345 856.011 524.345 846.01C524.345 838.972 526.613 833.324 531.151 829.064C535.781 824.712 541.429 822.536 548.096 822.536C554.671 822.536 560.088 824.62 564.347 828.787C568.699 832.861 570.875 838.324 570.875 845.177V851.705H554.486V846.01C554.486 843.51 553.884 841.565 552.68 840.176C551.476 838.695 549.902 837.954 547.957 837.954C545.92 837.954 544.3 838.648 543.096 840.037C541.892 841.334 541.29 843.139 541.29 845.454C541.29 848.325 542.216 851.242 544.068 854.205C546.013 857.075 549.624 861.057 554.902 866.15C560.551 871.613 564.718 876.892 567.403 881.984C570.181 887.077 571.57 892.541 571.57 898.374C571.57 905.597 569.209 911.431 564.486 915.875C559.764 920.32 553.93 922.543 546.985 922.543C540.225 922.543 534.623 920.459 530.178 916.292C525.734 912.033 523.511 906.338 523.511 899.208V891.291H539.901ZM594.972 891.291V898.374C594.972 901.152 595.62 903.328 596.917 904.903C598.306 906.477 600.111 907.264 602.334 907.264C604.463 907.264 606.176 906.523 607.473 905.041C608.862 903.467 609.556 901.43 609.556 898.93C609.556 895.504 608.584 892.217 606.639 889.068C604.695 885.827 600.945 881.521 595.389 876.151C584.74 866.058 579.416 856.011 579.416 846.01C579.416 838.972 581.684 833.324 586.222 829.064C590.851 824.712 596.5 822.536 603.167 822.536C609.742 822.536 615.159 824.62 619.418 828.787C623.77 832.861 625.946 838.324 625.946 845.177V851.705H609.556V846.01C609.556 843.51 608.954 841.565 607.751 840.176C606.547 838.695 604.973 837.954 603.028 837.954C600.991 837.954 599.37 838.648 598.167 840.037C596.963 841.334 596.361 843.139 596.361 845.454C596.361 848.325 597.287 851.242 599.139 854.205C601.084 857.075 604.695 861.057 609.973 866.15C615.622 871.613 619.788 876.892 622.474 881.984C625.252 887.077 626.641 892.541 626.641 898.374C626.641 905.597 624.279 911.431 619.557 915.875C614.834 920.32 609.001 922.543 602.056 922.543C595.296 922.543 589.694 920.459 585.249 916.292C580.805 912.033 578.582 906.338 578.582 899.208V891.291H594.972ZM680.155 891.291V898.374C680.155 901.152 680.804 903.328 682.1 904.903C683.489 906.477 685.295 907.264 687.517 907.264C689.647 907.264 691.36 906.523 692.656 905.041C694.045 903.467 694.74 901.43 694.74 898.93C694.74 895.504 693.767 892.217 691.823 889.068C689.878 885.827 686.128 881.521 680.572 876.151C669.923 866.058 664.599 856.011 664.599 846.01C664.599 838.972 666.867 833.324 671.405 829.064C676.035 824.712 681.683 822.536 688.35 822.536C694.925 822.536 700.342 824.62 704.601 828.787C708.953 832.861 711.129 838.324 711.129 845.177V851.705H694.74V846.01C694.74 843.51 694.138 841.565 692.934 840.176C691.73 838.695 690.156 837.954 688.211 837.954C686.174 837.954 684.554 838.648 683.35 840.037C682.146 841.334 681.544 843.139 681.544 845.454C681.544 848.325 682.47 851.242 684.322 854.205C686.267 857.075 689.878 861.057 695.156 866.15C700.805 871.613 704.972 876.892 707.657 881.984C710.435 887.077 711.824 892.541 711.824 898.374C711.824 905.597 709.463 911.431 704.74 915.875C700.018 920.32 694.184 922.543 687.239 922.543C680.479 922.543 674.877 920.459 670.432 916.292C665.988 912.033 663.765 906.338 663.765 899.208V891.291H680.155ZM751.06 899.069V884.346H767.589V899.347C767.589 906.292 765.321 911.894 760.783 916.153C756.339 920.413 750.829 922.543 744.254 922.543C737.587 922.543 732.031 920.459 727.587 916.292C723.142 912.033 720.92 906.384 720.92 899.347V846.288C720.92 839.25 723.188 833.555 727.726 829.203C732.356 824.759 738.05 822.536 744.81 822.536C751.385 822.536 756.802 824.62 761.061 828.787C765.413 832.861 767.589 838.324 767.589 845.177V859.344H751.06V846.01C751.06 843.695 750.459 841.843 749.255 840.454C748.144 839.065 746.569 838.371 744.532 838.371C742.495 838.371 740.875 839.065 739.671 840.454C738.467 841.843 737.865 843.695 737.865 846.01V899.069C737.865 901.476 738.467 903.375 739.671 904.764C740.875 906.06 742.495 906.708 744.532 906.708C746.569 906.708 748.144 906.06 749.255 904.764C750.459 903.375 751.06 901.476 751.06 899.069ZM810.927 921.154V879.206H797.038V921.154H780.092V823.925H797.038V862.261H810.927V823.925H828.012V921.154H810.927ZM857.502 846.704V898.374C857.502 900.967 858.15 903.004 859.446 904.486C860.835 905.967 862.641 906.708 864.863 906.708C867.085 906.708 868.845 905.967 870.141 904.486C871.438 903.004 872.086 900.967 872.086 898.374V846.704C872.086 844.112 871.438 842.075 870.141 840.593C868.845 839.111 867.085 838.371 864.863 838.371C862.641 838.371 860.835 839.111 859.446 840.593C858.15 842.075 857.502 844.112 857.502 846.704ZM840.556 898.652V846.982C840.556 839.667 842.917 833.787 847.64 829.342C852.362 824.805 858.196 822.536 865.141 822.536C872.086 822.536 877.827 824.712 882.364 829.064C886.902 833.417 889.17 839.204 889.17 846.427V898.235C889.17 905.458 886.809 911.338 882.086 915.875C877.364 920.32 871.53 922.543 864.585 922.543C857.64 922.543 851.899 920.366 847.362 916.014C842.825 911.662 840.556 905.875 840.556 898.652ZM917.184 846.704V898.374C917.184 900.967 917.832 903.004 919.129 904.486C920.518 905.967 922.323 906.708 924.546 906.708C926.768 906.708 928.527 905.967 929.824 904.486C931.12 903.004 931.768 900.967 931.768 898.374V846.704C931.768 844.112 931.12 842.075 929.824 840.593C928.527 839.111 926.768 838.371 924.546 838.371C922.323 838.371 920.518 839.111 919.129 840.593C917.832 842.075 917.184 844.112 917.184 846.704ZM900.239 898.652V846.982C900.239 839.667 902.6 833.787 907.322 829.342C912.045 824.805 917.879 822.536 924.824 822.536C931.768 822.536 937.51 824.712 942.047 829.064C946.584 833.417 948.853 839.204 948.853 846.427V898.235C948.853 905.458 946.492 911.338 941.769 915.875C937.047 920.32 931.213 922.543 924.268 922.543C917.323 922.543 911.582 920.366 907.045 916.014C902.507 911.662 900.239 905.875 900.239 898.652ZM997.423 921.154H961.31V823.925H978.256V904.347H997.423V921.154Z" fill="white"/>
<path d="M813.659 343.069V328.346H830.188V343.347C830.188 350.292 827.919 355.894 823.382 360.153C818.937 364.413 813.428 366.543 806.853 366.543C800.186 366.543 794.63 364.459 790.186 360.292C785.741 356.033 783.518 350.384 783.518 343.347V290.288C783.518 283.25 785.787 277.555 790.324 273.203C794.954 268.759 800.649 266.536 807.409 266.536C813.983 266.536 819.4 268.62 823.66 272.787C828.012 276.861 830.188 282.324 830.188 289.177V303.344H813.659V290.01C813.659 287.695 813.057 285.843 811.854 284.454C810.742 283.065 809.168 282.371 807.131 282.371C805.094 282.371 803.473 283.065 802.27 284.454C801.066 285.843 800.464 287.695 800.464 290.01V343.069C800.464 345.476 801.066 347.375 802.27 348.764C803.473 350.06 805.094 350.708 807.131 350.708C809.168 350.708 810.742 350.06 811.854 348.764C813.057 347.375 813.659 345.476 813.659 343.069ZM873.526 365.154V323.206H859.636V365.154H842.691V267.925H859.636V306.261H873.526V267.925H890.611V365.154H873.526ZM905.238 365.154V267.925H922.601V365.154H905.238ZM976.125 365.154H937.234V267.925H975.43V284.732H954.179V307.372H971.263V323.068H954.179V348.347H976.125V365.154ZM1019.13 327.929H1002.74V365.154H985.794V267.925H1023.3V284.732H1002.74V311.678H1019.13V327.929ZM192.334 489.569L179.972 445.539V504.154H164.277V406.925H181.361L196.779 461.512L212.196 406.925H228.17V504.154H212.474V445.539L199.973 489.569H192.334ZM261.862 437.066L256.445 471.652H267.418L261.862 437.066ZM270.751 406.925L289.919 504.154H272.279L269.362 485.263H254.5L251.584 504.154H235.055L254.223 406.925H270.751ZM313.745 422.76V452.761H319.023C324.764 452.761 327.634 449.521 327.634 443.039V432.482C327.634 426.001 324.764 422.76 319.023 422.76H313.745ZM348.886 504.154H331.246L320.689 466.929H313.745V504.154H296.799V406.925H319.162C327.218 406.925 333.468 409.055 337.913 413.315C342.45 417.574 344.719 423.871 344.719 432.205V442.761C344.719 451.558 341.709 457.762 335.69 461.373L348.886 504.154ZM356.482 504.154V406.925H373.427V449.845L388.289 406.925H407.179L388.845 453.039L408.568 504.154H389.678L373.427 458.178V504.154H356.482ZM454.377 504.154H415.486V406.925H453.683V423.732H432.431V446.372H449.516V462.068H432.431V487.347H454.377V504.154ZM505.437 423.732H490.575V504.154H473.352V423.732H458.49V406.925H505.437V423.732ZM514.521 504.154V406.925H531.883V504.154H514.521ZM580.963 504.154L561.378 444.289V504.154H546.516V406.925H562.49L580.963 463.318V406.925H595.825V504.154H580.963ZM632.921 465.262V452.067H656.951V481.235C656.951 488.458 654.59 494.338 649.867 498.875C645.144 503.32 639.311 505.543 632.366 505.543C625.421 505.543 619.68 503.366 615.143 499.014C610.605 494.662 608.337 488.875 608.337 481.652V429.982C608.337 422.667 610.698 416.787 615.42 412.342C620.143 407.805 625.977 405.536 632.921 405.536C639.866 405.536 645.607 407.712 650.145 412.064C654.682 416.417 656.951 422.204 656.951 429.427V440.955H639.866V429.704C639.866 427.112 639.218 425.075 637.922 423.593C636.625 422.111 634.866 421.371 632.644 421.371C630.421 421.371 628.616 422.111 627.227 423.593C625.93 425.075 625.282 427.112 625.282 429.704V481.652C625.282 484.338 625.977 486.467 627.366 488.041C628.755 489.523 630.56 490.264 632.783 490.264C635.098 490.264 636.95 489.523 638.338 488.041C639.727 486.467 640.422 484.338 640.422 481.652V465.262H632.921ZM715.077 429.704V481.374C715.077 483.967 715.725 486.004 717.022 487.486C718.411 488.967 720.216 489.708 722.439 489.708C724.661 489.708 726.421 488.967 727.717 487.486C729.013 486.004 729.661 483.967 729.661 481.374V429.704C729.661 427.112 729.013 425.075 727.717 423.593C726.421 422.111 724.661 421.371 722.439 421.371C720.216 421.371 718.411 422.111 717.022 423.593C715.725 425.075 715.077 427.112 715.077 429.704ZM698.132 481.652V429.982C698.132 422.667 700.493 416.787 705.215 412.342C709.938 407.805 715.772 405.536 722.717 405.536C729.661 405.536 735.403 407.712 739.94 412.064C744.477 416.417 746.746 422.204 746.746 429.427V481.235C746.746 488.458 744.385 494.338 739.662 498.875C734.94 503.32 729.106 505.543 722.161 505.543C715.216 505.543 709.475 503.366 704.938 499.014C700.4 494.662 698.132 488.875 698.132 481.652ZM792.539 466.929H776.149V504.154H759.203V406.925H796.706V423.732H776.149V450.678H792.539V466.929ZM838.386 466.929H821.996V504.154H805.05V406.925H842.553V423.732H821.996V450.678H838.386V466.929ZM851.592 504.154V406.925H868.954V504.154H851.592ZM912.339 482.069V467.346H928.868V482.347C928.868 489.292 926.599 494.894 922.062 499.153C917.617 503.413 912.107 505.543 905.533 505.543C898.866 505.543 893.31 503.459 888.865 499.292C884.42 495.033 882.198 489.384 882.198 482.347V429.288C882.198 422.25 884.467 416.555 889.004 412.203C893.634 407.759 899.329 405.536 906.089 405.536C912.663 405.536 918.08 407.62 922.34 411.787C926.692 415.861 928.868 421.324 928.868 428.177V442.344H912.339V429.01C912.339 426.695 911.737 424.843 910.533 423.454C909.422 422.065 907.848 421.371 905.811 421.371C903.774 421.371 902.153 422.065 900.949 423.454C899.746 424.843 899.144 426.695 899.144 429.01V482.069C899.144 484.476 899.746 486.375 900.949 487.764C902.153 489.06 903.774 489.708 905.811 489.708C907.848 489.708 909.422 489.06 910.533 487.764C911.737 486.375 912.339 484.476 912.339 482.069ZM980.262 504.154H941.371V406.925H979.568V423.732H958.316V446.372H975.401V462.068H958.316V487.347H980.262V504.154ZM1006.88 422.76V452.761H1012.15C1017.9 452.761 1020.77 449.521 1020.77 443.039V432.482C1020.77 426.001 1017.9 422.76 1012.15 422.76H1006.88ZM1042.02 504.154H1024.38L1013.82 466.929H1006.88V504.154H989.931V406.925H1012.29C1020.35 406.925 1026.6 409.055 1031.04 413.315C1035.58 417.574 1037.85 423.871 1037.85 432.205V442.761C1037.85 451.558 1034.84 457.762 1028.82 461.373L1042.02 504.154ZM227.476 561.76V593.15H232.754C238.495 593.15 241.366 589.909 241.366 583.428V571.482C241.366 565.001 238.495 561.76 232.754 561.76H227.476ZM210.531 643.154V545.925H233.032C241.088 545.925 247.339 548.055 251.783 552.315C256.228 556.574 258.45 562.871 258.45 571.205V582.733C258.45 591.067 256.135 597.456 251.505 601.901C246.876 606.253 240.533 608.429 232.476 608.429H227.476V643.154H210.531ZM285.802 561.76V591.761H291.08C296.821 591.761 299.692 588.521 299.692 582.039V571.482C299.692 565.001 296.821 561.76 291.08 561.76H285.802ZM320.943 643.154H303.303L292.747 605.929H285.802V643.154H268.857V545.925H291.219C299.275 545.925 305.526 548.055 309.97 552.315C314.508 556.574 316.776 562.871 316.776 571.205V581.761C316.776 590.558 313.767 596.762 307.748 600.373L320.943 643.154ZM344.096 568.704V620.374C344.096 622.967 344.744 625.004 346.04 626.486C347.429 627.967 349.235 628.708 351.457 628.708C353.68 628.708 355.439 627.967 356.736 626.486C358.032 625.004 358.68 622.967 358.68 620.374V568.704C358.68 566.112 358.032 564.075 356.736 562.593C355.439 561.111 353.68 560.371 351.457 560.371C349.235 560.371 347.429 561.111 346.04 562.593C344.744 564.075 344.096 566.112 344.096 568.704ZM327.15 620.652V568.982C327.15 561.667 329.512 555.787 334.234 551.342C338.957 546.805 344.79 544.536 351.735 544.536C358.68 544.536 364.421 546.712 368.959 551.064C373.496 555.417 375.765 561.204 375.765 568.427V620.235C375.765 627.458 373.403 633.338 368.681 637.875C363.958 642.32 358.125 644.543 351.18 644.543C344.235 644.543 338.494 642.366 333.956 638.014C329.419 633.662 327.15 627.875 327.15 620.652ZM411.418 604.262V591.067H435.447V620.235C435.447 627.458 433.086 633.338 428.363 637.875C423.641 642.32 417.807 644.543 410.862 644.543C403.917 644.543 398.176 642.366 393.639 638.014C389.102 633.662 386.833 627.875 386.833 620.652V568.982C386.833 561.667 389.194 555.787 393.917 551.342C398.639 546.805 404.473 544.536 411.418 544.536C418.363 544.536 424.104 546.712 428.641 551.064C433.178 555.417 435.447 561.204 435.447 568.427V579.955H418.363V568.704C418.363 566.112 417.714 564.075 416.418 562.593C415.122 561.111 413.362 560.371 411.14 560.371C408.918 560.371 407.112 561.111 405.723 562.593C404.427 564.075 403.778 566.112 403.778 568.704V620.652C403.778 623.338 404.473 625.467 405.862 627.041C407.251 628.523 409.057 629.264 411.279 629.264C413.594 629.264 415.446 628.523 416.835 627.041C418.224 625.467 418.918 623.338 418.918 620.652V604.262H411.418ZM464.85 561.76V591.761H470.128C475.869 591.761 478.74 588.521 478.74 582.039V571.482C478.74 565.001 475.869 561.76 470.128 561.76H464.85ZM499.991 643.154H482.351L471.795 605.929H464.85V643.154H447.904V545.925H470.267C478.323 545.925 484.573 548.055 489.018 552.315C493.555 556.574 495.824 562.871 495.824 571.205V581.761C495.824 590.558 492.815 596.762 486.796 600.373L499.991 643.154ZM527.449 576.066L522.032 610.652H533.005L527.449 576.066ZM536.339 545.925L555.507 643.154H537.867L534.95 624.263H520.088L517.171 643.154H500.642L519.81 545.925H536.339ZM590.444 628.569L578.082 584.539V643.154H562.386V545.925H579.471L594.889 600.512L610.306 545.925H626.279V643.154H610.584V584.539L598.083 628.569H590.444Z" fill="#0AE4C3"/>
<path fill-rule="evenodd" clip-rule="evenodd" d="M388.895 130.388H133.275H80.088V180.966V223.154H133.275V180.966H388.895V130.388Z" fill="#0AE4C3"/>
<path fill-rule="evenodd" clip-rule="evenodd" d="M794.639 1039.7L1050.26 1039.7L1103.45 1039.7L1103.45 989.117L1103.45 946.93L1050.26 946.93L1050.26 989.117L794.639 989.117L794.639 1039.7Z" fill="#0AE4C3"/>
</svg>
