<svg width="51" height="125" viewBox="0 0 51 125" fill="none" xmlns="http://www.w3.org/2000/svg">
<path d="M0.707788 26.0919L-1.14302 23.7688L-3.40386 25.57L-1.66468 27.8789L0.707788 26.0919ZM33.1425 0.251V-2.71921H32.104L31.2917 -2.07208L33.1425 0.251ZM50.7856 0.251H53.7558V-2.71921H50.7856V0.251ZM50.7856 125V127.97H53.7558V125H50.7856ZM30.1129 125H27.1427V127.97H30.1129V125ZM30.1129 25.379H33.0831V19.4052L28.3202 23.0108L30.1129 25.379ZM11.0441 39.8143L8.67166 41.6013L10.463 43.9795L12.8369 42.1824L11.0441 39.8143ZM2.55859 28.4149L34.9933 2.57408L31.2917 -2.07208L-1.14302 23.7688L2.55859 28.4149ZM33.1425 3.22121H50.7856V-2.71921H33.1425V3.22121ZM47.8154 0.251V125H53.7558V0.251H47.8154ZM50.7856 122.03H30.1129V127.97H50.7856V122.03ZM33.0831 125V25.379H27.1427V125H33.0831ZM28.3202 23.0108L9.2514 37.4461L12.8369 42.1824L31.9056 27.7472L28.3202 23.0108ZM13.4166 38.0272L3.08026 24.3048L-1.66468 27.8789L8.67166 41.6013L13.4166 38.0272Z" fill="#0047E9"/>
</svg>
