<svg width="58" height="127" viewBox="0 0 58 127" fill="none" xmlns="http://www.w3.org/2000/svg">
<path d="M57.4784 127V129.97H60.4486V127H57.4784ZM0.450258 127H-2.51996V129.97H0.450258V127ZM0.450258 112.208L-2.19714 110.862L-2.51996 111.496V112.208H0.450258ZM31.8157 50.5467L34.4631 51.8933L34.4678 51.8842L34.4724 51.875L31.8157 50.5467ZM34.3107 23.4583L31.9345 25.2405L31.9691 25.2866L32.0055 25.3313L34.3107 23.4583ZM20.2319 43.24V46.2102H23.2021V43.24H20.2319ZM0.272045 43.24H-2.69817V46.2102H0.272045V43.24ZM8.64805 8.84488L10.7256 10.9676L10.7261 10.9671L8.64805 8.84488ZM49.2806 8.66667L47.1803 10.7669L47.1919 10.7785L47.2035 10.7899L49.2806 8.66667ZM48.7459 59.4573L51.3809 60.8283L51.3857 60.8189L48.7459 59.4573ZM23.6179 107.753L20.983 106.382L18.7243 110.723H23.6179V107.753ZM57.4784 107.753H60.4486V104.783H57.4784V107.753ZM57.4784 124.03H0.450258V129.97H57.4784V124.03ZM3.42047 127V112.208H-2.51996V127H3.42047ZM3.09765 113.555L34.4631 51.8933L29.1683 49.2L-2.19714 110.862L3.09765 113.555ZM34.4724 51.875C37.8576 45.1046 39.5977 38.2963 39.5977 31.4779H33.6573C33.6573 37.2532 32.1895 43.1574 29.1591 49.2184L34.4724 51.875ZM39.5977 31.4779C39.5977 27.6232 38.7359 24.1946 36.6159 21.5853L32.0055 25.3313C32.9745 26.524 33.6573 28.4417 33.6573 31.4779H39.5977ZM36.6869 21.6762C34.6682 18.9847 31.8049 17.6367 28.4297 17.6367V23.5771C30.0444 23.5771 31.1018 24.1301 31.9345 25.2405L36.6869 21.6762ZM28.4297 17.6367C24.9784 17.6367 21.9546 18.8249 19.9098 21.5363C17.9842 24.0899 17.2617 27.5661 17.2617 31.4779H23.2021C23.2021 28.1424 23.8459 26.1831 24.6528 25.113C25.3407 24.2008 26.4157 23.5771 28.4297 23.5771V17.6367ZM17.2617 31.4779V43.24H23.2021V31.4779H17.2617ZM20.2319 40.2697H0.272045V46.2102H20.2319V40.2697ZM3.24226 43.24V29.874H-2.69817V43.24H3.24226ZM3.24226 29.874C3.24226 22.035 5.7696 15.8182 10.7256 10.9676L6.57049 6.72216C0.358492 12.802 -2.69817 20.6046 -2.69817 29.874H3.24226ZM10.7261 10.9671C15.8754 5.92505 21.9616 3.43909 29.1425 3.43909V-2.50134C20.4031 -2.50134 12.8263 0.5967 6.57001 6.72263L10.7261 10.9671ZM29.1425 3.43909C36.3413 3.43909 42.2905 5.87712 47.1803 10.7669L51.3808 6.56641C45.3403 0.525822 37.8641 -2.50134 29.1425 -2.50134V3.43909ZM47.2035 10.7899C52.0187 15.5004 54.5082 21.7045 54.5082 29.6958H60.4486C60.4486 20.3411 57.4728 12.5257 51.3576 6.54346L47.2035 10.7899ZM54.5082 29.6958C54.5082 37.6024 51.8076 47.042 46.1062 58.0958L51.3857 60.8189C57.3275 49.299 60.4486 38.8976 60.4486 29.6958H54.5082ZM46.111 58.0864L20.983 106.382L26.2528 109.124L51.3808 60.8283L46.111 58.0864ZM23.6179 110.723H57.4784V104.783H23.6179V110.723ZM54.5082 107.753V127H60.4486V107.753H54.5082Z" fill="#0047E9"/>
</svg>
