<svg width="59" height="129" viewBox="0 0 59 129" fill="none" xmlns="http://www.w3.org/2000/svg">
<path d="M47.9242 62.4869L45.9372 60.2792L43.2965 62.6559L46.1034 64.8337L47.9242 62.4869ZM49.5281 120.584L51.5832 122.729L51.5841 122.728L49.5281 120.584ZM8.18269 120.941L6.08243 123.041L6.10576 123.064L6.12961 123.087L8.18269 120.941ZM0.163109 86.9021V83.9319H-2.80711V86.9021H0.163109ZM20.1229 86.9021H23.0932V83.9319H20.1229V86.9021ZM35.0928 106.684L32.8483 104.738L32.81 104.783L32.7735 104.828L35.0928 106.684ZM35.0928 74.0708L32.7735 75.9263L32.81 75.9719L32.8483 76.0161L35.0928 74.0708ZM21.1922 71.3976H18.222V74.3678H21.1922V71.3976ZM21.1922 54.4674V51.4972H18.222V54.4674H21.1922ZM34.0236 52.1506L31.688 50.3155L31.6786 50.3275L31.6693 50.3396L34.0236 52.1506ZM34.0236 22.3891L31.6066 24.1155L31.6774 24.2146L31.7561 24.3076L34.0236 22.3891ZM23.509 22.3891L25.7764 24.3076L25.8112 24.2665L25.8445 24.2241L23.509 22.3891ZM21.5487 39.6757V42.6459H24.5189V39.6757H21.5487ZM1.58881 39.6757H-1.3814V42.6459H1.58881V39.6757ZM9.60839 8.48845L11.6849 10.6122L11.6854 10.6117L9.60839 8.48845ZM48.8152 8.13202L46.7632 10.2795L46.7758 10.2915L46.7886 10.3034L48.8152 8.13202ZM53.8646 27.9136V41.9925H59.805V27.9136H53.8646ZM53.8646 41.9925C53.8646 49.5059 51.2235 55.5215 45.9372 60.2792L49.9111 64.6947C56.5057 58.7596 59.805 51.1123 59.805 41.9925H53.8646ZM46.1034 64.8337C52.1974 69.5618 55.2903 76.0819 55.2903 84.7635H61.2307C61.2307 74.4358 57.4327 66.1049 49.7449 60.1402L46.1034 64.8337ZM55.2903 84.7635V99.377H61.2307V84.7635H55.2903ZM55.2903 99.377C55.2903 107.177 52.6713 113.454 47.472 118.441L51.5841 122.728C58.028 116.547 61.2307 108.686 61.2307 99.377H55.2903ZM47.473 118.44C42.3546 123.345 36.0944 125.812 28.499 125.812V131.752C37.5367 131.752 45.2959 128.754 51.5832 122.729L47.473 118.44ZM28.499 125.812C21.1274 125.812 15.1081 123.455 10.2358 118.794L6.12961 123.087C12.1877 128.882 19.7125 131.752 28.499 131.752V125.812ZM10.2829 118.841C5.57661 114.134 3.13332 107.923 3.13332 99.9116H-2.80711C-2.80711 109.247 0.0959911 117.055 6.08243 123.041L10.2829 118.841ZM3.13332 99.9116V86.9021H-2.80711V99.9116H3.13332ZM0.163109 89.8723H20.1229V83.9319H0.163109V89.8723ZM17.1527 86.9021V99.1988H23.0932V86.9021H17.1527ZM17.1527 99.1988C17.1527 102.942 17.9476 106.304 20.0537 108.754C22.2337 111.29 25.3596 112.327 28.8554 112.327V106.387C26.5295 106.387 25.2892 105.731 24.5584 104.881C23.7537 103.945 23.0932 102.228 23.0932 99.1988H17.1527ZM28.8554 112.327C32.2923 112.327 35.3098 111.167 37.4122 108.539L32.7735 104.828C32.0245 105.764 30.8837 106.387 28.8554 106.387V112.327ZM37.3374 108.629C39.4953 106.139 40.3798 102.863 40.3798 99.1988H34.4394C34.4394 101.951 33.7794 103.664 32.8483 104.738L37.3374 108.629ZM40.3798 99.1988V81.5557H34.4394V99.1988H40.3798ZM40.3798 81.5557C40.3798 77.8919 39.4953 74.6154 37.3374 72.1255L32.8483 76.0161C33.7794 77.0905 34.4394 78.8039 34.4394 81.5557H40.3798ZM37.4122 72.2153C35.3098 69.5873 32.2923 68.4274 28.8554 68.4274V74.3678C30.8837 74.3678 32.0245 74.99 32.7735 75.9263L37.4122 72.2153ZM28.8554 68.4274H21.1922V74.3678H28.8554V68.4274ZM24.1624 71.3976V54.4674H18.222V71.3976H24.1624ZM21.1922 57.4376H28.8554V51.4972H21.1922V57.4376ZM28.8554 57.4376C31.8696 57.4376 34.5338 56.3588 36.3778 53.9616L31.6693 50.3396C31.1371 51.0315 30.3559 51.4972 28.8554 51.4972V57.4376ZM36.3591 53.9857C38.1838 51.6633 38.9541 48.7588 38.9541 45.5567H33.0137C33.0137 47.8199 32.4771 49.3113 31.688 50.3155L36.3591 53.9857ZM38.9541 45.5567V28.8047H33.0137V45.5567H38.9541ZM38.9541 28.8047C38.9541 25.6168 38.1892 22.7138 36.291 20.4705L31.7561 24.3076C32.4717 25.1533 33.0137 26.5274 33.0137 28.8047H38.9541ZM36.4405 20.6627C34.6305 18.1286 31.9555 16.9239 28.8554 16.9239V22.8643C30.2699 22.8643 31.0405 23.3229 31.6066 24.1155L36.4405 20.6627ZM28.8554 16.9239C25.7572 16.9239 23.0857 18.1202 21.1735 20.554L25.8445 24.2241C26.5461 23.3313 27.4388 22.8643 28.8554 22.8643V16.9239ZM21.2416 20.4705C19.3433 22.7138 18.5784 25.6168 18.5784 28.8047H24.5189C24.5189 26.5274 25.0609 25.1533 25.7764 24.3076L21.2416 20.4705ZM18.5784 28.8047V39.6757H24.5189V28.8047H18.5784ZM21.5487 36.7055H1.58881V42.6459H21.5487V36.7055ZM4.55903 39.6757V28.6265H-1.3814V39.6757H4.55903ZM4.55903 28.6265C4.55903 21.143 6.96809 15.2242 11.6849 10.6122L7.53186 6.36473C1.55592 12.2079 -1.3814 19.7144 -1.3814 28.6265H4.55903ZM11.6854 10.6117C16.6089 5.79524 22.3435 3.43909 29.0336 3.43909V-2.50134C20.7538 -2.50134 13.5383 0.488896 7.53134 6.36524L11.6854 10.6117ZM29.0336 3.43909C36.1614 3.43909 42.0052 5.73291 46.7632 10.2795L50.8672 5.98458C44.9325 0.313605 37.5885 -2.50134 29.0336 -2.50134V3.43909ZM46.7886 10.3034C51.4571 14.6607 53.8646 20.4291 53.8646 27.9136H59.805C59.805 19.0026 56.8661 11.5833 50.8419 5.96063L46.7886 10.3034Z" fill="#0047E9"/>
</svg>
